SplineFontDB: 3.2
FontName: picotypepro-bold
FullName: picotypepro
FamilyName: picotypepro
Weight: Bold
Copyright: (c) 2025 pico cherry
Version: 0.1
ItalicAngle: 0
UnderlinePosition: 75
UnderlineWidth: 50
Ascent: 800
Descent: 200
InvalidEm: 0
LayerCount: 2
Layer: 0 1 "Back" 1
Layer: 1 1 "Fore" 0
XUID: [1021 123 -1791954757 681313]
StyleMap: 0x0020
FSType: 0
OS2Version: 2
OS2_WeightWidthSlopeOnly: 0
OS2_UseTypoMetrics: 0
CreationTime: 1492570
ModificationTime: 1749656644
PfmFamily: 49
TTFWeight: 700
TTFWidth: 5
LineGap: 100
VLineGap: 0
Panose: 0 0 4 0 0 0 0 0 0 0
OS2TypoAscent: 800
OS2TypoAOffset: 0
OS2TypoDescent: -200
OS2TypoDOffset: 0
OS2TypoLinegap: 0
OS2WinAscent: 800
OS2WinAOffset: 0
OS2WinDescent: 200
OS2WinDOffset: 0
HheadAscent: 800
HheadAOffset: 0
HheadDescent: -200
HheadDOffset: 0
OS2SubXSize: 500
OS2SubYSize: 500
OS2SubXOff: 0
OS2SubYOff: -100
OS2SupXSize: 500
OS2SupYSize: 500
OS2SupXOff: 0
OS2SupYOff: 500
OS2StrikeYSize: 50
OS2StrikeYPos: 200
OS2CapHeight: 700
OS2XHeight: 500
OS2Vendor: 'YAL.'
OS2CodePages: 200101ff.cdff0000
OS2UnicodeRanges: 00000007.00000000.00000000.00000000
MarkAttachClasses: 1
DEI: 91125
ShortTable: maxp 16
  1
  0
  288
  120
  30
  0
  0
  2
  0
  0
  0
  0
  0
  0
  0
  0
EndShort
LangName: 1033 "" "" "Bold" "picotypepro-bold" "" "Version 0.1" "" "" "" "pico cherry" "10x5 pixel font with consistent baseline" "" "https://picocherry.com" "(c) 2025 pico cherry" "https://picocherry.com" "" "picotypepro" "bold" "" "pico cherry"
Encoding: UnicodeBmp
UnicodeInterp: none
NameList: AGL For New Fonts
DisplaySize: -48
AntiAlias: 1
FitToEm: 0
WinInfo: 64 32 14
BeginPrivate: 0
EndPrivate
TeXData: 1 0 0 629145 314572 209715 524288 1048576 209715 783286 444596 497025 792723 393216 433062 380633 303038 157286 324010 404750 52429 2506097 1059062 262144
BeginChars: 65537 288

StartChar: exclam
Encoding: 33 33 3
Width: 600
GlyphClass: 1
Flags: W
LayerCount: 2
Fore
SplineSet
100 700 m 1,0,-1
 200 700 l 1,1,-1
 200 600 l 1,2,-1
 100 600 l 1,3,-1
 100 700 l 1,0,-1
200 700 m 1,4,-1
 300 700 l 1,5,-1
 300 600 l 1,6,-1
 200 600 l 1,7,-1
 200 700 l 1,4,-1
100 600 m 1,8,-1
 200 600 l 1,9,-1
 200 500 l 1,10,-1
 100 500 l 1,11,-1
 100 600 l 1,8,-1
200 600 m 1,12,-1
 300 600 l 1,13,-1
 300 500 l 1,14,-1
 200 500 l 1,15,-1
 200 600 l 1,12,-1
100 500 m 1,16,-1
 200 500 l 1,17,-1
 200 400 l 1,18,-1
 100 400 l 1,19,-1
 100 500 l 1,16,-1
200 500 m 1,20,-1
 300 500 l 1,21,-1
 300 400 l 1,22,-1
 200 400 l 1,23,-1
 200 500 l 1,20,-1
100 400 m 1,24,-1
 200 400 l 1,25,-1
 200 300 l 1,26,-1
 100 300 l 1,27,-1
 100 400 l 1,24,-1
200 400 m 1,28,-1
 300 400 l 1,29,-1
 300 300 l 1,30,-1
 200 300 l 1,31,-1
 200 400 l 1,28,-1
100 300 m 1,32,-1
 200 300 l 1,33,-1
 200 200 l 1,34,-1
 100 200 l 1,35,-1
 100 300 l 1,32,-1
200 300 m 1,36,-1
 300 300 l 1,37,-1
 300 200 l 1,38,-1
 200 200 l 1,39,-1
 200 300 l 1,36,-1
100 100 m 1,40,-1
 200 100 l 1,41,-1
 200 0 l 1,42,-1
 100 0 l 1,43,-1
 100 100 l 1,40,-1
200 100 m 1,44,-1
 300 100 l 1,45,-1
 300 0 l 1,46,-1
 200 0 l 1,47,-1
 200 100 l 1,44,-1
EndSplineSet
Validated: 5
EndChar

StartChar: quotedbl
Encoding: 34 34 4
Width: 600
GlyphClass: 1
Flags: W
LayerCount: 2
Fore
SplineSet
100 700 m 1,0,-1
 200 700 l 1,1,-1
 200 600 l 1,2,-1
 100 600 l 1,3,-1
 100 700 l 1,0,-1
300 700 m 1,4,-1
 400 700 l 1,5,-1
 400 600 l 1,6,-1
 300 600 l 1,7,-1
 300 700 l 1,4,-1
100 600 m 1,8,-1
 200 600 l 1,9,-1
 200 500 l 1,10,-1
 100 500 l 1,11,-1
 100 600 l 1,8,-1
300 600 m 1,12,-1
 400 600 l 1,13,-1
 400 500 l 1,14,-1
 300 500 l 1,15,-1
 300 600 l 1,12,-1
EndSplineSet
Validated: 5
EndChar

StartChar: numbersign
Encoding: 35 35 5
Width: 600
GlyphClass: 1
Flags: W
LayerCount: 2
Fore
SplineSet
100 500 m 1,0,-1
 200 500 l 1,1,-1
 200 400 l 1,2,-1
 100 400 l 1,3,-1
 100 500 l 1,0,-1
300 500 m 1,4,-1
 400 500 l 1,5,-1
 400 400 l 1,6,-1
 300 400 l 1,7,-1
 300 500 l 1,4,-1
0 400 m 1,8,-1
 100 400 l 1,9,-1
 100 300 l 1,10,-1
 0 300 l 1,11,-1
 0 400 l 1,8,-1
100 400 m 1,12,-1
 200 400 l 1,13,-1
 200 300 l 1,14,-1
 100 300 l 1,15,-1
 100 400 l 1,12,-1
200 400 m 1,16,-1
 300 400 l 1,17,-1
 300 300 l 1,18,-1
 200 300 l 1,19,-1
 200 400 l 1,16,-1
300 400 m 1,20,-1
 400 400 l 1,21,-1
 400 300 l 1,22,-1
 300 300 l 1,23,-1
 300 400 l 1,20,-1
400 400 m 1,24,-1
 500 400 l 1,25,-1
 500 300 l 1,26,-1
 400 300 l 1,27,-1
 400 400 l 1,24,-1
100 300 m 1,28,-1
 200 300 l 1,29,-1
 200 200 l 1,30,-1
 100 200 l 1,31,-1
 100 300 l 1,28,-1
300 300 m 1,32,-1
 400 300 l 1,33,-1
 400 200 l 1,34,-1
 300 200 l 1,35,-1
 300 300 l 1,32,-1
0 200 m 1,36,-1
 100 200 l 1,37,-1
 100 100 l 1,38,-1
 0 100 l 1,39,-1
 0 200 l 1,36,-1
100 200 m 1,40,-1
 200 200 l 1,41,-1
 200 100 l 1,42,-1
 100 100 l 1,43,-1
 100 200 l 1,40,-1
200 200 m 1,44,-1
 300 200 l 1,45,-1
 300 100 l 1,46,-1
 200 100 l 1,47,-1
 200 200 l 1,44,-1
300 200 m 1,48,-1
 400 200 l 1,49,-1
 400 100 l 1,50,-1
 300 100 l 1,51,-1
 300 200 l 1,48,-1
400 200 m 1,52,-1
 500 200 l 1,53,-1
 500 100 l 1,54,-1
 400 100 l 1,55,-1
 400 200 l 1,52,-1
100 100 m 1,56,-1
 200 100 l 1,57,-1
 200 0 l 1,58,-1
 100 0 l 1,59,-1
 100 100 l 1,56,-1
300 100 m 1,60,-1
 400 100 l 1,61,-1
 400 0 l 1,62,-1
 300 0 l 1,63,-1
 300 100 l 1,60,-1
EndSplineSet
Validated: 5
EndChar

StartChar: dollar
Encoding: 36 36 6
Width: 600
GlyphClass: 1
Flags: W
LayerCount: 2
Fore
SplineSet
200 700 m 1,0,-1
 300 700 l 1,1,-1
 300 600 l 1,2,-1
 200 600 l 1,3,-1
 200 700 l 1,0,-1
100 600 m 1,4,-1
 200 600 l 1,5,-1
 200 500 l 1,6,-1
 100 500 l 1,7,-1
 100 600 l 1,4,-1
200 600 m 1,8,-1
 300 600 l 1,9,-1
 300 500 l 1,10,-1
 200 500 l 1,11,-1
 200 600 l 1,8,-1
300 600 m 1,12,-1
 400 600 l 1,13,-1
 400 500 l 1,14,-1
 300 500 l 1,15,-1
 300 600 l 1,12,-1
400 600 m 1,16,-1
 500 600 l 1,17,-1
 500 500 l 1,18,-1
 400 500 l 1,19,-1
 400 600 l 1,16,-1
0 500 m 1,20,-1
 100 500 l 1,21,-1
 100 400 l 1,22,-1
 0 400 l 1,23,-1
 0 500 l 1,20,-1
100 500 m 1,24,-1
 200 500 l 1,25,-1
 200 400 l 1,26,-1
 100 400 l 1,27,-1
 100 500 l 1,24,-1
200 500 m 1,28,-1
 300 500 l 1,29,-1
 300 400 l 1,30,-1
 200 400 l 1,31,-1
 200 500 l 1,28,-1
100 400 m 1,32,-1
 200 400 l 1,33,-1
 200 300 l 1,34,-1
 100 300 l 1,35,-1
 100 400 l 1,32,-1
200 400 m 1,36,-1
 300 400 l 1,37,-1
 300 300 l 1,38,-1
 200 300 l 1,39,-1
 200 400 l 1,36,-1
300 400 m 1,40,-1
 400 400 l 1,41,-1
 400 300 l 1,42,-1
 300 300 l 1,43,-1
 300 400 l 1,40,-1
200 300 m 1,44,-1
 300 300 l 1,45,-1
 300 200 l 1,46,-1
 200 200 l 1,47,-1
 200 300 l 1,44,-1
300 300 m 1,48,-1
 400 300 l 1,49,-1
 400 200 l 1,50,-1
 300 200 l 1,51,-1
 300 300 l 1,48,-1
400 300 m 1,52,-1
 500 300 l 1,53,-1
 500 200 l 1,54,-1
 400 200 l 1,55,-1
 400 300 l 1,52,-1
0 200 m 1,56,-1
 100 200 l 1,57,-1
 100 100 l 1,58,-1
 0 100 l 1,59,-1
 0 200 l 1,56,-1
100 200 m 1,60,-1
 200 200 l 1,61,-1
 200 100 l 1,62,-1
 100 100 l 1,63,-1
 100 200 l 1,60,-1
200 200 m 1,64,-1
 300 200 l 1,65,-1
 300 100 l 1,66,-1
 200 100 l 1,67,-1
 200 200 l 1,64,-1
300 200 m 1,68,-1
 400 200 l 1,69,-1
 400 100 l 1,70,-1
 300 100 l 1,71,-1
 300 200 l 1,68,-1
200 100 m 1,72,-1
 300 100 l 1,73,-1
 300 0 l 1,74,-1
 200 0 l 1,75,-1
 200 100 l 1,72,-1
EndSplineSet
Validated: 5
EndChar

StartChar: percent
Encoding: 37 37 7
Width: 600
GlyphClass: 1
Flags: W
LayerCount: 2
Fore
SplineSet
0 500 m 1,0,-1
 100 500 l 1,1,-1
 100 400 l 1,2,-1
 0 400 l 1,3,-1
 0 500 l 1,0,-1
400 500 m 1,4,-1
 500 500 l 1,5,-1
 500 400 l 1,6,-1
 400 400 l 1,7,-1
 400 500 l 1,4,-1
300 400 m 1,8,-1
 400 400 l 1,9,-1
 400 300 l 1,10,-1
 300 300 l 1,11,-1
 300 400 l 1,8,-1
400 400 m 1,12,-1
 500 400 l 1,13,-1
 500 300 l 1,14,-1
 400 300 l 1,15,-1
 400 400 l 1,12,-1
200 300 m 1,16,-1
 300 300 l 1,17,-1
 300 200 l 1,18,-1
 200 200 l 1,19,-1
 200 300 l 1,16,-1
300 300 m 1,20,-1
 400 300 l 1,21,-1
 400 200 l 1,22,-1
 300 200 l 1,23,-1
 300 300 l 1,20,-1
100 200 m 1,24,-1
 200 200 l 1,25,-1
 200 100 l 1,26,-1
 100 100 l 1,27,-1
 100 200 l 1,24,-1
200 200 m 1,28,-1
 300 200 l 1,29,-1
 300 100 l 1,30,-1
 200 100 l 1,31,-1
 200 200 l 1,28,-1
0 100 m 1,32,-1
 100 100 l 1,33,-1
 100 0 l 1,34,-1
 0 0 l 1,35,-1
 0 100 l 1,32,-1
100 100 m 1,36,-1
 200 100 l 1,37,-1
 200 0 l 1,38,-1
 100 0 l 1,39,-1
 100 100 l 1,36,-1
400 100 m 1,40,-1
 500 100 l 1,41,-1
 500 0 l 1,42,-1
 400 0 l 1,43,-1
 400 100 l 1,40,-1
EndSplineSet
Validated: 5
EndChar

StartChar: ampersand
Encoding: 38 38 8
Width: 600
GlyphClass: 1
Flags: W
LayerCount: 2
Fore
SplineSet
100 700 m 1,0,-1
 200 700 l 1,1,-1
 200 600 l 1,2,-1
 100 600 l 1,3,-1
 100 700 l 1,0,-1
200 700 m 1,4,-1
 300 700 l 1,5,-1
 300 600 l 1,6,-1
 200 600 l 1,7,-1
 200 700 l 1,4,-1
0 600 m 1,8,-1
 100 600 l 1,9,-1
 100 500 l 1,10,-1
 0 500 l 1,11,-1
 0 600 l 1,8,-1
300 600 m 1,12,-1
 400 600 l 1,13,-1
 400 500 l 1,14,-1
 300 500 l 1,15,-1
 300 600 l 1,12,-1
0 500 m 1,16,-1
 100 500 l 1,17,-1
 100 400 l 1,18,-1
 0 400 l 1,19,-1
 0 500 l 1,16,-1
300 500 m 1,20,-1
 400 500 l 1,21,-1
 400 400 l 1,22,-1
 300 400 l 1,23,-1
 300 500 l 1,20,-1
100 400 m 1,24,-1
 200 400 l 1,25,-1
 200 300 l 1,26,-1
 100 300 l 1,27,-1
 100 400 l 1,24,-1
0 300 m 1,28,-1
 100 300 l 1,29,-1
 100 200 l 1,30,-1
 0 200 l 1,31,-1
 0 300 l 1,28,-1
200 300 m 1,32,-1
 300 300 l 1,33,-1
 300 200 l 1,34,-1
 200 200 l 1,35,-1
 200 300 l 1,32,-1
400 300 m 1,36,-1
 500 300 l 1,37,-1
 500 200 l 1,38,-1
 400 200 l 1,39,-1
 400 300 l 1,36,-1
0 200 m 1,40,-1
 100 200 l 1,41,-1
 100 100 l 1,42,-1
 0 100 l 1,43,-1
 0 200 l 1,40,-1
100 200 m 1,44,-1
 200 200 l 1,45,-1
 200 100 l 1,46,-1
 100 100 l 1,47,-1
 100 200 l 1,44,-1
300 200 m 1,48,-1
 400 200 l 1,49,-1
 400 100 l 1,50,-1
 300 100 l 1,51,-1
 300 200 l 1,48,-1
100 100 m 1,52,-1
 200 100 l 1,53,-1
 200 0 l 1,54,-1
 100 0 l 1,55,-1
 100 100 l 1,52,-1
200 100 m 1,56,-1
 300 100 l 1,57,-1
 300 0 l 1,58,-1
 200 0 l 1,59,-1
 200 100 l 1,56,-1
400 100 m 1,60,-1
 500 100 l 1,61,-1
 500 0 l 1,62,-1
 400 0 l 1,63,-1
 400 100 l 1,60,-1
EndSplineSet
Validated: 5
EndChar

StartChar: quotesingle
Encoding: 39 39 9
Width: 600
GlyphClass: 1
Flags: W
LayerCount: 2
Fore
SplineSet
100 700 m 1,0,-1
 200 700 l 1,1,-1
 200 600 l 1,2,-1
 100 600 l 1,3,-1
 100 700 l 1,0,-1
100 600 m 1,4,-1
 200 600 l 1,5,-1
 200 500 l 1,6,-1
 100 500 l 1,7,-1
 100 600 l 1,4,-1
EndSplineSet
Validated: 5
EndChar

StartChar: parenleft
Encoding: 40 40 10
Width: 600
GlyphClass: 1
Flags: W
LayerCount: 2
Fore
SplineSet
200 700 m 1,0,-1
 300 700 l 1,1,-1
 300 600 l 1,2,-1
 200 600 l 1,3,-1
 200 700 l 1,0,-1
300 700 m 1,4,-1
 400 700 l 1,5,-1
 400 600 l 1,6,-1
 300 600 l 1,7,-1
 300 700 l 1,4,-1
100 600 m 1,8,-1
 200 600 l 1,9,-1
 200 500 l 1,10,-1
 100 500 l 1,11,-1
 100 600 l 1,8,-1
200 600 m 1,12,-1
 300 600 l 1,13,-1
 300 500 l 1,14,-1
 200 500 l 1,15,-1
 200 600 l 1,12,-1
0 500 m 1,16,-1
 100 500 l 1,17,-1
 100 400 l 1,18,-1
 0 400 l 1,19,-1
 0 500 l 1,16,-1
100 500 m 1,20,-1
 200 500 l 1,21,-1
 200 400 l 1,22,-1
 100 400 l 1,23,-1
 100 500 l 1,20,-1
0 400 m 1,24,-1
 100 400 l 1,25,-1
 100 300 l 1,26,-1
 0 300 l 1,27,-1
 0 400 l 1,24,-1
100 400 m 1,28,-1
 200 400 l 1,29,-1
 200 300 l 1,30,-1
 100 300 l 1,31,-1
 100 400 l 1,28,-1
0 300 m 1,32,-1
 100 300 l 1,33,-1
 100 200 l 1,34,-1
 0 200 l 1,35,-1
 0 300 l 1,32,-1
100 300 m 1,36,-1
 200 300 l 1,37,-1
 200 200 l 1,38,-1
 100 200 l 1,39,-1
 100 300 l 1,36,-1
100 200 m 1,40,-1
 200 200 l 1,41,-1
 200 100 l 1,42,-1
 100 100 l 1,43,-1
 100 200 l 1,40,-1
200 200 m 1,44,-1
 300 200 l 1,45,-1
 300 100 l 1,46,-1
 200 100 l 1,47,-1
 200 200 l 1,44,-1
200 100 m 1,48,-1
 300 100 l 1,49,-1
 300 0 l 1,50,-1
 200 0 l 1,51,-1
 200 100 l 1,48,-1
300 100 m 1,52,-1
 400 100 l 1,53,-1
 400 0 l 1,54,-1
 300 0 l 1,55,-1
 300 100 l 1,52,-1
EndSplineSet
Validated: 5
EndChar

StartChar: parenright
Encoding: 41 41 11
Width: 600
GlyphClass: 1
Flags: W
LayerCount: 2
Fore
SplineSet
100 700 m 1,0,-1
 200 700 l 1,1,-1
 200 600 l 1,2,-1
 100 600 l 1,3,-1
 100 700 l 1,0,-1
200 700 m 1,4,-1
 300 700 l 1,5,-1
 300 600 l 1,6,-1
 200 600 l 1,7,-1
 200 700 l 1,4,-1
200 600 m 1,8,-1
 300 600 l 1,9,-1
 300 500 l 1,10,-1
 200 500 l 1,11,-1
 200 600 l 1,8,-1
300 600 m 1,12,-1
 400 600 l 1,13,-1
 400 500 l 1,14,-1
 300 500 l 1,15,-1
 300 600 l 1,12,-1
300 500 m 1,16,-1
 400 500 l 1,17,-1
 400 400 l 1,18,-1
 300 400 l 1,19,-1
 300 500 l 1,16,-1
400 500 m 1,20,-1
 500 500 l 1,21,-1
 500 400 l 1,22,-1
 400 400 l 1,23,-1
 400 500 l 1,20,-1
300 400 m 1,24,-1
 400 400 l 1,25,-1
 400 300 l 1,26,-1
 300 300 l 1,27,-1
 300 400 l 1,24,-1
400 400 m 1,28,-1
 500 400 l 1,29,-1
 500 300 l 1,30,-1
 400 300 l 1,31,-1
 400 400 l 1,28,-1
300 300 m 1,32,-1
 400 300 l 1,33,-1
 400 200 l 1,34,-1
 300 200 l 1,35,-1
 300 300 l 1,32,-1
400 300 m 1,36,-1
 500 300 l 1,37,-1
 500 200 l 1,38,-1
 400 200 l 1,39,-1
 400 300 l 1,36,-1
200 200 m 1,40,-1
 300 200 l 1,41,-1
 300 100 l 1,42,-1
 200 100 l 1,43,-1
 200 200 l 1,40,-1
300 200 m 1,44,-1
 400 200 l 1,45,-1
 400 100 l 1,46,-1
 300 100 l 1,47,-1
 300 200 l 1,44,-1
100 100 m 1,48,-1
 200 100 l 1,49,-1
 200 0 l 1,50,-1
 100 0 l 1,51,-1
 100 100 l 1,48,-1
200 100 m 1,52,-1
 300 100 l 1,53,-1
 300 0 l 1,54,-1
 200 0 l 1,55,-1
 200 100 l 1,52,-1
EndSplineSet
Validated: 5
EndChar

StartChar: asterisk
Encoding: 42 42 12
Width: 600
GlyphClass: 1
Flags: W
LayerCount: 2
Fore
SplineSet
100 700 m 1,0,-1
 200 700 l 1,1,-1
 200 600 l 1,2,-1
 100 600 l 1,3,-1
 100 700 l 1,0,-1
0 600 m 1,4,-1
 100 600 l 1,5,-1
 100 500 l 1,6,-1
 0 500 l 1,7,-1
 0 600 l 1,4,-1
100 600 m 1,8,-1
 200 600 l 1,9,-1
 200 500 l 1,10,-1
 100 500 l 1,11,-1
 100 600 l 1,8,-1
200 600 m 1,12,-1
 300 600 l 1,13,-1
 300 500 l 1,14,-1
 200 500 l 1,15,-1
 200 600 l 1,12,-1
100 500 m 1,16,-1
 200 500 l 1,17,-1
 200 400 l 1,18,-1
 100 400 l 1,19,-1
 100 500 l 1,16,-1
0 400 m 1,20,-1
 100 400 l 1,21,-1
 100 300 l 1,22,-1
 0 300 l 1,23,-1
 0 400 l 1,20,-1
200 400 m 1,24,-1
 300 400 l 1,25,-1
 300 300 l 1,26,-1
 200 300 l 1,27,-1
 200 400 l 1,24,-1
EndSplineSet
Validated: 5
EndChar

StartChar: plus
Encoding: 43 43 13
Width: 600
GlyphClass: 1
Flags: W
LayerCount: 2
Fore
SplineSet
200 500 m 1,0,-1
 300 500 l 1,1,-1
 300 400 l 1,2,-1
 200 400 l 1,3,-1
 200 500 l 1,0,-1
200 400 m 1,4,-1
 300 400 l 1,5,-1
 300 300 l 1,6,-1
 200 300 l 1,7,-1
 200 400 l 1,4,-1
0 300 m 1,8,-1
 100 300 l 1,9,-1
 100 200 l 1,10,-1
 0 200 l 1,11,-1
 0 300 l 1,8,-1
100 300 m 1,12,-1
 200 300 l 1,13,-1
 200 200 l 1,14,-1
 100 200 l 1,15,-1
 100 300 l 1,12,-1
200 300 m 1,16,-1
 300 300 l 1,17,-1
 300 200 l 1,18,-1
 200 200 l 1,19,-1
 200 300 l 1,16,-1
300 300 m 1,20,-1
 400 300 l 1,21,-1
 400 200 l 1,22,-1
 300 200 l 1,23,-1
 300 300 l 1,20,-1
400 300 m 1,24,-1
 500 300 l 1,25,-1
 500 200 l 1,26,-1
 400 200 l 1,27,-1
 400 300 l 1,24,-1
200 200 m 1,28,-1
 300 200 l 1,29,-1
 300 100 l 1,30,-1
 200 100 l 1,31,-1
 200 200 l 1,28,-1
200 100 m 1,32,-1
 300 100 l 1,33,-1
 300 0 l 1,34,-1
 200 0 l 1,35,-1
 200 100 l 1,32,-1
EndSplineSet
Validated: 5
EndChar

StartChar: comma
Encoding: 44 44 14
Width: 600
GlyphClass: 1
Flags: W
LayerCount: 2
Fore
SplineSet
0 200 m 1,0,-1
 100 200 l 1,1,-1
 100 100 l 1,2,-1
 0 100 l 1,3,-1
 0 200 l 1,0,-1
100 200 m 1,4,-1
 200 200 l 1,5,-1
 200 100 l 1,6,-1
 100 100 l 1,7,-1
 100 200 l 1,4,-1
100 100 m 1,8,-1
 200 100 l 1,9,-1
 200 0 l 1,10,-1
 100 0 l 1,11,-1
 100 100 l 1,8,-1
0 0 m 1,12,-1
 100 0 l 1,13,-1
 100 -100 l 1,14,-1
 0 -100 l 1,15,-1
 0 0 l 1,12,-1
EndSplineSet
Validated: 5
EndChar

StartChar: hyphen
Encoding: 45 45 15
Width: 600
GlyphClass: 1
Flags: W
LayerCount: 2
Fore
SplineSet
100 300 m 1,0,-1
 200 300 l 1,1,-1
 200 200 l 1,2,-1
 100 200 l 1,3,-1
 100 300 l 1,0,-1
200 300 m 1,4,-1
 300 300 l 1,5,-1
 300 200 l 1,6,-1
 200 200 l 1,7,-1
 200 300 l 1,4,-1
300 300 m 1,8,-1
 400 300 l 1,9,-1
 400 200 l 1,10,-1
 300 200 l 1,11,-1
 300 300 l 1,8,-1
EndSplineSet
Validated: 5
EndChar

StartChar: period
Encoding: 46 46 16
Width: 600
GlyphClass: 1
Flags: W
LayerCount: 2
Fore
SplineSet
0 200 m 1,0,-1
 100 200 l 1,1,-1
 100 100 l 1,2,-1
 0 100 l 1,3,-1
 0 200 l 1,0,-1
100 200 m 1,4,-1
 200 200 l 1,5,-1
 200 100 l 1,6,-1
 100 100 l 1,7,-1
 100 200 l 1,4,-1
0 100 m 1,8,-1
 100 100 l 1,9,-1
 100 0 l 1,10,-1
 0 0 l 1,11,-1
 0 100 l 1,8,-1
100 100 m 1,12,-1
 200 100 l 1,13,-1
 200 0 l 1,14,-1
 100 0 l 1,15,-1
 100 100 l 1,12,-1
EndSplineSet
Validated: 5
EndChar

StartChar: slash
Encoding: 47 47 17
Width: 600
GlyphClass: 1
Flags: W
LayerCount: 2
Fore
SplineSet
300 700 m 1,0,-1
 400 700 l 1,1,-1
 400 600 l 1,2,-1
 300 600 l 1,3,-1
 300 700 l 1,0,-1
300 600 m 1,4,-1
 400 600 l 1,5,-1
 400 500 l 1,6,-1
 300 500 l 1,7,-1
 300 600 l 1,4,-1
200 500 m 1,8,-1
 300 500 l 1,9,-1
 300 400 l 1,10,-1
 200 400 l 1,11,-1
 200 500 l 1,8,-1
200 400 m 1,12,-1
 300 400 l 1,13,-1
 300 300 l 1,14,-1
 200 300 l 1,15,-1
 200 400 l 1,12,-1
200 300 m 1,16,-1
 300 300 l 1,17,-1
 300 200 l 1,18,-1
 200 200 l 1,19,-1
 200 300 l 1,16,-1
100 200 m 1,20,-1
 200 200 l 1,21,-1
 200 100 l 1,22,-1
 100 100 l 1,23,-1
 100 200 l 1,20,-1
100 100 m 1,24,-1
 200 100 l 1,25,-1
 200 0 l 1,26,-1
 100 0 l 1,27,-1
 100 100 l 1,24,-1
EndSplineSet
Validated: 5
EndChar

StartChar: zero
Encoding: 48 48 18
Width: 600
GlyphClass: 1
Flags: W
LayerCount: 2
Fore
SplineSet
100 700 m 1,0,-1
 200 700 l 1,1,-1
 200 600 l 1,2,-1
 100 600 l 1,3,-1
 100 700 l 1,0,-1
200 700 m 1,4,-1
 300 700 l 1,5,-1
 300 600 l 1,6,-1
 200 600 l 1,7,-1
 200 700 l 1,4,-1
300 700 m 1,8,-1
 400 700 l 1,9,-1
 400 600 l 1,10,-1
 300 600 l 1,11,-1
 300 700 l 1,8,-1
0 600 m 1,12,-1
 100 600 l 1,13,-1
 100 500 l 1,14,-1
 0 500 l 1,15,-1
 0 600 l 1,12,-1
100 600 m 1,16,-1
 200 600 l 1,17,-1
 200 500 l 1,18,-1
 100 500 l 1,19,-1
 100 600 l 1,16,-1
400 600 m 1,20,-1
 500 600 l 1,21,-1
 500 500 l 1,22,-1
 400 500 l 1,23,-1
 400 600 l 1,20,-1
0 500 m 1,24,-1
 100 500 l 1,25,-1
 100 400 l 1,26,-1
 0 400 l 1,27,-1
 0 500 l 1,24,-1
100 500 m 1,28,-1
 200 500 l 1,29,-1
 200 400 l 1,30,-1
 100 400 l 1,31,-1
 100 500 l 1,28,-1
200 500 m 1,32,-1
 300 500 l 1,33,-1
 300 400 l 1,34,-1
 200 400 l 1,35,-1
 200 500 l 1,32,-1
400 500 m 1,36,-1
 500 500 l 1,37,-1
 500 400 l 1,38,-1
 400 400 l 1,39,-1
 400 500 l 1,36,-1
0 400 m 1,40,-1
 100 400 l 1,41,-1
 100 300 l 1,42,-1
 0 300 l 1,43,-1
 0 400 l 1,40,-1
100 400 m 1,44,-1
 200 400 l 1,45,-1
 200 300 l 1,46,-1
 100 300 l 1,47,-1
 100 400 l 1,44,-1
200 400 m 1,48,-1
 300 400 l 1,49,-1
 300 300 l 1,50,-1
 200 300 l 1,51,-1
 200 400 l 1,48,-1
400 400 m 1,52,-1
 500 400 l 1,53,-1
 500 300 l 1,54,-1
 400 300 l 1,55,-1
 400 400 l 1,52,-1
0 300 m 1,56,-1
 100 300 l 1,57,-1
 100 200 l 1,58,-1
 0 200 l 1,59,-1
 0 300 l 1,56,-1
100 300 m 1,60,-1
 200 300 l 1,61,-1
 200 200 l 1,62,-1
 100 200 l 1,63,-1
 100 300 l 1,60,-1
200 300 m 1,64,-1
 300 300 l 1,65,-1
 300 200 l 1,66,-1
 200 200 l 1,67,-1
 200 300 l 1,64,-1
400 300 m 1,68,-1
 500 300 l 1,69,-1
 500 200 l 1,70,-1
 400 200 l 1,71,-1
 400 300 l 1,68,-1
0 200 m 1,72,-1
 100 200 l 1,73,-1
 100 100 l 1,74,-1
 0 100 l 1,75,-1
 0 200 l 1,72,-1
100 200 m 1,76,-1
 200 200 l 1,77,-1
 200 100 l 1,78,-1
 100 100 l 1,79,-1
 100 200 l 1,76,-1
400 200 m 1,80,-1
 500 200 l 1,81,-1
 500 100 l 1,82,-1
 400 100 l 1,83,-1
 400 200 l 1,80,-1
100 100 m 1,84,-1
 200 100 l 1,85,-1
 200 0 l 1,86,-1
 100 0 l 1,87,-1
 100 100 l 1,84,-1
200 100 m 1,88,-1
 300 100 l 1,89,-1
 300 0 l 1,90,-1
 200 0 l 1,91,-1
 200 100 l 1,88,-1
300 100 m 1,92,-1
 400 100 l 1,93,-1
 400 0 l 1,94,-1
 300 0 l 1,95,-1
 300 100 l 1,92,-1
EndSplineSet
Validated: 5
EndChar

StartChar: one
Encoding: 49 49 19
Width: 600
GlyphClass: 1
Flags: W
LayerCount: 2
Fore
SplineSet
200 700 m 1,0,-1
 300 700 l 1,1,-1
 300 600 l 1,2,-1
 200 600 l 1,3,-1
 200 700 l 1,0,-1
300 700 m 1,4,-1
 400 700 l 1,5,-1
 400 600 l 1,6,-1
 300 600 l 1,7,-1
 300 700 l 1,4,-1
100 600 m 1,8,-1
 200 600 l 1,9,-1
 200 500 l 1,10,-1
 100 500 l 1,11,-1
 100 600 l 1,8,-1
200 600 m 1,12,-1
 300 600 l 1,13,-1
 300 500 l 1,14,-1
 200 500 l 1,15,-1
 200 600 l 1,12,-1
300 600 m 1,16,-1
 400 600 l 1,17,-1
 400 500 l 1,18,-1
 300 500 l 1,19,-1
 300 600 l 1,16,-1
0 500 m 1,20,-1
 100 500 l 1,21,-1
 100 400 l 1,22,-1
 0 400 l 1,23,-1
 0 500 l 1,20,-1
200 500 m 1,24,-1
 300 500 l 1,25,-1
 300 400 l 1,26,-1
 200 400 l 1,27,-1
 200 500 l 1,24,-1
300 500 m 1,28,-1
 400 500 l 1,29,-1
 400 400 l 1,30,-1
 300 400 l 1,31,-1
 300 500 l 1,28,-1
200 400 m 1,32,-1
 300 400 l 1,33,-1
 300 300 l 1,34,-1
 200 300 l 1,35,-1
 200 400 l 1,32,-1
300 400 m 1,36,-1
 400 400 l 1,37,-1
 400 300 l 1,38,-1
 300 300 l 1,39,-1
 300 400 l 1,36,-1
200 300 m 1,40,-1
 300 300 l 1,41,-1
 300 200 l 1,42,-1
 200 200 l 1,43,-1
 200 300 l 1,40,-1
300 300 m 1,44,-1
 400 300 l 1,45,-1
 400 200 l 1,46,-1
 300 200 l 1,47,-1
 300 300 l 1,44,-1
200 200 m 1,48,-1
 300 200 l 1,49,-1
 300 100 l 1,50,-1
 200 100 l 1,51,-1
 200 200 l 1,48,-1
300 200 m 1,52,-1
 400 200 l 1,53,-1
 400 100 l 1,54,-1
 300 100 l 1,55,-1
 300 200 l 1,52,-1
0 100 m 1,56,-1
 100 100 l 1,57,-1
 100 0 l 1,58,-1
 0 0 l 1,59,-1
 0 100 l 1,56,-1
100 100 m 1,60,-1
 200 100 l 1,61,-1
 200 0 l 1,62,-1
 100 0 l 1,63,-1
 100 100 l 1,60,-1
200 100 m 1,64,-1
 300 100 l 1,65,-1
 300 0 l 1,66,-1
 200 0 l 1,67,-1
 200 100 l 1,64,-1
300 100 m 1,68,-1
 400 100 l 1,69,-1
 400 0 l 1,70,-1
 300 0 l 1,71,-1
 300 100 l 1,68,-1
400 100 m 1,72,-1
 500 100 l 1,73,-1
 500 0 l 1,74,-1
 400 0 l 1,75,-1
 400 100 l 1,72,-1
EndSplineSet
Validated: 5
EndChar

StartChar: two
Encoding: 50 50 20
Width: 600
GlyphClass: 1
Flags: W
LayerCount: 2
Fore
SplineSet
100 700 m 1,0,-1
 200 700 l 1,1,-1
 200 600 l 1,2,-1
 100 600 l 1,3,-1
 100 700 l 1,0,-1
200 700 m 1,4,-1
 300 700 l 1,5,-1
 300 600 l 1,6,-1
 200 600 l 1,7,-1
 200 700 l 1,4,-1
300 700 m 1,8,-1
 400 700 l 1,9,-1
 400 600 l 1,10,-1
 300 600 l 1,11,-1
 300 700 l 1,8,-1
0 600 m 1,12,-1
 100 600 l 1,13,-1
 100 500 l 1,14,-1
 0 500 l 1,15,-1
 0 600 l 1,12,-1
300 600 m 1,16,-1
 400 600 l 1,17,-1
 400 500 l 1,18,-1
 300 500 l 1,19,-1
 300 600 l 1,16,-1
400 600 m 1,20,-1
 500 600 l 1,21,-1
 500 500 l 1,22,-1
 400 500 l 1,23,-1
 400 600 l 1,20,-1
0 500 m 1,24,-1
 100 500 l 1,25,-1
 100 400 l 1,26,-1
 0 400 l 1,27,-1
 0 500 l 1,24,-1
300 500 m 1,28,-1
 400 500 l 1,29,-1
 400 400 l 1,30,-1
 300 400 l 1,31,-1
 300 500 l 1,28,-1
400 500 m 1,32,-1
 500 500 l 1,33,-1
 500 400 l 1,34,-1
 400 400 l 1,35,-1
 400 500 l 1,32,-1
300 400 m 1,36,-1
 400 400 l 1,37,-1
 400 300 l 1,38,-1
 300 300 l 1,39,-1
 300 400 l 1,36,-1
400 400 m 1,40,-1
 500 400 l 1,41,-1
 500 300 l 1,42,-1
 400 300 l 1,43,-1
 400 400 l 1,40,-1
100 300 m 1,44,-1
 200 300 l 1,45,-1
 200 200 l 1,46,-1
 100 200 l 1,47,-1
 100 300 l 1,44,-1
200 300 m 1,48,-1
 300 300 l 1,49,-1
 300 200 l 1,50,-1
 200 200 l 1,51,-1
 200 300 l 1,48,-1
300 300 m 1,52,-1
 400 300 l 1,53,-1
 400 200 l 1,54,-1
 300 200 l 1,55,-1
 300 300 l 1,52,-1
0 200 m 1,56,-1
 100 200 l 1,57,-1
 100 100 l 1,58,-1
 0 100 l 1,59,-1
 0 200 l 1,56,-1
100 200 m 1,60,-1
 200 200 l 1,61,-1
 200 100 l 1,62,-1
 100 100 l 1,63,-1
 100 200 l 1,60,-1
0 100 m 1,64,-1
 100 100 l 1,65,-1
 100 0 l 1,66,-1
 0 0 l 1,67,-1
 0 100 l 1,64,-1
100 100 m 1,68,-1
 200 100 l 1,69,-1
 200 0 l 1,70,-1
 100 0 l 1,71,-1
 100 100 l 1,68,-1
200 100 m 1,72,-1
 300 100 l 1,73,-1
 300 0 l 1,74,-1
 200 0 l 1,75,-1
 200 100 l 1,72,-1
300 100 m 1,76,-1
 400 100 l 1,77,-1
 400 0 l 1,78,-1
 300 0 l 1,79,-1
 300 100 l 1,76,-1
400 100 m 1,80,-1
 500 100 l 1,81,-1
 500 0 l 1,82,-1
 400 0 l 1,83,-1
 400 100 l 1,80,-1
EndSplineSet
Validated: 5
EndChar

StartChar: three
Encoding: 51 51 21
Width: 600
GlyphClass: 1
Flags: W
LayerCount: 2
Fore
SplineSet
0 700 m 1,0,-1
 100 700 l 1,1,-1
 100 600 l 1,2,-1
 0 600 l 1,3,-1
 0 700 l 1,0,-1
100 700 m 1,4,-1
 200 700 l 1,5,-1
 200 600 l 1,6,-1
 100 600 l 1,7,-1
 100 700 l 1,4,-1
200 700 m 1,8,-1
 300 700 l 1,9,-1
 300 600 l 1,10,-1
 200 600 l 1,11,-1
 200 700 l 1,8,-1
300 700 m 1,12,-1
 400 700 l 1,13,-1
 400 600 l 1,14,-1
 300 600 l 1,15,-1
 300 700 l 1,12,-1
400 700 m 1,16,-1
 500 700 l 1,17,-1
 500 600 l 1,18,-1
 400 600 l 1,19,-1
 400 700 l 1,16,-1
300 600 m 1,20,-1
 400 600 l 1,21,-1
 400 500 l 1,22,-1
 300 500 l 1,23,-1
 300 600 l 1,20,-1
400 600 m 1,24,-1
 500 600 l 1,25,-1
 500 500 l 1,26,-1
 400 500 l 1,27,-1
 400 600 l 1,24,-1
300 500 m 1,28,-1
 400 500 l 1,29,-1
 400 400 l 1,30,-1
 300 400 l 1,31,-1
 300 500 l 1,28,-1
400 500 m 1,32,-1
 500 500 l 1,33,-1
 500 400 l 1,34,-1
 400 400 l 1,35,-1
 400 500 l 1,32,-1
200 400 m 1,36,-1
 300 400 l 1,37,-1
 300 300 l 1,38,-1
 200 300 l 1,39,-1
 200 400 l 1,36,-1
300 400 m 1,40,-1
 400 400 l 1,41,-1
 400 300 l 1,42,-1
 300 300 l 1,43,-1
 300 400 l 1,40,-1
300 300 m 1,44,-1
 400 300 l 1,45,-1
 400 200 l 1,46,-1
 300 200 l 1,47,-1
 300 300 l 1,44,-1
400 300 m 1,48,-1
 500 300 l 1,49,-1
 500 200 l 1,50,-1
 400 200 l 1,51,-1
 400 300 l 1,48,-1
0 200 m 1,52,-1
 100 200 l 1,53,-1
 100 100 l 1,54,-1
 0 100 l 1,55,-1
 0 200 l 1,52,-1
300 200 m 1,56,-1
 400 200 l 1,57,-1
 400 100 l 1,58,-1
 300 100 l 1,59,-1
 300 200 l 1,56,-1
400 200 m 1,60,-1
 500 200 l 1,61,-1
 500 100 l 1,62,-1
 400 100 l 1,63,-1
 400 200 l 1,60,-1
100 100 m 1,64,-1
 200 100 l 1,65,-1
 200 0 l 1,66,-1
 100 0 l 1,67,-1
 100 100 l 1,64,-1
200 100 m 1,68,-1
 300 100 l 1,69,-1
 300 0 l 1,70,-1
 200 0 l 1,71,-1
 200 100 l 1,68,-1
300 100 m 1,72,-1
 400 100 l 1,73,-1
 400 0 l 1,74,-1
 300 0 l 1,75,-1
 300 100 l 1,72,-1
EndSplineSet
Validated: 5
EndChar

StartChar: four
Encoding: 52 52 22
Width: 600
GlyphClass: 1
Flags: W
LayerCount: 2
Fore
SplineSet
400 700 m 1,0,-1
 500 700 l 1,1,-1
 500 600 l 1,2,-1
 400 600 l 1,3,-1
 400 700 l 1,0,-1
300 600 m 1,4,-1
 400 600 l 1,5,-1
 400 500 l 1,6,-1
 300 500 l 1,7,-1
 300 600 l 1,4,-1
400 600 m 1,8,-1
 500 600 l 1,9,-1
 500 500 l 1,10,-1
 400 500 l 1,11,-1
 400 600 l 1,8,-1
200 500 m 1,12,-1
 300 500 l 1,13,-1
 300 400 l 1,14,-1
 200 400 l 1,15,-1
 200 500 l 1,12,-1
300 500 m 1,16,-1
 400 500 l 1,17,-1
 400 400 l 1,18,-1
 300 400 l 1,19,-1
 300 500 l 1,16,-1
400 500 m 1,20,-1
 500 500 l 1,21,-1
 500 400 l 1,22,-1
 400 400 l 1,23,-1
 400 500 l 1,20,-1
100 400 m 1,24,-1
 200 400 l 1,25,-1
 200 300 l 1,26,-1
 100 300 l 1,27,-1
 100 400 l 1,24,-1
300 400 m 1,28,-1
 400 400 l 1,29,-1
 400 300 l 1,30,-1
 300 300 l 1,31,-1
 300 400 l 1,28,-1
400 400 m 1,32,-1
 500 400 l 1,33,-1
 500 300 l 1,34,-1
 400 300 l 1,35,-1
 400 400 l 1,32,-1
0 300 m 1,36,-1
 100 300 l 1,37,-1
 100 200 l 1,38,-1
 0 200 l 1,39,-1
 0 300 l 1,36,-1
300 300 m 1,40,-1
 400 300 l 1,41,-1
 400 200 l 1,42,-1
 300 200 l 1,43,-1
 300 300 l 1,40,-1
400 300 m 1,44,-1
 500 300 l 1,45,-1
 500 200 l 1,46,-1
 400 200 l 1,47,-1
 400 300 l 1,44,-1
0 200 m 1,48,-1
 100 200 l 1,49,-1
 100 100 l 1,50,-1
 0 100 l 1,51,-1
 0 200 l 1,48,-1
100 200 m 1,52,-1
 200 200 l 1,53,-1
 200 100 l 1,54,-1
 100 100 l 1,55,-1
 100 200 l 1,52,-1
200 200 m 1,56,-1
 300 200 l 1,57,-1
 300 100 l 1,58,-1
 200 100 l 1,59,-1
 200 200 l 1,56,-1
300 200 m 1,60,-1
 400 200 l 1,61,-1
 400 100 l 1,62,-1
 300 100 l 1,63,-1
 300 200 l 1,60,-1
400 200 m 1,64,-1
 500 200 l 1,65,-1
 500 100 l 1,66,-1
 400 100 l 1,67,-1
 400 200 l 1,64,-1
300 100 m 1,68,-1
 400 100 l 1,69,-1
 400 0 l 1,70,-1
 300 0 l 1,71,-1
 300 100 l 1,68,-1
400 100 m 1,72,-1
 500 100 l 1,73,-1
 500 0 l 1,74,-1
 400 0 l 1,75,-1
 400 100 l 1,72,-1
EndSplineSet
Validated: 5
EndChar

StartChar: five
Encoding: 53 53 23
Width: 600
GlyphClass: 1
Flags: W
LayerCount: 2
Fore
SplineSet
0 700 m 1,0,-1
 100 700 l 1,1,-1
 100 600 l 1,2,-1
 0 600 l 1,3,-1
 0 700 l 1,0,-1
100 700 m 1,4,-1
 200 700 l 1,5,-1
 200 600 l 1,6,-1
 100 600 l 1,7,-1
 100 700 l 1,4,-1
200 700 m 1,8,-1
 300 700 l 1,9,-1
 300 600 l 1,10,-1
 200 600 l 1,11,-1
 200 700 l 1,8,-1
300 700 m 1,12,-1
 400 700 l 1,13,-1
 400 600 l 1,14,-1
 300 600 l 1,15,-1
 300 700 l 1,12,-1
0 600 m 1,16,-1
 100 600 l 1,17,-1
 100 500 l 1,18,-1
 0 500 l 1,19,-1
 0 600 l 1,16,-1
100 600 m 1,20,-1
 200 600 l 1,21,-1
 200 500 l 1,22,-1
 100 500 l 1,23,-1
 100 600 l 1,20,-1
0 500 m 1,24,-1
 100 500 l 1,25,-1
 100 400 l 1,26,-1
 0 400 l 1,27,-1
 0 500 l 1,24,-1
100 500 m 1,28,-1
 200 500 l 1,29,-1
 200 400 l 1,30,-1
 100 400 l 1,31,-1
 100 500 l 1,28,-1
0 400 m 1,32,-1
 100 400 l 1,33,-1
 100 300 l 1,34,-1
 0 300 l 1,35,-1
 0 400 l 1,32,-1
100 400 m 1,36,-1
 200 400 l 1,37,-1
 200 300 l 1,38,-1
 100 300 l 1,39,-1
 100 400 l 1,36,-1
0 300 m 1,40,-1
 100 300 l 1,41,-1
 100 200 l 1,42,-1
 0 200 l 1,43,-1
 0 300 l 1,40,-1
100 300 m 1,44,-1
 200 300 l 1,45,-1
 200 200 l 1,46,-1
 100 200 l 1,47,-1
 100 300 l 1,44,-1
200 300 m 1,48,-1
 300 300 l 1,49,-1
 300 200 l 1,50,-1
 200 200 l 1,51,-1
 200 300 l 1,48,-1
300 300 m 1,52,-1
 400 300 l 1,53,-1
 400 200 l 1,54,-1
 300 200 l 1,55,-1
 300 300 l 1,52,-1
200 200 m 1,56,-1
 300 200 l 1,57,-1
 300 100 l 1,58,-1
 200 100 l 1,59,-1
 200 200 l 1,56,-1
300 200 m 1,60,-1
 400 200 l 1,61,-1
 400 100 l 1,62,-1
 300 100 l 1,63,-1
 300 200 l 1,60,-1
400 200 m 1,64,-1
 500 200 l 1,65,-1
 500 100 l 1,66,-1
 400 100 l 1,67,-1
 400 200 l 1,64,-1
0 100 m 1,68,-1
 100 100 l 1,69,-1
 100 0 l 1,70,-1
 0 0 l 1,71,-1
 0 100 l 1,68,-1
100 100 m 1,72,-1
 200 100 l 1,73,-1
 200 0 l 1,74,-1
 100 0 l 1,75,-1
 100 100 l 1,72,-1
200 100 m 1,76,-1
 300 100 l 1,77,-1
 300 0 l 1,78,-1
 200 0 l 1,79,-1
 200 100 l 1,76,-1
300 100 m 1,80,-1
 400 100 l 1,81,-1
 400 0 l 1,82,-1
 300 0 l 1,83,-1
 300 100 l 1,80,-1
EndSplineSet
Validated: 5
EndChar

StartChar: six
Encoding: 54 54 24
Width: 600
GlyphClass: 1
Flags: W
LayerCount: 2
Fore
SplineSet
100 700 m 1,0,-1
 200 700 l 1,1,-1
 200 600 l 1,2,-1
 100 600 l 1,3,-1
 100 700 l 1,0,-1
200 700 m 1,4,-1
 300 700 l 1,5,-1
 300 600 l 1,6,-1
 200 600 l 1,7,-1
 200 700 l 1,4,-1
300 700 m 1,8,-1
 400 700 l 1,9,-1
 400 600 l 1,10,-1
 300 600 l 1,11,-1
 300 700 l 1,8,-1
0 600 m 1,12,-1
 100 600 l 1,13,-1
 100 500 l 1,14,-1
 0 500 l 1,15,-1
 0 600 l 1,12,-1
100 600 m 1,16,-1
 200 600 l 1,17,-1
 200 500 l 1,18,-1
 100 500 l 1,19,-1
 100 600 l 1,16,-1
0 500 m 1,20,-1
 100 500 l 1,21,-1
 100 400 l 1,22,-1
 0 400 l 1,23,-1
 0 500 l 1,20,-1
100 500 m 1,24,-1
 200 500 l 1,25,-1
 200 400 l 1,26,-1
 100 400 l 1,27,-1
 100 500 l 1,24,-1
0 400 m 1,28,-1
 100 400 l 1,29,-1
 100 300 l 1,30,-1
 0 300 l 1,31,-1
 0 400 l 1,28,-1
100 400 m 1,32,-1
 200 400 l 1,33,-1
 200 300 l 1,34,-1
 100 300 l 1,35,-1
 100 400 l 1,32,-1
0 300 m 1,36,-1
 100 300 l 1,37,-1
 100 200 l 1,38,-1
 0 200 l 1,39,-1
 0 300 l 1,36,-1
100 300 m 1,40,-1
 200 300 l 1,41,-1
 200 200 l 1,42,-1
 100 200 l 1,43,-1
 100 300 l 1,40,-1
200 300 m 1,44,-1
 300 300 l 1,45,-1
 300 200 l 1,46,-1
 200 200 l 1,47,-1
 200 300 l 1,44,-1
300 300 m 1,48,-1
 400 300 l 1,49,-1
 400 200 l 1,50,-1
 300 200 l 1,51,-1
 300 300 l 1,48,-1
0 200 m 1,52,-1
 100 200 l 1,53,-1
 100 100 l 1,54,-1
 0 100 l 1,55,-1
 0 200 l 1,52,-1
100 200 m 1,56,-1
 200 200 l 1,57,-1
 200 100 l 1,58,-1
 100 100 l 1,59,-1
 100 200 l 1,56,-1
400 200 m 1,60,-1
 500 200 l 1,61,-1
 500 100 l 1,62,-1
 400 100 l 1,63,-1
 400 200 l 1,60,-1
100 100 m 1,64,-1
 200 100 l 1,65,-1
 200 0 l 1,66,-1
 100 0 l 1,67,-1
 100 100 l 1,64,-1
200 100 m 1,68,-1
 300 100 l 1,69,-1
 300 0 l 1,70,-1
 200 0 l 1,71,-1
 200 100 l 1,68,-1
300 100 m 1,72,-1
 400 100 l 1,73,-1
 400 0 l 1,74,-1
 300 0 l 1,75,-1
 300 100 l 1,72,-1
EndSplineSet
Validated: 5
EndChar

StartChar: seven
Encoding: 55 55 25
Width: 600
GlyphClass: 1
Flags: W
LayerCount: 2
Fore
SplineSet
0 700 m 1,0,-1
 100 700 l 1,1,-1
 100 600 l 1,2,-1
 0 600 l 1,3,-1
 0 700 l 1,0,-1
100 700 m 1,4,-1
 200 700 l 1,5,-1
 200 600 l 1,6,-1
 100 600 l 1,7,-1
 100 700 l 1,4,-1
200 700 m 1,8,-1
 300 700 l 1,9,-1
 300 600 l 1,10,-1
 200 600 l 1,11,-1
 200 700 l 1,8,-1
300 700 m 1,12,-1
 400 700 l 1,13,-1
 400 600 l 1,14,-1
 300 600 l 1,15,-1
 300 700 l 1,12,-1
400 700 m 1,16,-1
 500 700 l 1,17,-1
 500 600 l 1,18,-1
 400 600 l 1,19,-1
 400 700 l 1,16,-1
300 600 m 1,20,-1
 400 600 l 1,21,-1
 400 500 l 1,22,-1
 300 500 l 1,23,-1
 300 600 l 1,20,-1
400 600 m 1,24,-1
 500 600 l 1,25,-1
 500 500 l 1,26,-1
 400 500 l 1,27,-1
 400 600 l 1,24,-1
300 500 m 1,28,-1
 400 500 l 1,29,-1
 400 400 l 1,30,-1
 300 400 l 1,31,-1
 300 500 l 1,28,-1
400 500 m 1,32,-1
 500 500 l 1,33,-1
 500 400 l 1,34,-1
 400 400 l 1,35,-1
 400 500 l 1,32,-1
200 400 m 1,36,-1
 300 400 l 1,37,-1
 300 300 l 1,38,-1
 200 300 l 1,39,-1
 200 400 l 1,36,-1
300 400 m 1,40,-1
 400 400 l 1,41,-1
 400 300 l 1,42,-1
 300 300 l 1,43,-1
 300 400 l 1,40,-1
100 300 m 1,44,-1
 200 300 l 1,45,-1
 200 200 l 1,46,-1
 100 200 l 1,47,-1
 100 300 l 1,44,-1
200 300 m 1,48,-1
 300 300 l 1,49,-1
 300 200 l 1,50,-1
 200 200 l 1,51,-1
 200 300 l 1,48,-1
100 200 m 1,52,-1
 200 200 l 1,53,-1
 200 100 l 1,54,-1
 100 100 l 1,55,-1
 100 200 l 1,52,-1
200 200 m 1,56,-1
 300 200 l 1,57,-1
 300 100 l 1,58,-1
 200 100 l 1,59,-1
 200 200 l 1,56,-1
100 100 m 1,60,-1
 200 100 l 1,61,-1
 200 0 l 1,62,-1
 100 0 l 1,63,-1
 100 100 l 1,60,-1
200 100 m 1,64,-1
 300 100 l 1,65,-1
 300 0 l 1,66,-1
 200 0 l 1,67,-1
 200 100 l 1,64,-1
EndSplineSet
Validated: 5
EndChar

StartChar: eight
Encoding: 56 56 26
Width: 600
GlyphClass: 1
Flags: W
LayerCount: 2
Fore
SplineSet
100 700 m 1,0,-1
 200 700 l 1,1,-1
 200 600 l 1,2,-1
 100 600 l 1,3,-1
 100 700 l 1,0,-1
200 700 m 1,4,-1
 300 700 l 1,5,-1
 300 600 l 1,6,-1
 200 600 l 1,7,-1
 200 700 l 1,4,-1
300 700 m 1,8,-1
 400 700 l 1,9,-1
 400 600 l 1,10,-1
 300 600 l 1,11,-1
 300 700 l 1,8,-1
0 600 m 1,12,-1
 100 600 l 1,13,-1
 100 500 l 1,14,-1
 0 500 l 1,15,-1
 0 600 l 1,12,-1
100 600 m 1,16,-1
 200 600 l 1,17,-1
 200 500 l 1,18,-1
 100 500 l 1,19,-1
 100 600 l 1,16,-1
400 600 m 1,20,-1
 500 600 l 1,21,-1
 500 500 l 1,22,-1
 400 500 l 1,23,-1
 400 600 l 1,20,-1
0 500 m 1,24,-1
 100 500 l 1,25,-1
 100 400 l 1,26,-1
 0 400 l 1,27,-1
 0 500 l 1,24,-1
100 500 m 1,28,-1
 200 500 l 1,29,-1
 200 400 l 1,30,-1
 100 400 l 1,31,-1
 100 500 l 1,28,-1
400 500 m 1,32,-1
 500 500 l 1,33,-1
 500 400 l 1,34,-1
 400 400 l 1,35,-1
 400 500 l 1,32,-1
0 400 m 1,36,-1
 100 400 l 1,37,-1
 100 300 l 1,38,-1
 0 300 l 1,39,-1
 0 400 l 1,36,-1
100 400 m 1,40,-1
 200 400 l 1,41,-1
 200 300 l 1,42,-1
 100 300 l 1,43,-1
 100 400 l 1,40,-1
400 400 m 1,44,-1
 500 400 l 1,45,-1
 500 300 l 1,46,-1
 400 300 l 1,47,-1
 400 400 l 1,44,-1
100 300 m 1,48,-1
 200 300 l 1,49,-1
 200 200 l 1,50,-1
 100 200 l 1,51,-1
 100 300 l 1,48,-1
200 300 m 1,52,-1
 300 300 l 1,53,-1
 300 200 l 1,54,-1
 200 200 l 1,55,-1
 200 300 l 1,52,-1
300 300 m 1,56,-1
 400 300 l 1,57,-1
 400 200 l 1,58,-1
 300 200 l 1,59,-1
 300 300 l 1,56,-1
0 200 m 1,60,-1
 100 200 l 1,61,-1
 100 100 l 1,62,-1
 0 100 l 1,63,-1
 0 200 l 1,60,-1
100 200 m 1,64,-1
 200 200 l 1,65,-1
 200 100 l 1,66,-1
 100 100 l 1,67,-1
 100 200 l 1,64,-1
400 200 m 1,68,-1
 500 200 l 1,69,-1
 500 100 l 1,70,-1
 400 100 l 1,71,-1
 400 200 l 1,68,-1
100 100 m 1,72,-1
 200 100 l 1,73,-1
 200 0 l 1,74,-1
 100 0 l 1,75,-1
 100 100 l 1,72,-1
200 100 m 1,76,-1
 300 100 l 1,77,-1
 300 0 l 1,78,-1
 200 0 l 1,79,-1
 200 100 l 1,76,-1
300 100 m 1,80,-1
 400 100 l 1,81,-1
 400 0 l 1,82,-1
 300 0 l 1,83,-1
 300 100 l 1,80,-1
EndSplineSet
Validated: 5
EndChar

StartChar: nine
Encoding: 57 57 27
Width: 600
GlyphClass: 1
Flags: W
LayerCount: 2
Fore
SplineSet
100 700 m 1,0,-1
 200 700 l 1,1,-1
 200 600 l 1,2,-1
 100 600 l 1,3,-1
 100 700 l 1,0,-1
200 700 m 1,4,-1
 300 700 l 1,5,-1
 300 600 l 1,6,-1
 200 600 l 1,7,-1
 200 700 l 1,4,-1
300 700 m 1,8,-1
 400 700 l 1,9,-1
 400 600 l 1,10,-1
 300 600 l 1,11,-1
 300 700 l 1,8,-1
0 600 m 1,12,-1
 100 600 l 1,13,-1
 100 500 l 1,14,-1
 0 500 l 1,15,-1
 0 600 l 1,12,-1
300 600 m 1,16,-1
 400 600 l 1,17,-1
 400 500 l 1,18,-1
 300 500 l 1,19,-1
 300 600 l 1,16,-1
400 600 m 1,20,-1
 500 600 l 1,21,-1
 500 500 l 1,22,-1
 400 500 l 1,23,-1
 400 600 l 1,20,-1
0 500 m 1,24,-1
 100 500 l 1,25,-1
 100 400 l 1,26,-1
 0 400 l 1,27,-1
 0 500 l 1,24,-1
300 500 m 1,28,-1
 400 500 l 1,29,-1
 400 400 l 1,30,-1
 300 400 l 1,31,-1
 300 500 l 1,28,-1
400 500 m 1,32,-1
 500 500 l 1,33,-1
 500 400 l 1,34,-1
 400 400 l 1,35,-1
 400 500 l 1,32,-1
0 400 m 1,36,-1
 100 400 l 1,37,-1
 100 300 l 1,38,-1
 0 300 l 1,39,-1
 0 400 l 1,36,-1
300 400 m 1,40,-1
 400 400 l 1,41,-1
 400 300 l 1,42,-1
 300 300 l 1,43,-1
 300 400 l 1,40,-1
400 400 m 1,44,-1
 500 400 l 1,45,-1
 500 300 l 1,46,-1
 400 300 l 1,47,-1
 400 400 l 1,44,-1
100 300 m 1,48,-1
 200 300 l 1,49,-1
 200 200 l 1,50,-1
 100 200 l 1,51,-1
 100 300 l 1,48,-1
200 300 m 1,52,-1
 300 300 l 1,53,-1
 300 200 l 1,54,-1
 200 200 l 1,55,-1
 200 300 l 1,52,-1
300 300 m 1,56,-1
 400 300 l 1,57,-1
 400 200 l 1,58,-1
 300 200 l 1,59,-1
 300 300 l 1,56,-1
400 300 m 1,60,-1
 500 300 l 1,61,-1
 500 200 l 1,62,-1
 400 200 l 1,63,-1
 400 300 l 1,60,-1
300 200 m 1,64,-1
 400 200 l 1,65,-1
 400 100 l 1,66,-1
 300 100 l 1,67,-1
 300 200 l 1,64,-1
400 200 m 1,68,-1
 500 200 l 1,69,-1
 500 100 l 1,70,-1
 400 100 l 1,71,-1
 400 200 l 1,68,-1
300 100 m 1,72,-1
 400 100 l 1,73,-1
 400 0 l 1,74,-1
 300 0 l 1,75,-1
 300 100 l 1,72,-1
400 100 m 1,76,-1
 500 100 l 1,77,-1
 500 0 l 1,78,-1
 400 0 l 1,79,-1
 400 100 l 1,76,-1
EndSplineSet
Validated: 5
EndChar

StartChar: colon
Encoding: 58 58 28
Width: 600
GlyphClass: 1
Flags: W
LayerCount: 2
Fore
SplineSet
0 500 m 1,0,-1
 100 500 l 1,1,-1
 100 400 l 1,2,-1
 0 400 l 1,3,-1
 0 500 l 1,0,-1
100 500 m 1,4,-1
 200 500 l 1,5,-1
 200 400 l 1,6,-1
 100 400 l 1,7,-1
 100 500 l 1,4,-1
0 400 m 1,8,-1
 100 400 l 1,9,-1
 100 300 l 1,10,-1
 0 300 l 1,11,-1
 0 400 l 1,8,-1
100 400 m 1,12,-1
 200 400 l 1,13,-1
 200 300 l 1,14,-1
 100 300 l 1,15,-1
 100 400 l 1,12,-1
0 200 m 1,16,-1
 100 200 l 1,17,-1
 100 100 l 1,18,-1
 0 100 l 1,19,-1
 0 200 l 1,16,-1
100 200 m 1,20,-1
 200 200 l 1,21,-1
 200 100 l 1,22,-1
 100 100 l 1,23,-1
 100 200 l 1,20,-1
0 100 m 1,24,-1
 100 100 l 1,25,-1
 100 0 l 1,26,-1
 0 0 l 1,27,-1
 0 100 l 1,24,-1
100 100 m 1,28,-1
 200 100 l 1,29,-1
 200 0 l 1,30,-1
 100 0 l 1,31,-1
 100 100 l 1,28,-1
EndSplineSet
Validated: 5
EndChar

StartChar: semicolon
Encoding: 59 59 29
Width: 600
GlyphClass: 1
Flags: W
LayerCount: 2
Fore
SplineSet
0 500 m 1,0,-1
 100 500 l 1,1,-1
 100 400 l 1,2,-1
 0 400 l 1,3,-1
 0 500 l 1,0,-1
100 500 m 1,4,-1
 200 500 l 1,5,-1
 200 400 l 1,6,-1
 100 400 l 1,7,-1
 100 500 l 1,4,-1
0 400 m 1,8,-1
 100 400 l 1,9,-1
 100 300 l 1,10,-1
 0 300 l 1,11,-1
 0 400 l 1,8,-1
100 400 m 1,12,-1
 200 400 l 1,13,-1
 200 300 l 1,14,-1
 100 300 l 1,15,-1
 100 400 l 1,12,-1
0 200 m 1,16,-1
 100 200 l 1,17,-1
 100 100 l 1,18,-1
 0 100 l 1,19,-1
 0 200 l 1,16,-1
100 200 m 1,20,-1
 200 200 l 1,21,-1
 200 100 l 1,22,-1
 100 100 l 1,23,-1
 100 200 l 1,20,-1
100 100 m 1,24,-1
 200 100 l 1,25,-1
 200 0 l 1,26,-1
 100 0 l 1,27,-1
 100 100 l 1,24,-1
0 0 m 1,28,-1
 100 0 l 1,29,-1
 100 -100 l 1,30,-1
 0 -100 l 1,31,-1
 0 0 l 1,28,-1
EndSplineSet
Validated: 5
EndChar

StartChar: less
Encoding: 60 60 30
Width: 600
GlyphClass: 1
Flags: W
LayerCount: 2
Fore
SplineSet
200 500 m 1,0,-1
 300 500 l 1,1,-1
 300 400 l 1,2,-1
 200 400 l 1,3,-1
 200 500 l 1,0,-1
300 500 m 1,4,-1
 400 500 l 1,5,-1
 400 400 l 1,6,-1
 300 400 l 1,7,-1
 300 500 l 1,4,-1
100 400 m 1,8,-1
 200 400 l 1,9,-1
 200 300 l 1,10,-1
 100 300 l 1,11,-1
 100 400 l 1,8,-1
200 400 m 1,12,-1
 300 400 l 1,13,-1
 300 300 l 1,14,-1
 200 300 l 1,15,-1
 200 400 l 1,12,-1
0 300 m 1,16,-1
 100 300 l 1,17,-1
 100 200 l 1,18,-1
 0 200 l 1,19,-1
 0 300 l 1,16,-1
100 300 m 1,20,-1
 200 300 l 1,21,-1
 200 200 l 1,22,-1
 100 200 l 1,23,-1
 100 300 l 1,20,-1
100 200 m 1,24,-1
 200 200 l 1,25,-1
 200 100 l 1,26,-1
 100 100 l 1,27,-1
 100 200 l 1,24,-1
200 200 m 1,28,-1
 300 200 l 1,29,-1
 300 100 l 1,30,-1
 200 100 l 1,31,-1
 200 200 l 1,28,-1
200 100 m 1,32,-1
 300 100 l 1,33,-1
 300 0 l 1,34,-1
 200 0 l 1,35,-1
 200 100 l 1,32,-1
300 100 m 1,36,-1
 400 100 l 1,37,-1
 400 0 l 1,38,-1
 300 0 l 1,39,-1
 300 100 l 1,36,-1
EndSplineSet
Validated: 5
EndChar

StartChar: equal
Encoding: 61 61 31
Width: 600
GlyphClass: 1
Flags: W
LayerCount: 2
Fore
SplineSet
0 400 m 1,0,-1
 100 400 l 1,1,-1
 100 300 l 1,2,-1
 0 300 l 1,3,-1
 0 400 l 1,0,-1
100 400 m 1,4,-1
 200 400 l 1,5,-1
 200 300 l 1,6,-1
 100 300 l 1,7,-1
 100 400 l 1,4,-1
200 400 m 1,8,-1
 300 400 l 1,9,-1
 300 300 l 1,10,-1
 200 300 l 1,11,-1
 200 400 l 1,8,-1
300 400 m 1,12,-1
 400 400 l 1,13,-1
 400 300 l 1,14,-1
 300 300 l 1,15,-1
 300 400 l 1,12,-1
400 400 m 1,16,-1
 500 400 l 1,17,-1
 500 300 l 1,18,-1
 400 300 l 1,19,-1
 400 400 l 1,16,-1
0 200 m 1,20,-1
 100 200 l 1,21,-1
 100 100 l 1,22,-1
 0 100 l 1,23,-1
 0 200 l 1,20,-1
100 200 m 1,24,-1
 200 200 l 1,25,-1
 200 100 l 1,26,-1
 100 100 l 1,27,-1
 100 200 l 1,24,-1
200 200 m 1,28,-1
 300 200 l 1,29,-1
 300 100 l 1,30,-1
 200 100 l 1,31,-1
 200 200 l 1,28,-1
300 200 m 1,32,-1
 400 200 l 1,33,-1
 400 100 l 1,34,-1
 300 100 l 1,35,-1
 300 200 l 1,32,-1
400 200 m 1,36,-1
 500 200 l 1,37,-1
 500 100 l 1,38,-1
 400 100 l 1,39,-1
 400 200 l 1,36,-1
EndSplineSet
Validated: 5
EndChar

StartChar: greater
Encoding: 62 62 32
Width: 600
GlyphClass: 1
Flags: W
LayerCount: 2
Fore
SplineSet
100 500 m 1,0,-1
 200 500 l 1,1,-1
 200 400 l 1,2,-1
 100 400 l 1,3,-1
 100 500 l 1,0,-1
200 500 m 1,4,-1
 300 500 l 1,5,-1
 300 400 l 1,6,-1
 200 400 l 1,7,-1
 200 500 l 1,4,-1
200 400 m 1,8,-1
 300 400 l 1,9,-1
 300 300 l 1,10,-1
 200 300 l 1,11,-1
 200 400 l 1,8,-1
300 400 m 1,12,-1
 400 400 l 1,13,-1
 400 300 l 1,14,-1
 300 300 l 1,15,-1
 300 400 l 1,12,-1
300 300 m 1,16,-1
 400 300 l 1,17,-1
 400 200 l 1,18,-1
 300 200 l 1,19,-1
 300 300 l 1,16,-1
400 300 m 1,20,-1
 500 300 l 1,21,-1
 500 200 l 1,22,-1
 400 200 l 1,23,-1
 400 300 l 1,20,-1
200 200 m 1,24,-1
 300 200 l 1,25,-1
 300 100 l 1,26,-1
 200 100 l 1,27,-1
 200 200 l 1,24,-1
300 200 m 1,28,-1
 400 200 l 1,29,-1
 400 100 l 1,30,-1
 300 100 l 1,31,-1
 300 200 l 1,28,-1
100 100 m 1,32,-1
 200 100 l 1,33,-1
 200 0 l 1,34,-1
 100 0 l 1,35,-1
 100 100 l 1,32,-1
200 100 m 1,36,-1
 300 100 l 1,37,-1
 300 0 l 1,38,-1
 200 0 l 1,39,-1
 200 100 l 1,36,-1
EndSplineSet
Validated: 5
EndChar

StartChar: question
Encoding: 63 63 33
Width: 600
GlyphClass: 1
Flags: W
LayerCount: 2
Fore
SplineSet
100 700 m 1,0,-1
 200 700 l 1,1,-1
 200 600 l 1,2,-1
 100 600 l 1,3,-1
 100 700 l 1,0,-1
200 700 m 1,4,-1
 300 700 l 1,5,-1
 300 600 l 1,6,-1
 200 600 l 1,7,-1
 200 700 l 1,4,-1
300 700 m 1,8,-1
 400 700 l 1,9,-1
 400 600 l 1,10,-1
 300 600 l 1,11,-1
 300 700 l 1,8,-1
0 600 m 1,12,-1
 100 600 l 1,13,-1
 100 500 l 1,14,-1
 0 500 l 1,15,-1
 0 600 l 1,12,-1
300 600 m 1,16,-1
 400 600 l 1,17,-1
 400 500 l 1,18,-1
 300 500 l 1,19,-1
 300 600 l 1,16,-1
400 600 m 1,20,-1
 500 600 l 1,21,-1
 500 500 l 1,22,-1
 400 500 l 1,23,-1
 400 600 l 1,20,-1
300 500 m 1,24,-1
 400 500 l 1,25,-1
 400 400 l 1,26,-1
 300 400 l 1,27,-1
 300 500 l 1,24,-1
400 500 m 1,28,-1
 500 500 l 1,29,-1
 500 400 l 1,30,-1
 400 400 l 1,31,-1
 400 500 l 1,28,-1
200 400 m 1,32,-1
 300 400 l 1,33,-1
 300 300 l 1,34,-1
 200 300 l 1,35,-1
 200 400 l 1,32,-1
300 400 m 1,36,-1
 400 400 l 1,37,-1
 400 300 l 1,38,-1
 300 300 l 1,39,-1
 300 400 l 1,36,-1
200 300 m 1,40,-1
 300 300 l 1,41,-1
 300 200 l 1,42,-1
 200 200 l 1,43,-1
 200 300 l 1,40,-1
300 300 m 1,44,-1
 400 300 l 1,45,-1
 400 200 l 1,46,-1
 300 200 l 1,47,-1
 300 300 l 1,44,-1
200 100 m 1,48,-1
 300 100 l 1,49,-1
 300 0 l 1,50,-1
 200 0 l 1,51,-1
 200 100 l 1,48,-1
300 100 m 1,52,-1
 400 100 l 1,53,-1
 400 0 l 1,54,-1
 300 0 l 1,55,-1
 300 100 l 1,52,-1
EndSplineSet
Validated: 5
EndChar

StartChar: at
Encoding: 64 64 34
Width: 600
GlyphClass: 1
Flags: W
LayerCount: 2
Fore
SplineSet
100 700 m 1,0,-1
 200 700 l 1,1,-1
 200 600 l 1,2,-1
 100 600 l 1,3,-1
 100 700 l 1,0,-1
200 700 m 1,4,-1
 300 700 l 1,5,-1
 300 600 l 1,6,-1
 200 600 l 1,7,-1
 200 700 l 1,4,-1
300 700 m 1,8,-1
 400 700 l 1,9,-1
 400 600 l 1,10,-1
 300 600 l 1,11,-1
 300 700 l 1,8,-1
0 600 m 1,12,-1
 100 600 l 1,13,-1
 100 500 l 1,14,-1
 0 500 l 1,15,-1
 0 600 l 1,12,-1
100 600 m 1,16,-1
 200 600 l 1,17,-1
 200 500 l 1,18,-1
 100 500 l 1,19,-1
 100 600 l 1,16,-1
400 600 m 1,20,-1
 500 600 l 1,21,-1
 500 500 l 1,22,-1
 400 500 l 1,23,-1
 400 600 l 1,20,-1
0 500 m 1,24,-1
 100 500 l 1,25,-1
 100 400 l 1,26,-1
 0 400 l 1,27,-1
 0 500 l 1,24,-1
100 500 m 1,28,-1
 200 500 l 1,29,-1
 200 400 l 1,30,-1
 100 400 l 1,31,-1
 100 500 l 1,28,-1
400 500 m 1,32,-1
 500 500 l 1,33,-1
 500 400 l 1,34,-1
 400 400 l 1,35,-1
 400 500 l 1,32,-1
0 400 m 1,36,-1
 100 400 l 1,37,-1
 100 300 l 1,38,-1
 0 300 l 1,39,-1
 0 400 l 1,36,-1
100 400 m 1,40,-1
 200 400 l 1,41,-1
 200 300 l 1,42,-1
 100 300 l 1,43,-1
 100 400 l 1,40,-1
300 400 m 1,44,-1
 400 400 l 1,45,-1
 400 300 l 1,46,-1
 300 300 l 1,47,-1
 300 400 l 1,44,-1
400 400 m 1,48,-1
 500 400 l 1,49,-1
 500 300 l 1,50,-1
 400 300 l 1,51,-1
 400 400 l 1,48,-1
0 300 m 1,52,-1
 100 300 l 1,53,-1
 100 200 l 1,54,-1
 0 200 l 1,55,-1
 0 300 l 1,52,-1
100 300 m 1,56,-1
 200 300 l 1,57,-1
 200 200 l 1,58,-1
 100 200 l 1,59,-1
 100 300 l 1,56,-1
200 300 m 1,60,-1
 300 300 l 1,61,-1
 300 200 l 1,62,-1
 200 200 l 1,63,-1
 200 300 l 1,60,-1
400 300 m 1,64,-1
 500 300 l 1,65,-1
 500 200 l 1,66,-1
 400 200 l 1,67,-1
 400 300 l 1,64,-1
0 200 m 1,68,-1
 100 200 l 1,69,-1
 100 100 l 1,70,-1
 0 100 l 1,71,-1
 0 200 l 1,68,-1
100 200 m 1,72,-1
 200 200 l 1,73,-1
 200 100 l 1,74,-1
 100 100 l 1,75,-1
 100 200 l 1,72,-1
200 200 m 1,76,-1
 300 200 l 1,77,-1
 300 100 l 1,78,-1
 200 100 l 1,79,-1
 200 200 l 1,76,-1
400 200 m 1,80,-1
 500 200 l 1,81,-1
 500 100 l 1,82,-1
 400 100 l 1,83,-1
 400 200 l 1,80,-1
0 100 m 1,84,-1
 100 100 l 1,85,-1
 100 0 l 1,86,-1
 0 0 l 1,87,-1
 0 100 l 1,84,-1
100 100 m 1,88,-1
 200 100 l 1,89,-1
 200 0 l 1,90,-1
 100 0 l 1,91,-1
 100 100 l 1,88,-1
200 100 m 1,92,-1
 300 100 l 1,93,-1
 300 0 l 1,94,-1
 200 0 l 1,95,-1
 200 100 l 1,92,-1
300 100 m 1,96,-1
 400 100 l 1,97,-1
 400 0 l 1,98,-1
 300 0 l 1,99,-1
 300 100 l 1,96,-1
0 0 m 1,100,-1
 100 0 l 1,101,-1
 100 -100 l 1,102,-1
 0 -100 l 1,103,-1
 0 0 l 1,100,-1
100 0 m 1,104,-1
 200 0 l 1,105,-1
 200 -100 l 1,106,-1
 100 -100 l 1,107,-1
 100 0 l 1,104,-1
100 -100 m 1,108,-1
 200 -100 l 1,109,-1
 200 -200 l 1,110,-1
 100 -200 l 1,111,-1
 100 -100 l 1,108,-1
200 -100 m 1,112,-1
 300 -100 l 1,113,-1
 300 -200 l 1,114,-1
 200 -200 l 1,115,-1
 200 -100 l 1,112,-1
300 -100 m 1,116,-1
 400 -100 l 1,117,-1
 400 -200 l 1,118,-1
 300 -200 l 1,119,-1
 300 -100 l 1,116,-1
EndSplineSet
Validated: 5
EndChar

StartChar: A
Encoding: 65 65 35
Width: 600
GlyphClass: 1
Flags: W
LayerCount: 2
Fore
SplineSet
100 700 m 1,0,-1
 200 700 l 1,1,-1
 200 600 l 1,2,-1
 100 600 l 1,3,-1
 100 700 l 1,0,-1
200 700 m 1,4,-1
 300 700 l 1,5,-1
 300 600 l 1,6,-1
 200 600 l 1,7,-1
 200 700 l 1,4,-1
300 700 m 1,8,-1
 400 700 l 1,9,-1
 400 600 l 1,10,-1
 300 600 l 1,11,-1
 300 700 l 1,8,-1
0 600 m 1,12,-1
 100 600 l 1,13,-1
 100 500 l 1,14,-1
 0 500 l 1,15,-1
 0 600 l 1,12,-1
100 600 m 1,16,-1
 200 600 l 1,17,-1
 200 500 l 1,18,-1
 100 500 l 1,19,-1
 100 600 l 1,16,-1
400 600 m 1,20,-1
 500 600 l 1,21,-1
 500 500 l 1,22,-1
 400 500 l 1,23,-1
 400 600 l 1,20,-1
0 500 m 1,24,-1
 100 500 l 1,25,-1
 100 400 l 1,26,-1
 0 400 l 1,27,-1
 0 500 l 1,24,-1
100 500 m 1,28,-1
 200 500 l 1,29,-1
 200 400 l 1,30,-1
 100 400 l 1,31,-1
 100 500 l 1,28,-1
400 500 m 1,32,-1
 500 500 l 1,33,-1
 500 400 l 1,34,-1
 400 400 l 1,35,-1
 400 500 l 1,32,-1
0 400 m 1,36,-1
 100 400 l 1,37,-1
 100 300 l 1,38,-1
 0 300 l 1,39,-1
 0 400 l 1,36,-1
100 400 m 1,40,-1
 200 400 l 1,41,-1
 200 300 l 1,42,-1
 100 300 l 1,43,-1
 100 400 l 1,40,-1
400 400 m 1,44,-1
 500 400 l 1,45,-1
 500 300 l 1,46,-1
 400 300 l 1,47,-1
 400 400 l 1,44,-1
0 300 m 1,48,-1
 100 300 l 1,49,-1
 100 200 l 1,50,-1
 0 200 l 1,51,-1
 0 300 l 1,48,-1
100 300 m 1,52,-1
 200 300 l 1,53,-1
 200 200 l 1,54,-1
 100 200 l 1,55,-1
 100 300 l 1,52,-1
200 300 m 1,56,-1
 300 300 l 1,57,-1
 300 200 l 1,58,-1
 200 200 l 1,59,-1
 200 300 l 1,56,-1
300 300 m 1,60,-1
 400 300 l 1,61,-1
 400 200 l 1,62,-1
 300 200 l 1,63,-1
 300 300 l 1,60,-1
400 300 m 1,64,-1
 500 300 l 1,65,-1
 500 200 l 1,66,-1
 400 200 l 1,67,-1
 400 300 l 1,64,-1
0 200 m 1,68,-1
 100 200 l 1,69,-1
 100 100 l 1,70,-1
 0 100 l 1,71,-1
 0 200 l 1,68,-1
100 200 m 1,72,-1
 200 200 l 1,73,-1
 200 100 l 1,74,-1
 100 100 l 1,75,-1
 100 200 l 1,72,-1
400 200 m 1,76,-1
 500 200 l 1,77,-1
 500 100 l 1,78,-1
 400 100 l 1,79,-1
 400 200 l 1,76,-1
0 100 m 1,80,-1
 100 100 l 1,81,-1
 100 0 l 1,82,-1
 0 0 l 1,83,-1
 0 100 l 1,80,-1
100 100 m 1,84,-1
 200 100 l 1,85,-1
 200 0 l 1,86,-1
 100 0 l 1,87,-1
 100 100 l 1,84,-1
400 100 m 1,88,-1
 500 100 l 1,89,-1
 500 0 l 1,90,-1
 400 0 l 1,91,-1
 400 100 l 1,88,-1
EndSplineSet
Validated: 5
EndChar

StartChar: B
Encoding: 66 66 36
Width: 600
GlyphClass: 1
Flags: W
LayerCount: 2
Fore
SplineSet
0 700 m 1,0,-1
 100 700 l 1,1,-1
 100 600 l 1,2,-1
 0 600 l 1,3,-1
 0 700 l 1,0,-1
100 700 m 1,4,-1
 200 700 l 1,5,-1
 200 600 l 1,6,-1
 100 600 l 1,7,-1
 100 700 l 1,4,-1
200 700 m 1,8,-1
 300 700 l 1,9,-1
 300 600 l 1,10,-1
 200 600 l 1,11,-1
 200 700 l 1,8,-1
300 700 m 1,12,-1
 400 700 l 1,13,-1
 400 600 l 1,14,-1
 300 600 l 1,15,-1
 300 700 l 1,12,-1
0 600 m 1,16,-1
 100 600 l 1,17,-1
 100 500 l 1,18,-1
 0 500 l 1,19,-1
 0 600 l 1,16,-1
100 600 m 1,20,-1
 200 600 l 1,21,-1
 200 500 l 1,22,-1
 100 500 l 1,23,-1
 100 600 l 1,20,-1
400 600 m 1,24,-1
 500 600 l 1,25,-1
 500 500 l 1,26,-1
 400 500 l 1,27,-1
 400 600 l 1,24,-1
0 500 m 1,28,-1
 100 500 l 1,29,-1
 100 400 l 1,30,-1
 0 400 l 1,31,-1
 0 500 l 1,28,-1
100 500 m 1,32,-1
 200 500 l 1,33,-1
 200 400 l 1,34,-1
 100 400 l 1,35,-1
 100 500 l 1,32,-1
400 500 m 1,36,-1
 500 500 l 1,37,-1
 500 400 l 1,38,-1
 400 400 l 1,39,-1
 400 500 l 1,36,-1
0 400 m 1,40,-1
 100 400 l 1,41,-1
 100 300 l 1,42,-1
 0 300 l 1,43,-1
 0 400 l 1,40,-1
100 400 m 1,44,-1
 200 400 l 1,45,-1
 200 300 l 1,46,-1
 100 300 l 1,47,-1
 100 400 l 1,44,-1
400 400 m 1,48,-1
 500 400 l 1,49,-1
 500 300 l 1,50,-1
 400 300 l 1,51,-1
 400 400 l 1,48,-1
0 300 m 1,52,-1
 100 300 l 1,53,-1
 100 200 l 1,54,-1
 0 200 l 1,55,-1
 0 300 l 1,52,-1
100 300 m 1,56,-1
 200 300 l 1,57,-1
 200 200 l 1,58,-1
 100 200 l 1,59,-1
 100 300 l 1,56,-1
200 300 m 1,60,-1
 300 300 l 1,61,-1
 300 200 l 1,62,-1
 200 200 l 1,63,-1
 200 300 l 1,60,-1
300 300 m 1,64,-1
 400 300 l 1,65,-1
 400 200 l 1,66,-1
 300 200 l 1,67,-1
 300 300 l 1,64,-1
0 200 m 1,68,-1
 100 200 l 1,69,-1
 100 100 l 1,70,-1
 0 100 l 1,71,-1
 0 200 l 1,68,-1
100 200 m 1,72,-1
 200 200 l 1,73,-1
 200 100 l 1,74,-1
 100 100 l 1,75,-1
 100 200 l 1,72,-1
400 200 m 1,76,-1
 500 200 l 1,77,-1
 500 100 l 1,78,-1
 400 100 l 1,79,-1
 400 200 l 1,76,-1
0 100 m 1,80,-1
 100 100 l 1,81,-1
 100 0 l 1,82,-1
 0 0 l 1,83,-1
 0 100 l 1,80,-1
100 100 m 1,84,-1
 200 100 l 1,85,-1
 200 0 l 1,86,-1
 100 0 l 1,87,-1
 100 100 l 1,84,-1
200 100 m 1,88,-1
 300 100 l 1,89,-1
 300 0 l 1,90,-1
 200 0 l 1,91,-1
 200 100 l 1,88,-1
300 100 m 1,92,-1
 400 100 l 1,93,-1
 400 0 l 1,94,-1
 300 0 l 1,95,-1
 300 100 l 1,92,-1
EndSplineSet
Validated: 5
EndChar

StartChar: C
Encoding: 67 67 37
Width: 600
GlyphClass: 1
Flags: W
LayerCount: 2
Fore
SplineSet
100 700 m 1,0,-1
 200 700 l 1,1,-1
 200 600 l 1,2,-1
 100 600 l 1,3,-1
 100 700 l 1,0,-1
200 700 m 1,4,-1
 300 700 l 1,5,-1
 300 600 l 1,6,-1
 200 600 l 1,7,-1
 200 700 l 1,4,-1
300 700 m 1,8,-1
 400 700 l 1,9,-1
 400 600 l 1,10,-1
 300 600 l 1,11,-1
 300 700 l 1,8,-1
0 600 m 1,12,-1
 100 600 l 1,13,-1
 100 500 l 1,14,-1
 0 500 l 1,15,-1
 0 600 l 1,12,-1
100 600 m 1,16,-1
 200 600 l 1,17,-1
 200 500 l 1,18,-1
 100 500 l 1,19,-1
 100 600 l 1,16,-1
400 600 m 1,20,-1
 500 600 l 1,21,-1
 500 500 l 1,22,-1
 400 500 l 1,23,-1
 400 600 l 1,20,-1
0 500 m 1,24,-1
 100 500 l 1,25,-1
 100 400 l 1,26,-1
 0 400 l 1,27,-1
 0 500 l 1,24,-1
100 500 m 1,28,-1
 200 500 l 1,29,-1
 200 400 l 1,30,-1
 100 400 l 1,31,-1
 100 500 l 1,28,-1
0 400 m 1,32,-1
 100 400 l 1,33,-1
 100 300 l 1,34,-1
 0 300 l 1,35,-1
 0 400 l 1,32,-1
100 400 m 1,36,-1
 200 400 l 1,37,-1
 200 300 l 1,38,-1
 100 300 l 1,39,-1
 100 400 l 1,36,-1
0 300 m 1,40,-1
 100 300 l 1,41,-1
 100 200 l 1,42,-1
 0 200 l 1,43,-1
 0 300 l 1,40,-1
100 300 m 1,44,-1
 200 300 l 1,45,-1
 200 200 l 1,46,-1
 100 200 l 1,47,-1
 100 300 l 1,44,-1
0 200 m 1,48,-1
 100 200 l 1,49,-1
 100 100 l 1,50,-1
 0 100 l 1,51,-1
 0 200 l 1,48,-1
100 200 m 1,52,-1
 200 200 l 1,53,-1
 200 100 l 1,54,-1
 100 100 l 1,55,-1
 100 200 l 1,52,-1
400 200 m 1,56,-1
 500 200 l 1,57,-1
 500 100 l 1,58,-1
 400 100 l 1,59,-1
 400 200 l 1,56,-1
100 100 m 1,60,-1
 200 100 l 1,61,-1
 200 0 l 1,62,-1
 100 0 l 1,63,-1
 100 100 l 1,60,-1
200 100 m 1,64,-1
 300 100 l 1,65,-1
 300 0 l 1,66,-1
 200 0 l 1,67,-1
 200 100 l 1,64,-1
300 100 m 1,68,-1
 400 100 l 1,69,-1
 400 0 l 1,70,-1
 300 0 l 1,71,-1
 300 100 l 1,68,-1
EndSplineSet
Validated: 5
EndChar

StartChar: D
Encoding: 68 68 38
Width: 600
GlyphClass: 1
Flags: W
LayerCount: 2
Fore
SplineSet
0 700 m 1,0,-1
 100 700 l 1,1,-1
 100 600 l 1,2,-1
 0 600 l 1,3,-1
 0 700 l 1,0,-1
100 700 m 1,4,-1
 200 700 l 1,5,-1
 200 600 l 1,6,-1
 100 600 l 1,7,-1
 100 700 l 1,4,-1
200 700 m 1,8,-1
 300 700 l 1,9,-1
 300 600 l 1,10,-1
 200 600 l 1,11,-1
 200 700 l 1,8,-1
0 600 m 1,12,-1
 100 600 l 1,13,-1
 100 500 l 1,14,-1
 0 500 l 1,15,-1
 0 600 l 1,12,-1
100 600 m 1,16,-1
 200 600 l 1,17,-1
 200 500 l 1,18,-1
 100 500 l 1,19,-1
 100 600 l 1,16,-1
300 600 m 1,20,-1
 400 600 l 1,21,-1
 400 500 l 1,22,-1
 300 500 l 1,23,-1
 300 600 l 1,20,-1
0 500 m 1,24,-1
 100 500 l 1,25,-1
 100 400 l 1,26,-1
 0 400 l 1,27,-1
 0 500 l 1,24,-1
100 500 m 1,28,-1
 200 500 l 1,29,-1
 200 400 l 1,30,-1
 100 400 l 1,31,-1
 100 500 l 1,28,-1
400 500 m 1,32,-1
 500 500 l 1,33,-1
 500 400 l 1,34,-1
 400 400 l 1,35,-1
 400 500 l 1,32,-1
0 400 m 1,36,-1
 100 400 l 1,37,-1
 100 300 l 1,38,-1
 0 300 l 1,39,-1
 0 400 l 1,36,-1
100 400 m 1,40,-1
 200 400 l 1,41,-1
 200 300 l 1,42,-1
 100 300 l 1,43,-1
 100 400 l 1,40,-1
400 400 m 1,44,-1
 500 400 l 1,45,-1
 500 300 l 1,46,-1
 400 300 l 1,47,-1
 400 400 l 1,44,-1
0 300 m 1,48,-1
 100 300 l 1,49,-1
 100 200 l 1,50,-1
 0 200 l 1,51,-1
 0 300 l 1,48,-1
100 300 m 1,52,-1
 200 300 l 1,53,-1
 200 200 l 1,54,-1
 100 200 l 1,55,-1
 100 300 l 1,52,-1
400 300 m 1,56,-1
 500 300 l 1,57,-1
 500 200 l 1,58,-1
 400 200 l 1,59,-1
 400 300 l 1,56,-1
0 200 m 1,60,-1
 100 200 l 1,61,-1
 100 100 l 1,62,-1
 0 100 l 1,63,-1
 0 200 l 1,60,-1
100 200 m 1,64,-1
 200 200 l 1,65,-1
 200 100 l 1,66,-1
 100 100 l 1,67,-1
 100 200 l 1,64,-1
400 200 m 1,68,-1
 500 200 l 1,69,-1
 500 100 l 1,70,-1
 400 100 l 1,71,-1
 400 200 l 1,68,-1
0 100 m 1,72,-1
 100 100 l 1,73,-1
 100 0 l 1,74,-1
 0 0 l 1,75,-1
 0 100 l 1,72,-1
100 100 m 1,76,-1
 200 100 l 1,77,-1
 200 0 l 1,78,-1
 100 0 l 1,79,-1
 100 100 l 1,76,-1
200 100 m 1,80,-1
 300 100 l 1,81,-1
 300 0 l 1,82,-1
 200 0 l 1,83,-1
 200 100 l 1,80,-1
300 100 m 1,84,-1
 400 100 l 1,85,-1
 400 0 l 1,86,-1
 300 0 l 1,87,-1
 300 100 l 1,84,-1
EndSplineSet
Validated: 5
EndChar

StartChar: E
Encoding: 69 69 39
Width: 600
GlyphClass: 1
Flags: W
LayerCount: 2
Fore
SplineSet
0 700 m 1,0,-1
 100 700 l 1,1,-1
 100 600 l 1,2,-1
 0 600 l 1,3,-1
 0 700 l 1,0,-1
100 700 m 1,4,-1
 200 700 l 1,5,-1
 200 600 l 1,6,-1
 100 600 l 1,7,-1
 100 700 l 1,4,-1
200 700 m 1,8,-1
 300 700 l 1,9,-1
 300 600 l 1,10,-1
 200 600 l 1,11,-1
 200 700 l 1,8,-1
300 700 m 1,12,-1
 400 700 l 1,13,-1
 400 600 l 1,14,-1
 300 600 l 1,15,-1
 300 700 l 1,12,-1
400 700 m 1,16,-1
 500 700 l 1,17,-1
 500 600 l 1,18,-1
 400 600 l 1,19,-1
 400 700 l 1,16,-1
0 600 m 1,20,-1
 100 600 l 1,21,-1
 100 500 l 1,22,-1
 0 500 l 1,23,-1
 0 600 l 1,20,-1
100 600 m 1,24,-1
 200 600 l 1,25,-1
 200 500 l 1,26,-1
 100 500 l 1,27,-1
 100 600 l 1,24,-1
0 500 m 1,28,-1
 100 500 l 1,29,-1
 100 400 l 1,30,-1
 0 400 l 1,31,-1
 0 500 l 1,28,-1
100 500 m 1,32,-1
 200 500 l 1,33,-1
 200 400 l 1,34,-1
 100 400 l 1,35,-1
 100 500 l 1,32,-1
0 400 m 1,36,-1
 100 400 l 1,37,-1
 100 300 l 1,38,-1
 0 300 l 1,39,-1
 0 400 l 1,36,-1
100 400 m 1,40,-1
 200 400 l 1,41,-1
 200 300 l 1,42,-1
 100 300 l 1,43,-1
 100 400 l 1,40,-1
0 300 m 1,44,-1
 100 300 l 1,45,-1
 100 200 l 1,46,-1
 0 200 l 1,47,-1
 0 300 l 1,44,-1
100 300 m 1,48,-1
 200 300 l 1,49,-1
 200 200 l 1,50,-1
 100 200 l 1,51,-1
 100 300 l 1,48,-1
200 300 m 1,52,-1
 300 300 l 1,53,-1
 300 200 l 1,54,-1
 200 200 l 1,55,-1
 200 300 l 1,52,-1
300 300 m 1,56,-1
 400 300 l 1,57,-1
 400 200 l 1,58,-1
 300 200 l 1,59,-1
 300 300 l 1,56,-1
0 200 m 1,60,-1
 100 200 l 1,61,-1
 100 100 l 1,62,-1
 0 100 l 1,63,-1
 0 200 l 1,60,-1
100 200 m 1,64,-1
 200 200 l 1,65,-1
 200 100 l 1,66,-1
 100 100 l 1,67,-1
 100 200 l 1,64,-1
0 100 m 1,68,-1
 100 100 l 1,69,-1
 100 0 l 1,70,-1
 0 0 l 1,71,-1
 0 100 l 1,68,-1
100 100 m 1,72,-1
 200 100 l 1,73,-1
 200 0 l 1,74,-1
 100 0 l 1,75,-1
 100 100 l 1,72,-1
200 100 m 1,76,-1
 300 100 l 1,77,-1
 300 0 l 1,78,-1
 200 0 l 1,79,-1
 200 100 l 1,76,-1
300 100 m 1,80,-1
 400 100 l 1,81,-1
 400 0 l 1,82,-1
 300 0 l 1,83,-1
 300 100 l 1,80,-1
400 100 m 1,84,-1
 500 100 l 1,85,-1
 500 0 l 1,86,-1
 400 0 l 1,87,-1
 400 100 l 1,84,-1
EndSplineSet
Validated: 5
EndChar

StartChar: F
Encoding: 70 70 40
Width: 600
GlyphClass: 1
Flags: W
LayerCount: 2
Fore
SplineSet
0 700 m 1,0,-1
 100 700 l 1,1,-1
 100 600 l 1,2,-1
 0 600 l 1,3,-1
 0 700 l 1,0,-1
100 700 m 1,4,-1
 200 700 l 1,5,-1
 200 600 l 1,6,-1
 100 600 l 1,7,-1
 100 700 l 1,4,-1
200 700 m 1,8,-1
 300 700 l 1,9,-1
 300 600 l 1,10,-1
 200 600 l 1,11,-1
 200 700 l 1,8,-1
300 700 m 1,12,-1
 400 700 l 1,13,-1
 400 600 l 1,14,-1
 300 600 l 1,15,-1
 300 700 l 1,12,-1
400 700 m 1,16,-1
 500 700 l 1,17,-1
 500 600 l 1,18,-1
 400 600 l 1,19,-1
 400 700 l 1,16,-1
0 600 m 1,20,-1
 100 600 l 1,21,-1
 100 500 l 1,22,-1
 0 500 l 1,23,-1
 0 600 l 1,20,-1
100 600 m 1,24,-1
 200 600 l 1,25,-1
 200 500 l 1,26,-1
 100 500 l 1,27,-1
 100 600 l 1,24,-1
0 500 m 1,28,-1
 100 500 l 1,29,-1
 100 400 l 1,30,-1
 0 400 l 1,31,-1
 0 500 l 1,28,-1
100 500 m 1,32,-1
 200 500 l 1,33,-1
 200 400 l 1,34,-1
 100 400 l 1,35,-1
 100 500 l 1,32,-1
0 400 m 1,36,-1
 100 400 l 1,37,-1
 100 300 l 1,38,-1
 0 300 l 1,39,-1
 0 400 l 1,36,-1
100 400 m 1,40,-1
 200 400 l 1,41,-1
 200 300 l 1,42,-1
 100 300 l 1,43,-1
 100 400 l 1,40,-1
0 300 m 1,44,-1
 100 300 l 1,45,-1
 100 200 l 1,46,-1
 0 200 l 1,47,-1
 0 300 l 1,44,-1
100 300 m 1,48,-1
 200 300 l 1,49,-1
 200 200 l 1,50,-1
 100 200 l 1,51,-1
 100 300 l 1,48,-1
200 300 m 1,52,-1
 300 300 l 1,53,-1
 300 200 l 1,54,-1
 200 200 l 1,55,-1
 200 300 l 1,52,-1
300 300 m 1,56,-1
 400 300 l 1,57,-1
 400 200 l 1,58,-1
 300 200 l 1,59,-1
 300 300 l 1,56,-1
0 200 m 1,60,-1
 100 200 l 1,61,-1
 100 100 l 1,62,-1
 0 100 l 1,63,-1
 0 200 l 1,60,-1
100 200 m 1,64,-1
 200 200 l 1,65,-1
 200 100 l 1,66,-1
 100 100 l 1,67,-1
 100 200 l 1,64,-1
0 100 m 1,68,-1
 100 100 l 1,69,-1
 100 0 l 1,70,-1
 0 0 l 1,71,-1
 0 100 l 1,68,-1
100 100 m 1,72,-1
 200 100 l 1,73,-1
 200 0 l 1,74,-1
 100 0 l 1,75,-1
 100 100 l 1,72,-1
EndSplineSet
Validated: 5
EndChar

StartChar: G
Encoding: 71 71 41
Width: 600
GlyphClass: 1
Flags: W
LayerCount: 2
Fore
SplineSet
100 700 m 1,0,-1
 200 700 l 1,1,-1
 200 600 l 1,2,-1
 100 600 l 1,3,-1
 100 700 l 1,0,-1
200 700 m 1,4,-1
 300 700 l 1,5,-1
 300 600 l 1,6,-1
 200 600 l 1,7,-1
 200 700 l 1,4,-1
300 700 m 1,8,-1
 400 700 l 1,9,-1
 400 600 l 1,10,-1
 300 600 l 1,11,-1
 300 700 l 1,8,-1
0 600 m 1,12,-1
 100 600 l 1,13,-1
 100 500 l 1,14,-1
 0 500 l 1,15,-1
 0 600 l 1,12,-1
100 600 m 1,16,-1
 200 600 l 1,17,-1
 200 500 l 1,18,-1
 100 500 l 1,19,-1
 100 600 l 1,16,-1
400 600 m 1,20,-1
 500 600 l 1,21,-1
 500 500 l 1,22,-1
 400 500 l 1,23,-1
 400 600 l 1,20,-1
0 500 m 1,24,-1
 100 500 l 1,25,-1
 100 400 l 1,26,-1
 0 400 l 1,27,-1
 0 500 l 1,24,-1
100 500 m 1,28,-1
 200 500 l 1,29,-1
 200 400 l 1,30,-1
 100 400 l 1,31,-1
 100 500 l 1,28,-1
0 400 m 1,32,-1
 100 400 l 1,33,-1
 100 300 l 1,34,-1
 0 300 l 1,35,-1
 0 400 l 1,32,-1
100 400 m 1,36,-1
 200 400 l 1,37,-1
 200 300 l 1,38,-1
 100 300 l 1,39,-1
 100 400 l 1,36,-1
0 300 m 1,40,-1
 100 300 l 1,41,-1
 100 200 l 1,42,-1
 0 200 l 1,43,-1
 0 300 l 1,40,-1
100 300 m 1,44,-1
 200 300 l 1,45,-1
 200 200 l 1,46,-1
 100 200 l 1,47,-1
 100 300 l 1,44,-1
300 300 m 1,48,-1
 400 300 l 1,49,-1
 400 200 l 1,50,-1
 300 200 l 1,51,-1
 300 300 l 1,48,-1
400 300 m 1,52,-1
 500 300 l 1,53,-1
 500 200 l 1,54,-1
 400 200 l 1,55,-1
 400 300 l 1,52,-1
0 200 m 1,56,-1
 100 200 l 1,57,-1
 100 100 l 1,58,-1
 0 100 l 1,59,-1
 0 200 l 1,56,-1
100 200 m 1,60,-1
 200 200 l 1,61,-1
 200 100 l 1,62,-1
 100 100 l 1,63,-1
 100 200 l 1,60,-1
400 200 m 1,64,-1
 500 200 l 1,65,-1
 500 100 l 1,66,-1
 400 100 l 1,67,-1
 400 200 l 1,64,-1
100 100 m 1,68,-1
 200 100 l 1,69,-1
 200 0 l 1,70,-1
 100 0 l 1,71,-1
 100 100 l 1,68,-1
200 100 m 1,72,-1
 300 100 l 1,73,-1
 300 0 l 1,74,-1
 200 0 l 1,75,-1
 200 100 l 1,72,-1
300 100 m 1,76,-1
 400 100 l 1,77,-1
 400 0 l 1,78,-1
 300 0 l 1,79,-1
 300 100 l 1,76,-1
EndSplineSet
Validated: 5
EndChar

StartChar: H
Encoding: 72 72 42
Width: 600
GlyphClass: 1
Flags: W
LayerCount: 2
Fore
SplineSet
0 700 m 1,0,-1
 100 700 l 1,1,-1
 100 600 l 1,2,-1
 0 600 l 1,3,-1
 0 700 l 1,0,-1
100 700 m 1,4,-1
 200 700 l 1,5,-1
 200 600 l 1,6,-1
 100 600 l 1,7,-1
 100 700 l 1,4,-1
400 700 m 1,8,-1
 500 700 l 1,9,-1
 500 600 l 1,10,-1
 400 600 l 1,11,-1
 400 700 l 1,8,-1
0 600 m 1,12,-1
 100 600 l 1,13,-1
 100 500 l 1,14,-1
 0 500 l 1,15,-1
 0 600 l 1,12,-1
100 600 m 1,16,-1
 200 600 l 1,17,-1
 200 500 l 1,18,-1
 100 500 l 1,19,-1
 100 600 l 1,16,-1
400 600 m 1,20,-1
 500 600 l 1,21,-1
 500 500 l 1,22,-1
 400 500 l 1,23,-1
 400 600 l 1,20,-1
0 500 m 1,24,-1
 100 500 l 1,25,-1
 100 400 l 1,26,-1
 0 400 l 1,27,-1
 0 500 l 1,24,-1
100 500 m 1,28,-1
 200 500 l 1,29,-1
 200 400 l 1,30,-1
 100 400 l 1,31,-1
 100 500 l 1,28,-1
400 500 m 1,32,-1
 500 500 l 1,33,-1
 500 400 l 1,34,-1
 400 400 l 1,35,-1
 400 500 l 1,32,-1
0 400 m 1,36,-1
 100 400 l 1,37,-1
 100 300 l 1,38,-1
 0 300 l 1,39,-1
 0 400 l 1,36,-1
100 400 m 1,40,-1
 200 400 l 1,41,-1
 200 300 l 1,42,-1
 100 300 l 1,43,-1
 100 400 l 1,40,-1
400 400 m 1,44,-1
 500 400 l 1,45,-1
 500 300 l 1,46,-1
 400 300 l 1,47,-1
 400 400 l 1,44,-1
0 300 m 1,48,-1
 100 300 l 1,49,-1
 100 200 l 1,50,-1
 0 200 l 1,51,-1
 0 300 l 1,48,-1
100 300 m 1,52,-1
 200 300 l 1,53,-1
 200 200 l 1,54,-1
 100 200 l 1,55,-1
 100 300 l 1,52,-1
200 300 m 1,56,-1
 300 300 l 1,57,-1
 300 200 l 1,58,-1
 200 200 l 1,59,-1
 200 300 l 1,56,-1
300 300 m 1,60,-1
 400 300 l 1,61,-1
 400 200 l 1,62,-1
 300 200 l 1,63,-1
 300 300 l 1,60,-1
400 300 m 1,64,-1
 500 300 l 1,65,-1
 500 200 l 1,66,-1
 400 200 l 1,67,-1
 400 300 l 1,64,-1
0 200 m 1,68,-1
 100 200 l 1,69,-1
 100 100 l 1,70,-1
 0 100 l 1,71,-1
 0 200 l 1,68,-1
100 200 m 1,72,-1
 200 200 l 1,73,-1
 200 100 l 1,74,-1
 100 100 l 1,75,-1
 100 200 l 1,72,-1
400 200 m 1,76,-1
 500 200 l 1,77,-1
 500 100 l 1,78,-1
 400 100 l 1,79,-1
 400 200 l 1,76,-1
0 100 m 1,80,-1
 100 100 l 1,81,-1
 100 0 l 1,82,-1
 0 0 l 1,83,-1
 0 100 l 1,80,-1
100 100 m 1,84,-1
 200 100 l 1,85,-1
 200 0 l 1,86,-1
 100 0 l 1,87,-1
 100 100 l 1,84,-1
400 100 m 1,88,-1
 500 100 l 1,89,-1
 500 0 l 1,90,-1
 400 0 l 1,91,-1
 400 100 l 1,88,-1
EndSplineSet
Validated: 5
EndChar

StartChar: I
Encoding: 73 73 43
Width: 600
GlyphClass: 1
Flags: W
LayerCount: 2
Fore
SplineSet
100 700 m 1,0,-1
 200 700 l 1,1,-1
 200 600 l 1,2,-1
 100 600 l 1,3,-1
 100 700 l 1,0,-1
200 700 m 1,4,-1
 300 700 l 1,5,-1
 300 600 l 1,6,-1
 200 600 l 1,7,-1
 200 700 l 1,4,-1
300 700 m 1,8,-1
 400 700 l 1,9,-1
 400 600 l 1,10,-1
 300 600 l 1,11,-1
 300 700 l 1,8,-1
400 700 m 1,12,-1
 500 700 l 1,13,-1
 500 600 l 1,14,-1
 400 600 l 1,15,-1
 400 700 l 1,12,-1
200 600 m 1,16,-1
 300 600 l 1,17,-1
 300 500 l 1,18,-1
 200 500 l 1,19,-1
 200 600 l 1,16,-1
300 600 m 1,20,-1
 400 600 l 1,21,-1
 400 500 l 1,22,-1
 300 500 l 1,23,-1
 300 600 l 1,20,-1
200 500 m 1,24,-1
 300 500 l 1,25,-1
 300 400 l 1,26,-1
 200 400 l 1,27,-1
 200 500 l 1,24,-1
300 500 m 1,28,-1
 400 500 l 1,29,-1
 400 400 l 1,30,-1
 300 400 l 1,31,-1
 300 500 l 1,28,-1
200 400 m 1,32,-1
 300 400 l 1,33,-1
 300 300 l 1,34,-1
 200 300 l 1,35,-1
 200 400 l 1,32,-1
300 400 m 1,36,-1
 400 400 l 1,37,-1
 400 300 l 1,38,-1
 300 300 l 1,39,-1
 300 400 l 1,36,-1
200 300 m 1,40,-1
 300 300 l 1,41,-1
 300 200 l 1,42,-1
 200 200 l 1,43,-1
 200 300 l 1,40,-1
300 300 m 1,44,-1
 400 300 l 1,45,-1
 400 200 l 1,46,-1
 300 200 l 1,47,-1
 300 300 l 1,44,-1
200 200 m 1,48,-1
 300 200 l 1,49,-1
 300 100 l 1,50,-1
 200 100 l 1,51,-1
 200 200 l 1,48,-1
300 200 m 1,52,-1
 400 200 l 1,53,-1
 400 100 l 1,54,-1
 300 100 l 1,55,-1
 300 200 l 1,52,-1
100 100 m 1,56,-1
 200 100 l 1,57,-1
 200 0 l 1,58,-1
 100 0 l 1,59,-1
 100 100 l 1,56,-1
200 100 m 1,60,-1
 300 100 l 1,61,-1
 300 0 l 1,62,-1
 200 0 l 1,63,-1
 200 100 l 1,60,-1
300 100 m 1,64,-1
 400 100 l 1,65,-1
 400 0 l 1,66,-1
 300 0 l 1,67,-1
 300 100 l 1,64,-1
400 100 m 1,68,-1
 500 100 l 1,69,-1
 500 0 l 1,70,-1
 400 0 l 1,71,-1
 400 100 l 1,68,-1
EndSplineSet
Validated: 5
EndChar

StartChar: J
Encoding: 74 74 44
Width: 600
GlyphClass: 1
Flags: W
LayerCount: 2
Fore
SplineSet
100 700 m 1,0,-1
 200 700 l 1,1,-1
 200 600 l 1,2,-1
 100 600 l 1,3,-1
 100 700 l 1,0,-1
200 700 m 1,4,-1
 300 700 l 1,5,-1
 300 600 l 1,6,-1
 200 600 l 1,7,-1
 200 700 l 1,4,-1
300 700 m 1,8,-1
 400 700 l 1,9,-1
 400 600 l 1,10,-1
 300 600 l 1,11,-1
 300 700 l 1,8,-1
400 700 m 1,12,-1
 500 700 l 1,13,-1
 500 600 l 1,14,-1
 400 600 l 1,15,-1
 400 700 l 1,12,-1
300 600 m 1,16,-1
 400 600 l 1,17,-1
 400 500 l 1,18,-1
 300 500 l 1,19,-1
 300 600 l 1,16,-1
400 600 m 1,20,-1
 500 600 l 1,21,-1
 500 500 l 1,22,-1
 400 500 l 1,23,-1
 400 600 l 1,20,-1
300 500 m 1,24,-1
 400 500 l 1,25,-1
 400 400 l 1,26,-1
 300 400 l 1,27,-1
 300 500 l 1,24,-1
400 500 m 1,28,-1
 500 500 l 1,29,-1
 500 400 l 1,30,-1
 400 400 l 1,31,-1
 400 500 l 1,28,-1
300 400 m 1,32,-1
 400 400 l 1,33,-1
 400 300 l 1,34,-1
 300 300 l 1,35,-1
 300 400 l 1,32,-1
400 400 m 1,36,-1
 500 400 l 1,37,-1
 500 300 l 1,38,-1
 400 300 l 1,39,-1
 400 400 l 1,36,-1
300 300 m 1,40,-1
 400 300 l 1,41,-1
 400 200 l 1,42,-1
 300 200 l 1,43,-1
 300 300 l 1,40,-1
400 300 m 1,44,-1
 500 300 l 1,45,-1
 500 200 l 1,46,-1
 400 200 l 1,47,-1
 400 300 l 1,44,-1
0 200 m 1,48,-1
 100 200 l 1,49,-1
 100 100 l 1,50,-1
 0 100 l 1,51,-1
 0 200 l 1,48,-1
200 200 m 1,52,-1
 300 200 l 1,53,-1
 300 100 l 1,54,-1
 200 100 l 1,55,-1
 200 200 l 1,52,-1
300 200 m 1,56,-1
 400 200 l 1,57,-1
 400 100 l 1,58,-1
 300 100 l 1,59,-1
 300 200 l 1,56,-1
400 200 m 1,60,-1
 500 200 l 1,61,-1
 500 100 l 1,62,-1
 400 100 l 1,63,-1
 400 200 l 1,60,-1
100 100 m 1,64,-1
 200 100 l 1,65,-1
 200 0 l 1,66,-1
 100 0 l 1,67,-1
 100 100 l 1,64,-1
200 100 m 1,68,-1
 300 100 l 1,69,-1
 300 0 l 1,70,-1
 200 0 l 1,71,-1
 200 100 l 1,68,-1
300 100 m 1,72,-1
 400 100 l 1,73,-1
 400 0 l 1,74,-1
 300 0 l 1,75,-1
 300 100 l 1,72,-1
EndSplineSet
Validated: 5
EndChar

StartChar: K
Encoding: 75 75 45
Width: 600
GlyphClass: 1
Flags: W
LayerCount: 2
Fore
SplineSet
0 700 m 1,0,-1
 100 700 l 1,1,-1
 100 600 l 1,2,-1
 0 600 l 1,3,-1
 0 700 l 1,0,-1
100 700 m 1,4,-1
 200 700 l 1,5,-1
 200 600 l 1,6,-1
 100 600 l 1,7,-1
 100 700 l 1,4,-1
400 700 m 1,8,-1
 500 700 l 1,9,-1
 500 600 l 1,10,-1
 400 600 l 1,11,-1
 400 700 l 1,8,-1
0 600 m 1,12,-1
 100 600 l 1,13,-1
 100 500 l 1,14,-1
 0 500 l 1,15,-1
 0 600 l 1,12,-1
100 600 m 1,16,-1
 200 600 l 1,17,-1
 200 500 l 1,18,-1
 100 500 l 1,19,-1
 100 600 l 1,16,-1
400 600 m 1,20,-1
 500 600 l 1,21,-1
 500 500 l 1,22,-1
 400 500 l 1,23,-1
 400 600 l 1,20,-1
0 500 m 1,24,-1
 100 500 l 1,25,-1
 100 400 l 1,26,-1
 0 400 l 1,27,-1
 0 500 l 1,24,-1
100 500 m 1,28,-1
 200 500 l 1,29,-1
 200 400 l 1,30,-1
 100 400 l 1,31,-1
 100 500 l 1,28,-1
300 500 m 1,32,-1
 400 500 l 1,33,-1
 400 400 l 1,34,-1
 300 400 l 1,35,-1
 300 500 l 1,32,-1
0 400 m 1,36,-1
 100 400 l 1,37,-1
 100 300 l 1,38,-1
 0 300 l 1,39,-1
 0 400 l 1,36,-1
100 400 m 1,40,-1
 200 400 l 1,41,-1
 200 300 l 1,42,-1
 100 300 l 1,43,-1
 100 400 l 1,40,-1
300 400 m 1,44,-1
 400 400 l 1,45,-1
 400 300 l 1,46,-1
 300 300 l 1,47,-1
 300 400 l 1,44,-1
0 300 m 1,48,-1
 100 300 l 1,49,-1
 100 200 l 1,50,-1
 0 200 l 1,51,-1
 0 300 l 1,48,-1
100 300 m 1,52,-1
 200 300 l 1,53,-1
 200 200 l 1,54,-1
 100 200 l 1,55,-1
 100 300 l 1,52,-1
200 300 m 1,56,-1
 300 300 l 1,57,-1
 300 200 l 1,58,-1
 200 200 l 1,59,-1
 200 300 l 1,56,-1
0 200 m 1,60,-1
 100 200 l 1,61,-1
 100 100 l 1,62,-1
 0 100 l 1,63,-1
 0 200 l 1,60,-1
100 200 m 1,64,-1
 200 200 l 1,65,-1
 200 100 l 1,66,-1
 100 100 l 1,67,-1
 100 200 l 1,64,-1
300 200 m 1,68,-1
 400 200 l 1,69,-1
 400 100 l 1,70,-1
 300 100 l 1,71,-1
 300 200 l 1,68,-1
0 100 m 1,72,-1
 100 100 l 1,73,-1
 100 0 l 1,74,-1
 0 0 l 1,75,-1
 0 100 l 1,72,-1
100 100 m 1,76,-1
 200 100 l 1,77,-1
 200 0 l 1,78,-1
 100 0 l 1,79,-1
 100 100 l 1,76,-1
400 100 m 1,80,-1
 500 100 l 1,81,-1
 500 0 l 1,82,-1
 400 0 l 1,83,-1
 400 100 l 1,80,-1
EndSplineSet
Validated: 5
EndChar

StartChar: L
Encoding: 76 76 46
Width: 600
GlyphClass: 1
Flags: W
LayerCount: 2
Fore
SplineSet
0 700 m 1,0,-1
 100 700 l 1,1,-1
 100 600 l 1,2,-1
 0 600 l 1,3,-1
 0 700 l 1,0,-1
100 700 m 1,4,-1
 200 700 l 1,5,-1
 200 600 l 1,6,-1
 100 600 l 1,7,-1
 100 700 l 1,4,-1
0 600 m 1,8,-1
 100 600 l 1,9,-1
 100 500 l 1,10,-1
 0 500 l 1,11,-1
 0 600 l 1,8,-1
100 600 m 1,12,-1
 200 600 l 1,13,-1
 200 500 l 1,14,-1
 100 500 l 1,15,-1
 100 600 l 1,12,-1
0 500 m 1,16,-1
 100 500 l 1,17,-1
 100 400 l 1,18,-1
 0 400 l 1,19,-1
 0 500 l 1,16,-1
100 500 m 1,20,-1
 200 500 l 1,21,-1
 200 400 l 1,22,-1
 100 400 l 1,23,-1
 100 500 l 1,20,-1
0 400 m 1,24,-1
 100 400 l 1,25,-1
 100 300 l 1,26,-1
 0 300 l 1,27,-1
 0 400 l 1,24,-1
100 400 m 1,28,-1
 200 400 l 1,29,-1
 200 300 l 1,30,-1
 100 300 l 1,31,-1
 100 400 l 1,28,-1
0 300 m 1,32,-1
 100 300 l 1,33,-1
 100 200 l 1,34,-1
 0 200 l 1,35,-1
 0 300 l 1,32,-1
100 300 m 1,36,-1
 200 300 l 1,37,-1
 200 200 l 1,38,-1
 100 200 l 1,39,-1
 100 300 l 1,36,-1
0 200 m 1,40,-1
 100 200 l 1,41,-1
 100 100 l 1,42,-1
 0 100 l 1,43,-1
 0 200 l 1,40,-1
100 200 m 1,44,-1
 200 200 l 1,45,-1
 200 100 l 1,46,-1
 100 100 l 1,47,-1
 100 200 l 1,44,-1
0 100 m 1,48,-1
 100 100 l 1,49,-1
 100 0 l 1,50,-1
 0 0 l 1,51,-1
 0 100 l 1,48,-1
100 100 m 1,52,-1
 200 100 l 1,53,-1
 200 0 l 1,54,-1
 100 0 l 1,55,-1
 100 100 l 1,52,-1
200 100 m 1,56,-1
 300 100 l 1,57,-1
 300 0 l 1,58,-1
 200 0 l 1,59,-1
 200 100 l 1,56,-1
300 100 m 1,60,-1
 400 100 l 1,61,-1
 400 0 l 1,62,-1
 300 0 l 1,63,-1
 300 100 l 1,60,-1
400 100 m 1,64,-1
 500 100 l 1,65,-1
 500 0 l 1,66,-1
 400 0 l 1,67,-1
 400 100 l 1,64,-1
EndSplineSet
Validated: 5
EndChar

StartChar: M
Encoding: 77 77 47
Width: 600
GlyphClass: 1
Flags: W
LayerCount: 2
Fore
SplineSet
0 700 m 1,0,-1
 100 700 l 1,1,-1
 100 600 l 1,2,-1
 0 600 l 1,3,-1
 0 700 l 1,0,-1
100 700 m 1,4,-1
 200 700 l 1,5,-1
 200 600 l 1,6,-1
 100 600 l 1,7,-1
 100 700 l 1,4,-1
400 700 m 1,8,-1
 500 700 l 1,9,-1
 500 600 l 1,10,-1
 400 600 l 1,11,-1
 400 700 l 1,8,-1
0 600 m 1,12,-1
 100 600 l 1,13,-1
 100 500 l 1,14,-1
 0 500 l 1,15,-1
 0 600 l 1,12,-1
100 600 m 1,16,-1
 200 600 l 1,17,-1
 200 500 l 1,18,-1
 100 500 l 1,19,-1
 100 600 l 1,16,-1
400 600 m 1,20,-1
 500 600 l 1,21,-1
 500 500 l 1,22,-1
 400 500 l 1,23,-1
 400 600 l 1,20,-1
0 500 m 1,24,-1
 100 500 l 1,25,-1
 100 400 l 1,26,-1
 0 400 l 1,27,-1
 0 500 l 1,24,-1
100 500 m 1,28,-1
 200 500 l 1,29,-1
 200 400 l 1,30,-1
 100 400 l 1,31,-1
 100 500 l 1,28,-1
400 500 m 1,32,-1
 500 500 l 1,33,-1
 500 400 l 1,34,-1
 400 400 l 1,35,-1
 400 500 l 1,32,-1
0 400 m 1,36,-1
 100 400 l 1,37,-1
 100 300 l 1,38,-1
 0 300 l 1,39,-1
 0 400 l 1,36,-1
100 400 m 1,40,-1
 200 400 l 1,41,-1
 200 300 l 1,42,-1
 100 300 l 1,43,-1
 100 400 l 1,40,-1
400 400 m 1,44,-1
 500 400 l 1,45,-1
 500 300 l 1,46,-1
 400 300 l 1,47,-1
 400 400 l 1,44,-1
0 300 m 1,48,-1
 100 300 l 1,49,-1
 100 200 l 1,50,-1
 0 200 l 1,51,-1
 0 300 l 1,48,-1
100 300 m 1,52,-1
 200 300 l 1,53,-1
 200 200 l 1,54,-1
 100 200 l 1,55,-1
 100 300 l 1,52,-1
300 300 m 1,56,-1
 400 300 l 1,57,-1
 400 200 l 1,58,-1
 300 200 l 1,59,-1
 300 300 l 1,56,-1
400 300 m 1,60,-1
 500 300 l 1,61,-1
 500 200 l 1,62,-1
 400 200 l 1,63,-1
 400 300 l 1,60,-1
0 200 m 1,64,-1
 100 200 l 1,65,-1
 100 100 l 1,66,-1
 0 100 l 1,67,-1
 0 200 l 1,64,-1
200 200 m 1,68,-1
 300 200 l 1,69,-1
 300 100 l 1,70,-1
 200 100 l 1,71,-1
 200 200 l 1,68,-1
400 200 m 1,72,-1
 500 200 l 1,73,-1
 500 100 l 1,74,-1
 400 100 l 1,75,-1
 400 200 l 1,72,-1
0 100 m 1,76,-1
 100 100 l 1,77,-1
 100 0 l 1,78,-1
 0 0 l 1,79,-1
 0 100 l 1,76,-1
400 100 m 1,80,-1
 500 100 l 1,81,-1
 500 0 l 1,82,-1
 400 0 l 1,83,-1
 400 100 l 1,80,-1
EndSplineSet
Validated: 5
EndChar

StartChar: N
Encoding: 78 78 48
Width: 600
GlyphClass: 1
Flags: W
LayerCount: 2
Fore
SplineSet
0 700 m 1,0,-1
 100 700 l 1,1,-1
 100 600 l 1,2,-1
 0 600 l 1,3,-1
 0 700 l 1,0,-1
100 700 m 1,4,-1
 200 700 l 1,5,-1
 200 600 l 1,6,-1
 100 600 l 1,7,-1
 100 700 l 1,4,-1
400 700 m 1,8,-1
 500 700 l 1,9,-1
 500 600 l 1,10,-1
 400 600 l 1,11,-1
 400 700 l 1,8,-1
0 600 m 1,12,-1
 100 600 l 1,13,-1
 100 500 l 1,14,-1
 0 500 l 1,15,-1
 0 600 l 1,12,-1
100 600 m 1,16,-1
 200 600 l 1,17,-1
 200 500 l 1,18,-1
 100 500 l 1,19,-1
 100 600 l 1,16,-1
400 600 m 1,20,-1
 500 600 l 1,21,-1
 500 500 l 1,22,-1
 400 500 l 1,23,-1
 400 600 l 1,20,-1
0 500 m 1,24,-1
 100 500 l 1,25,-1
 100 400 l 1,26,-1
 0 400 l 1,27,-1
 0 500 l 1,24,-1
100 500 m 1,28,-1
 200 500 l 1,29,-1
 200 400 l 1,30,-1
 100 400 l 1,31,-1
 100 500 l 1,28,-1
400 500 m 1,32,-1
 500 500 l 1,33,-1
 500 400 l 1,34,-1
 400 400 l 1,35,-1
 400 500 l 1,32,-1
0 400 m 1,36,-1
 100 400 l 1,37,-1
 100 300 l 1,38,-1
 0 300 l 1,39,-1
 0 400 l 1,36,-1
100 400 m 1,40,-1
 200 400 l 1,41,-1
 200 300 l 1,42,-1
 100 300 l 1,43,-1
 100 400 l 1,40,-1
400 400 m 1,44,-1
 500 400 l 1,45,-1
 500 300 l 1,46,-1
 400 300 l 1,47,-1
 400 400 l 1,44,-1
0 300 m 1,48,-1
 100 300 l 1,49,-1
 100 200 l 1,50,-1
 0 200 l 1,51,-1
 0 300 l 1,48,-1
100 300 m 1,52,-1
 200 300 l 1,53,-1
 200 200 l 1,54,-1
 100 200 l 1,55,-1
 100 300 l 1,52,-1
200 300 m 1,56,-1
 300 300 l 1,57,-1
 300 200 l 1,58,-1
 200 200 l 1,59,-1
 200 300 l 1,56,-1
400 300 m 1,60,-1
 500 300 l 1,61,-1
 500 200 l 1,62,-1
 400 200 l 1,63,-1
 400 300 l 1,60,-1
0 200 m 1,64,-1
 100 200 l 1,65,-1
 100 100 l 1,66,-1
 0 100 l 1,67,-1
 0 200 l 1,64,-1
100 200 m 1,68,-1
 200 200 l 1,69,-1
 200 100 l 1,70,-1
 100 100 l 1,71,-1
 100 200 l 1,68,-1
300 200 m 1,72,-1
 400 200 l 1,73,-1
 400 100 l 1,74,-1
 300 100 l 1,75,-1
 300 200 l 1,72,-1
400 200 m 1,76,-1
 500 200 l 1,77,-1
 500 100 l 1,78,-1
 400 100 l 1,79,-1
 400 200 l 1,76,-1
0 100 m 1,80,-1
 100 100 l 1,81,-1
 100 0 l 1,82,-1
 0 0 l 1,83,-1
 0 100 l 1,80,-1
100 100 m 1,84,-1
 200 100 l 1,85,-1
 200 0 l 1,86,-1
 100 0 l 1,87,-1
 100 100 l 1,84,-1
400 100 m 1,88,-1
 500 100 l 1,89,-1
 500 0 l 1,90,-1
 400 0 l 1,91,-1
 400 100 l 1,88,-1
EndSplineSet
Validated: 5
EndChar

StartChar: O
Encoding: 79 79 49
Width: 600
GlyphClass: 1
Flags: W
LayerCount: 2
Fore
SplineSet
100 700 m 1,0,-1
 200 700 l 1,1,-1
 200 600 l 1,2,-1
 100 600 l 1,3,-1
 100 700 l 1,0,-1
200 700 m 1,4,-1
 300 700 l 1,5,-1
 300 600 l 1,6,-1
 200 600 l 1,7,-1
 200 700 l 1,4,-1
300 700 m 1,8,-1
 400 700 l 1,9,-1
 400 600 l 1,10,-1
 300 600 l 1,11,-1
 300 700 l 1,8,-1
0 600 m 1,12,-1
 100 600 l 1,13,-1
 100 500 l 1,14,-1
 0 500 l 1,15,-1
 0 600 l 1,12,-1
100 600 m 1,16,-1
 200 600 l 1,17,-1
 200 500 l 1,18,-1
 100 500 l 1,19,-1
 100 600 l 1,16,-1
400 600 m 1,20,-1
 500 600 l 1,21,-1
 500 500 l 1,22,-1
 400 500 l 1,23,-1
 400 600 l 1,20,-1
0 500 m 1,24,-1
 100 500 l 1,25,-1
 100 400 l 1,26,-1
 0 400 l 1,27,-1
 0 500 l 1,24,-1
100 500 m 1,28,-1
 200 500 l 1,29,-1
 200 400 l 1,30,-1
 100 400 l 1,31,-1
 100 500 l 1,28,-1
400 500 m 1,32,-1
 500 500 l 1,33,-1
 500 400 l 1,34,-1
 400 400 l 1,35,-1
 400 500 l 1,32,-1
0 400 m 1,36,-1
 100 400 l 1,37,-1
 100 300 l 1,38,-1
 0 300 l 1,39,-1
 0 400 l 1,36,-1
100 400 m 1,40,-1
 200 400 l 1,41,-1
 200 300 l 1,42,-1
 100 300 l 1,43,-1
 100 400 l 1,40,-1
400 400 m 1,44,-1
 500 400 l 1,45,-1
 500 300 l 1,46,-1
 400 300 l 1,47,-1
 400 400 l 1,44,-1
0 300 m 1,48,-1
 100 300 l 1,49,-1
 100 200 l 1,50,-1
 0 200 l 1,51,-1
 0 300 l 1,48,-1
100 300 m 1,52,-1
 200 300 l 1,53,-1
 200 200 l 1,54,-1
 100 200 l 1,55,-1
 100 300 l 1,52,-1
400 300 m 1,56,-1
 500 300 l 1,57,-1
 500 200 l 1,58,-1
 400 200 l 1,59,-1
 400 300 l 1,56,-1
0 200 m 1,60,-1
 100 200 l 1,61,-1
 100 100 l 1,62,-1
 0 100 l 1,63,-1
 0 200 l 1,60,-1
100 200 m 1,64,-1
 200 200 l 1,65,-1
 200 100 l 1,66,-1
 100 100 l 1,67,-1
 100 200 l 1,64,-1
400 200 m 1,68,-1
 500 200 l 1,69,-1
 500 100 l 1,70,-1
 400 100 l 1,71,-1
 400 200 l 1,68,-1
100 100 m 1,72,-1
 200 100 l 1,73,-1
 200 0 l 1,74,-1
 100 0 l 1,75,-1
 100 100 l 1,72,-1
200 100 m 1,76,-1
 300 100 l 1,77,-1
 300 0 l 1,78,-1
 200 0 l 1,79,-1
 200 100 l 1,76,-1
300 100 m 1,80,-1
 400 100 l 1,81,-1
 400 0 l 1,82,-1
 300 0 l 1,83,-1
 300 100 l 1,80,-1
EndSplineSet
Validated: 5
EndChar

StartChar: P
Encoding: 80 80 50
Width: 600
GlyphClass: 1
Flags: W
LayerCount: 2
Fore
SplineSet
0 700 m 1,0,-1
 100 700 l 1,1,-1
 100 600 l 1,2,-1
 0 600 l 1,3,-1
 0 700 l 1,0,-1
100 700 m 1,4,-1
 200 700 l 1,5,-1
 200 600 l 1,6,-1
 100 600 l 1,7,-1
 100 700 l 1,4,-1
200 700 m 1,8,-1
 300 700 l 1,9,-1
 300 600 l 1,10,-1
 200 600 l 1,11,-1
 200 700 l 1,8,-1
300 700 m 1,12,-1
 400 700 l 1,13,-1
 400 600 l 1,14,-1
 300 600 l 1,15,-1
 300 700 l 1,12,-1
0 600 m 1,16,-1
 100 600 l 1,17,-1
 100 500 l 1,18,-1
 0 500 l 1,19,-1
 0 600 l 1,16,-1
100 600 m 1,20,-1
 200 600 l 1,21,-1
 200 500 l 1,22,-1
 100 500 l 1,23,-1
 100 600 l 1,20,-1
400 600 m 1,24,-1
 500 600 l 1,25,-1
 500 500 l 1,26,-1
 400 500 l 1,27,-1
 400 600 l 1,24,-1
0 500 m 1,28,-1
 100 500 l 1,29,-1
 100 400 l 1,30,-1
 0 400 l 1,31,-1
 0 500 l 1,28,-1
100 500 m 1,32,-1
 200 500 l 1,33,-1
 200 400 l 1,34,-1
 100 400 l 1,35,-1
 100 500 l 1,32,-1
400 500 m 1,36,-1
 500 500 l 1,37,-1
 500 400 l 1,38,-1
 400 400 l 1,39,-1
 400 500 l 1,36,-1
0 400 m 1,40,-1
 100 400 l 1,41,-1
 100 300 l 1,42,-1
 0 300 l 1,43,-1
 0 400 l 1,40,-1
100 400 m 1,44,-1
 200 400 l 1,45,-1
 200 300 l 1,46,-1
 100 300 l 1,47,-1
 100 400 l 1,44,-1
400 400 m 1,48,-1
 500 400 l 1,49,-1
 500 300 l 1,50,-1
 400 300 l 1,51,-1
 400 400 l 1,48,-1
0 300 m 1,52,-1
 100 300 l 1,53,-1
 100 200 l 1,54,-1
 0 200 l 1,55,-1
 0 300 l 1,52,-1
100 300 m 1,56,-1
 200 300 l 1,57,-1
 200 200 l 1,58,-1
 100 200 l 1,59,-1
 100 300 l 1,56,-1
200 300 m 1,60,-1
 300 300 l 1,61,-1
 300 200 l 1,62,-1
 200 200 l 1,63,-1
 200 300 l 1,60,-1
300 300 m 1,64,-1
 400 300 l 1,65,-1
 400 200 l 1,66,-1
 300 200 l 1,67,-1
 300 300 l 1,64,-1
0 200 m 1,68,-1
 100 200 l 1,69,-1
 100 100 l 1,70,-1
 0 100 l 1,71,-1
 0 200 l 1,68,-1
100 200 m 1,72,-1
 200 200 l 1,73,-1
 200 100 l 1,74,-1
 100 100 l 1,75,-1
 100 200 l 1,72,-1
0 100 m 1,76,-1
 100 100 l 1,77,-1
 100 0 l 1,78,-1
 0 0 l 1,79,-1
 0 100 l 1,76,-1
100 100 m 1,80,-1
 200 100 l 1,81,-1
 200 0 l 1,82,-1
 100 0 l 1,83,-1
 100 100 l 1,80,-1
EndSplineSet
Validated: 5
EndChar

StartChar: Q
Encoding: 81 81 51
Width: 600
GlyphClass: 1
Flags: W
LayerCount: 2
Fore
SplineSet
100 700 m 1,0,-1
 200 700 l 1,1,-1
 200 600 l 1,2,-1
 100 600 l 1,3,-1
 100 700 l 1,0,-1
200 700 m 1,4,-1
 300 700 l 1,5,-1
 300 600 l 1,6,-1
 200 600 l 1,7,-1
 200 700 l 1,4,-1
300 700 m 1,8,-1
 400 700 l 1,9,-1
 400 600 l 1,10,-1
 300 600 l 1,11,-1
 300 700 l 1,8,-1
0 600 m 1,12,-1
 100 600 l 1,13,-1
 100 500 l 1,14,-1
 0 500 l 1,15,-1
 0 600 l 1,12,-1
100 600 m 1,16,-1
 200 600 l 1,17,-1
 200 500 l 1,18,-1
 100 500 l 1,19,-1
 100 600 l 1,16,-1
400 600 m 1,20,-1
 500 600 l 1,21,-1
 500 500 l 1,22,-1
 400 500 l 1,23,-1
 400 600 l 1,20,-1
0 500 m 1,24,-1
 100 500 l 1,25,-1
 100 400 l 1,26,-1
 0 400 l 1,27,-1
 0 500 l 1,24,-1
100 500 m 1,28,-1
 200 500 l 1,29,-1
 200 400 l 1,30,-1
 100 400 l 1,31,-1
 100 500 l 1,28,-1
400 500 m 1,32,-1
 500 500 l 1,33,-1
 500 400 l 1,34,-1
 400 400 l 1,35,-1
 400 500 l 1,32,-1
0 400 m 1,36,-1
 100 400 l 1,37,-1
 100 300 l 1,38,-1
 0 300 l 1,39,-1
 0 400 l 1,36,-1
100 400 m 1,40,-1
 200 400 l 1,41,-1
 200 300 l 1,42,-1
 100 300 l 1,43,-1
 100 400 l 1,40,-1
400 400 m 1,44,-1
 500 400 l 1,45,-1
 500 300 l 1,46,-1
 400 300 l 1,47,-1
 400 400 l 1,44,-1
0 300 m 1,48,-1
 100 300 l 1,49,-1
 100 200 l 1,50,-1
 0 200 l 1,51,-1
 0 300 l 1,48,-1
100 300 m 1,52,-1
 200 300 l 1,53,-1
 200 200 l 1,54,-1
 100 200 l 1,55,-1
 100 300 l 1,52,-1
400 300 m 1,56,-1
 500 300 l 1,57,-1
 500 200 l 1,58,-1
 400 200 l 1,59,-1
 400 300 l 1,56,-1
0 200 m 1,60,-1
 100 200 l 1,61,-1
 100 100 l 1,62,-1
 0 100 l 1,63,-1
 0 200 l 1,60,-1
100 200 m 1,64,-1
 200 200 l 1,65,-1
 200 100 l 1,66,-1
 100 100 l 1,67,-1
 100 200 l 1,64,-1
300 200 m 1,68,-1
 400 200 l 1,69,-1
 400 100 l 1,70,-1
 300 100 l 1,71,-1
 300 200 l 1,68,-1
100 100 m 1,72,-1
 200 100 l 1,73,-1
 200 0 l 1,74,-1
 100 0 l 1,75,-1
 100 100 l 1,72,-1
200 100 m 1,76,-1
 300 100 l 1,77,-1
 300 0 l 1,78,-1
 200 0 l 1,79,-1
 200 100 l 1,76,-1
400 100 m 1,80,-1
 500 100 l 1,81,-1
 500 0 l 1,82,-1
 400 0 l 1,83,-1
 400 100 l 1,80,-1
EndSplineSet
Validated: 5
EndChar

StartChar: R
Encoding: 82 82 52
Width: 600
GlyphClass: 1
Flags: W
LayerCount: 2
Fore
SplineSet
0 700 m 1,0,-1
 100 700 l 1,1,-1
 100 600 l 1,2,-1
 0 600 l 1,3,-1
 0 700 l 1,0,-1
100 700 m 1,4,-1
 200 700 l 1,5,-1
 200 600 l 1,6,-1
 100 600 l 1,7,-1
 100 700 l 1,4,-1
200 700 m 1,8,-1
 300 700 l 1,9,-1
 300 600 l 1,10,-1
 200 600 l 1,11,-1
 200 700 l 1,8,-1
300 700 m 1,12,-1
 400 700 l 1,13,-1
 400 600 l 1,14,-1
 300 600 l 1,15,-1
 300 700 l 1,12,-1
0 600 m 1,16,-1
 100 600 l 1,17,-1
 100 500 l 1,18,-1
 0 500 l 1,19,-1
 0 600 l 1,16,-1
100 600 m 1,20,-1
 200 600 l 1,21,-1
 200 500 l 1,22,-1
 100 500 l 1,23,-1
 100 600 l 1,20,-1
400 600 m 1,24,-1
 500 600 l 1,25,-1
 500 500 l 1,26,-1
 400 500 l 1,27,-1
 400 600 l 1,24,-1
0 500 m 1,28,-1
 100 500 l 1,29,-1
 100 400 l 1,30,-1
 0 400 l 1,31,-1
 0 500 l 1,28,-1
100 500 m 1,32,-1
 200 500 l 1,33,-1
 200 400 l 1,34,-1
 100 400 l 1,35,-1
 100 500 l 1,32,-1
400 500 m 1,36,-1
 500 500 l 1,37,-1
 500 400 l 1,38,-1
 400 400 l 1,39,-1
 400 500 l 1,36,-1
0 400 m 1,40,-1
 100 400 l 1,41,-1
 100 300 l 1,42,-1
 0 300 l 1,43,-1
 0 400 l 1,40,-1
100 400 m 1,44,-1
 200 400 l 1,45,-1
 200 300 l 1,46,-1
 100 300 l 1,47,-1
 100 400 l 1,44,-1
400 400 m 1,48,-1
 500 400 l 1,49,-1
 500 300 l 1,50,-1
 400 300 l 1,51,-1
 400 400 l 1,48,-1
0 300 m 1,52,-1
 100 300 l 1,53,-1
 100 200 l 1,54,-1
 0 200 l 1,55,-1
 0 300 l 1,52,-1
100 300 m 1,56,-1
 200 300 l 1,57,-1
 200 200 l 1,58,-1
 100 200 l 1,59,-1
 100 300 l 1,56,-1
200 300 m 1,60,-1
 300 300 l 1,61,-1
 300 200 l 1,62,-1
 200 200 l 1,63,-1
 200 300 l 1,60,-1
300 300 m 1,64,-1
 400 300 l 1,65,-1
 400 200 l 1,66,-1
 300 200 l 1,67,-1
 300 300 l 1,64,-1
0 200 m 1,68,-1
 100 200 l 1,69,-1
 100 100 l 1,70,-1
 0 100 l 1,71,-1
 0 200 l 1,68,-1
100 200 m 1,72,-1
 200 200 l 1,73,-1
 200 100 l 1,74,-1
 100 100 l 1,75,-1
 100 200 l 1,72,-1
400 200 m 1,76,-1
 500 200 l 1,77,-1
 500 100 l 1,78,-1
 400 100 l 1,79,-1
 400 200 l 1,76,-1
0 100 m 1,80,-1
 100 100 l 1,81,-1
 100 0 l 1,82,-1
 0 0 l 1,83,-1
 0 100 l 1,80,-1
100 100 m 1,84,-1
 200 100 l 1,85,-1
 200 0 l 1,86,-1
 100 0 l 1,87,-1
 100 100 l 1,84,-1
400 100 m 1,88,-1
 500 100 l 1,89,-1
 500 0 l 1,90,-1
 400 0 l 1,91,-1
 400 100 l 1,88,-1
EndSplineSet
Validated: 5
EndChar

StartChar: S
Encoding: 83 83 53
Width: 600
GlyphClass: 1
Flags: W
LayerCount: 2
Fore
SplineSet
100 700 m 1,0,-1
 200 700 l 1,1,-1
 200 600 l 1,2,-1
 100 600 l 1,3,-1
 100 700 l 1,0,-1
200 700 m 1,4,-1
 300 700 l 1,5,-1
 300 600 l 1,6,-1
 200 600 l 1,7,-1
 200 700 l 1,4,-1
300 700 m 1,8,-1
 400 700 l 1,9,-1
 400 600 l 1,10,-1
 300 600 l 1,11,-1
 300 700 l 1,8,-1
0 600 m 1,12,-1
 100 600 l 1,13,-1
 100 500 l 1,14,-1
 0 500 l 1,15,-1
 0 600 l 1,12,-1
100 600 m 1,16,-1
 200 600 l 1,17,-1
 200 500 l 1,18,-1
 100 500 l 1,19,-1
 100 600 l 1,16,-1
200 600 m 1,20,-1
 300 600 l 1,21,-1
 300 500 l 1,22,-1
 200 500 l 1,23,-1
 200 600 l 1,20,-1
400 600 m 1,24,-1
 500 600 l 1,25,-1
 500 500 l 1,26,-1
 400 500 l 1,27,-1
 400 600 l 1,24,-1
0 500 m 1,28,-1
 100 500 l 1,29,-1
 100 400 l 1,30,-1
 0 400 l 1,31,-1
 0 500 l 1,28,-1
100 500 m 1,32,-1
 200 500 l 1,33,-1
 200 400 l 1,34,-1
 100 400 l 1,35,-1
 100 500 l 1,32,-1
200 500 m 1,36,-1
 300 500 l 1,37,-1
 300 400 l 1,38,-1
 200 400 l 1,39,-1
 200 500 l 1,36,-1
0 400 m 1,40,-1
 100 400 l 1,41,-1
 100 300 l 1,42,-1
 0 300 l 1,43,-1
 0 400 l 1,40,-1
100 400 m 1,44,-1
 200 400 l 1,45,-1
 200 300 l 1,46,-1
 100 300 l 1,47,-1
 100 400 l 1,44,-1
200 400 m 1,48,-1
 300 400 l 1,49,-1
 300 300 l 1,50,-1
 200 300 l 1,51,-1
 200 400 l 1,48,-1
100 300 m 1,52,-1
 200 300 l 1,53,-1
 200 200 l 1,54,-1
 100 200 l 1,55,-1
 100 300 l 1,52,-1
200 300 m 1,56,-1
 300 300 l 1,57,-1
 300 200 l 1,58,-1
 200 200 l 1,59,-1
 200 300 l 1,56,-1
300 300 m 1,60,-1
 400 300 l 1,61,-1
 400 200 l 1,62,-1
 300 200 l 1,63,-1
 300 300 l 1,60,-1
0 200 m 1,64,-1
 100 200 l 1,65,-1
 100 100 l 1,66,-1
 0 100 l 1,67,-1
 0 200 l 1,64,-1
300 200 m 1,68,-1
 400 200 l 1,69,-1
 400 100 l 1,70,-1
 300 100 l 1,71,-1
 300 200 l 1,68,-1
400 200 m 1,72,-1
 500 200 l 1,73,-1
 500 100 l 1,74,-1
 400 100 l 1,75,-1
 400 200 l 1,72,-1
100 100 m 1,76,-1
 200 100 l 1,77,-1
 200 0 l 1,78,-1
 100 0 l 1,79,-1
 100 100 l 1,76,-1
200 100 m 1,80,-1
 300 100 l 1,81,-1
 300 0 l 1,82,-1
 200 0 l 1,83,-1
 200 100 l 1,80,-1
300 100 m 1,84,-1
 400 100 l 1,85,-1
 400 0 l 1,86,-1
 300 0 l 1,87,-1
 300 100 l 1,84,-1
EndSplineSet
Validated: 5
EndChar

StartChar: T
Encoding: 84 84 54
Width: 600
GlyphClass: 1
Flags: W
LayerCount: 2
Fore
SplineSet
0 700 m 1,0,-1
 100 700 l 1,1,-1
 100 600 l 1,2,-1
 0 600 l 1,3,-1
 0 700 l 1,0,-1
100 700 m 1,4,-1
 200 700 l 1,5,-1
 200 600 l 1,6,-1
 100 600 l 1,7,-1
 100 700 l 1,4,-1
200 700 m 1,8,-1
 300 700 l 1,9,-1
 300 600 l 1,10,-1
 200 600 l 1,11,-1
 200 700 l 1,8,-1
300 700 m 1,12,-1
 400 700 l 1,13,-1
 400 600 l 1,14,-1
 300 600 l 1,15,-1
 300 700 l 1,12,-1
400 700 m 1,16,-1
 500 700 l 1,17,-1
 500 600 l 1,18,-1
 400 600 l 1,19,-1
 400 700 l 1,16,-1
100 600 m 1,20,-1
 200 600 l 1,21,-1
 200 500 l 1,22,-1
 100 500 l 1,23,-1
 100 600 l 1,20,-1
200 600 m 1,24,-1
 300 600 l 1,25,-1
 300 500 l 1,26,-1
 200 500 l 1,27,-1
 200 600 l 1,24,-1
100 500 m 1,28,-1
 200 500 l 1,29,-1
 200 400 l 1,30,-1
 100 400 l 1,31,-1
 100 500 l 1,28,-1
200 500 m 1,32,-1
 300 500 l 1,33,-1
 300 400 l 1,34,-1
 200 400 l 1,35,-1
 200 500 l 1,32,-1
100 400 m 1,36,-1
 200 400 l 1,37,-1
 200 300 l 1,38,-1
 100 300 l 1,39,-1
 100 400 l 1,36,-1
200 400 m 1,40,-1
 300 400 l 1,41,-1
 300 300 l 1,42,-1
 200 300 l 1,43,-1
 200 400 l 1,40,-1
100 300 m 1,44,-1
 200 300 l 1,45,-1
 200 200 l 1,46,-1
 100 200 l 1,47,-1
 100 300 l 1,44,-1
200 300 m 1,48,-1
 300 300 l 1,49,-1
 300 200 l 1,50,-1
 200 200 l 1,51,-1
 200 300 l 1,48,-1
100 200 m 1,52,-1
 200 200 l 1,53,-1
 200 100 l 1,54,-1
 100 100 l 1,55,-1
 100 200 l 1,52,-1
200 200 m 1,56,-1
 300 200 l 1,57,-1
 300 100 l 1,58,-1
 200 100 l 1,59,-1
 200 200 l 1,56,-1
100 100 m 1,60,-1
 200 100 l 1,61,-1
 200 0 l 1,62,-1
 100 0 l 1,63,-1
 100 100 l 1,60,-1
200 100 m 1,64,-1
 300 100 l 1,65,-1
 300 0 l 1,66,-1
 200 0 l 1,67,-1
 200 100 l 1,64,-1
EndSplineSet
Validated: 5
EndChar

StartChar: U
Encoding: 85 85 55
Width: 600
GlyphClass: 1
Flags: W
LayerCount: 2
Fore
SplineSet
0 700 m 1,0,-1
 100 700 l 1,1,-1
 100 600 l 1,2,-1
 0 600 l 1,3,-1
 0 700 l 1,0,-1
100 700 m 1,4,-1
 200 700 l 1,5,-1
 200 600 l 1,6,-1
 100 600 l 1,7,-1
 100 700 l 1,4,-1
400 700 m 1,8,-1
 500 700 l 1,9,-1
 500 600 l 1,10,-1
 400 600 l 1,11,-1
 400 700 l 1,8,-1
0 600 m 1,12,-1
 100 600 l 1,13,-1
 100 500 l 1,14,-1
 0 500 l 1,15,-1
 0 600 l 1,12,-1
100 600 m 1,16,-1
 200 600 l 1,17,-1
 200 500 l 1,18,-1
 100 500 l 1,19,-1
 100 600 l 1,16,-1
400 600 m 1,20,-1
 500 600 l 1,21,-1
 500 500 l 1,22,-1
 400 500 l 1,23,-1
 400 600 l 1,20,-1
0 500 m 1,24,-1
 100 500 l 1,25,-1
 100 400 l 1,26,-1
 0 400 l 1,27,-1
 0 500 l 1,24,-1
100 500 m 1,28,-1
 200 500 l 1,29,-1
 200 400 l 1,30,-1
 100 400 l 1,31,-1
 100 500 l 1,28,-1
400 500 m 1,32,-1
 500 500 l 1,33,-1
 500 400 l 1,34,-1
 400 400 l 1,35,-1
 400 500 l 1,32,-1
0 400 m 1,36,-1
 100 400 l 1,37,-1
 100 300 l 1,38,-1
 0 300 l 1,39,-1
 0 400 l 1,36,-1
100 400 m 1,40,-1
 200 400 l 1,41,-1
 200 300 l 1,42,-1
 100 300 l 1,43,-1
 100 400 l 1,40,-1
400 400 m 1,44,-1
 500 400 l 1,45,-1
 500 300 l 1,46,-1
 400 300 l 1,47,-1
 400 400 l 1,44,-1
0 300 m 1,48,-1
 100 300 l 1,49,-1
 100 200 l 1,50,-1
 0 200 l 1,51,-1
 0 300 l 1,48,-1
100 300 m 1,52,-1
 200 300 l 1,53,-1
 200 200 l 1,54,-1
 100 200 l 1,55,-1
 100 300 l 1,52,-1
400 300 m 1,56,-1
 500 300 l 1,57,-1
 500 200 l 1,58,-1
 400 200 l 1,59,-1
 400 300 l 1,56,-1
0 200 m 1,60,-1
 100 200 l 1,61,-1
 100 100 l 1,62,-1
 0 100 l 1,63,-1
 0 200 l 1,60,-1
100 200 m 1,64,-1
 200 200 l 1,65,-1
 200 100 l 1,66,-1
 100 100 l 1,67,-1
 100 200 l 1,64,-1
400 200 m 1,68,-1
 500 200 l 1,69,-1
 500 100 l 1,70,-1
 400 100 l 1,71,-1
 400 200 l 1,68,-1
100 100 m 1,72,-1
 200 100 l 1,73,-1
 200 0 l 1,74,-1
 100 0 l 1,75,-1
 100 100 l 1,72,-1
200 100 m 1,76,-1
 300 100 l 1,77,-1
 300 0 l 1,78,-1
 200 0 l 1,79,-1
 200 100 l 1,76,-1
300 100 m 1,80,-1
 400 100 l 1,81,-1
 400 0 l 1,82,-1
 300 0 l 1,83,-1
 300 100 l 1,80,-1
EndSplineSet
Validated: 5
EndChar

StartChar: V
Encoding: 86 86 56
Width: 600
GlyphClass: 1
Flags: W
LayerCount: 2
Fore
SplineSet
0 700 m 1,0,-1
 100 700 l 1,1,-1
 100 600 l 1,2,-1
 0 600 l 1,3,-1
 0 700 l 1,0,-1
100 700 m 1,4,-1
 200 700 l 1,5,-1
 200 600 l 1,6,-1
 100 600 l 1,7,-1
 100 700 l 1,4,-1
400 700 m 1,8,-1
 500 700 l 1,9,-1
 500 600 l 1,10,-1
 400 600 l 1,11,-1
 400 700 l 1,8,-1
0 600 m 1,12,-1
 100 600 l 1,13,-1
 100 500 l 1,14,-1
 0 500 l 1,15,-1
 0 600 l 1,12,-1
100 600 m 1,16,-1
 200 600 l 1,17,-1
 200 500 l 1,18,-1
 100 500 l 1,19,-1
 100 600 l 1,16,-1
400 600 m 1,20,-1
 500 600 l 1,21,-1
 500 500 l 1,22,-1
 400 500 l 1,23,-1
 400 600 l 1,20,-1
0 500 m 1,24,-1
 100 500 l 1,25,-1
 100 400 l 1,26,-1
 0 400 l 1,27,-1
 0 500 l 1,24,-1
100 500 m 1,28,-1
 200 500 l 1,29,-1
 200 400 l 1,30,-1
 100 400 l 1,31,-1
 100 500 l 1,28,-1
400 500 m 1,32,-1
 500 500 l 1,33,-1
 500 400 l 1,34,-1
 400 400 l 1,35,-1
 400 500 l 1,32,-1
0 400 m 1,36,-1
 100 400 l 1,37,-1
 100 300 l 1,38,-1
 0 300 l 1,39,-1
 0 400 l 1,36,-1
100 400 m 1,40,-1
 200 400 l 1,41,-1
 200 300 l 1,42,-1
 100 300 l 1,43,-1
 100 400 l 1,40,-1
400 400 m 1,44,-1
 500 400 l 1,45,-1
 500 300 l 1,46,-1
 400 300 l 1,47,-1
 400 400 l 1,44,-1
0 300 m 1,48,-1
 100 300 l 1,49,-1
 100 200 l 1,50,-1
 0 200 l 1,51,-1
 0 300 l 1,48,-1
100 300 m 1,52,-1
 200 300 l 1,53,-1
 200 200 l 1,54,-1
 100 200 l 1,55,-1
 100 300 l 1,52,-1
400 300 m 1,56,-1
 500 300 l 1,57,-1
 500 200 l 1,58,-1
 400 200 l 1,59,-1
 400 300 l 1,56,-1
100 200 m 1,60,-1
 200 200 l 1,61,-1
 200 100 l 1,62,-1
 100 100 l 1,63,-1
 100 200 l 1,60,-1
300 200 m 1,64,-1
 400 200 l 1,65,-1
 400 100 l 1,66,-1
 300 100 l 1,67,-1
 300 200 l 1,64,-1
200 100 m 1,68,-1
 300 100 l 1,69,-1
 300 0 l 1,70,-1
 200 0 l 1,71,-1
 200 100 l 1,68,-1
EndSplineSet
Validated: 5
EndChar

StartChar: W
Encoding: 87 87 57
Width: 600
GlyphClass: 1
Flags: W
LayerCount: 2
Fore
SplineSet
0 700 m 1,0,-1
 100 700 l 1,1,-1
 100 600 l 1,2,-1
 0 600 l 1,3,-1
 0 700 l 1,0,-1
100 700 m 1,4,-1
 200 700 l 1,5,-1
 200 600 l 1,6,-1
 100 600 l 1,7,-1
 100 700 l 1,4,-1
400 700 m 1,8,-1
 500 700 l 1,9,-1
 500 600 l 1,10,-1
 400 600 l 1,11,-1
 400 700 l 1,8,-1
0 600 m 1,12,-1
 100 600 l 1,13,-1
 100 500 l 1,14,-1
 0 500 l 1,15,-1
 0 600 l 1,12,-1
100 600 m 1,16,-1
 200 600 l 1,17,-1
 200 500 l 1,18,-1
 100 500 l 1,19,-1
 100 600 l 1,16,-1
400 600 m 1,20,-1
 500 600 l 1,21,-1
 500 500 l 1,22,-1
 400 500 l 1,23,-1
 400 600 l 1,20,-1
0 500 m 1,24,-1
 100 500 l 1,25,-1
 100 400 l 1,26,-1
 0 400 l 1,27,-1
 0 500 l 1,24,-1
100 500 m 1,28,-1
 200 500 l 1,29,-1
 200 400 l 1,30,-1
 100 400 l 1,31,-1
 100 500 l 1,28,-1
400 500 m 1,32,-1
 500 500 l 1,33,-1
 500 400 l 1,34,-1
 400 400 l 1,35,-1
 400 500 l 1,32,-1
0 400 m 1,36,-1
 100 400 l 1,37,-1
 100 300 l 1,38,-1
 0 300 l 1,39,-1
 0 400 l 1,36,-1
100 400 m 1,40,-1
 200 400 l 1,41,-1
 200 300 l 1,42,-1
 100 300 l 1,43,-1
 100 400 l 1,40,-1
400 400 m 1,44,-1
 500 400 l 1,45,-1
 500 300 l 1,46,-1
 400 300 l 1,47,-1
 400 400 l 1,44,-1
0 300 m 1,48,-1
 100 300 l 1,49,-1
 100 200 l 1,50,-1
 0 200 l 1,51,-1
 0 300 l 1,48,-1
100 300 m 1,52,-1
 200 300 l 1,53,-1
 200 200 l 1,54,-1
 100 200 l 1,55,-1
 100 300 l 1,52,-1
400 300 m 1,56,-1
 500 300 l 1,57,-1
 500 200 l 1,58,-1
 400 200 l 1,59,-1
 400 300 l 1,56,-1
0 200 m 1,60,-1
 100 200 l 1,61,-1
 100 100 l 1,62,-1
 0 100 l 1,63,-1
 0 200 l 1,60,-1
200 200 m 1,64,-1
 300 200 l 1,65,-1
 300 100 l 1,66,-1
 200 100 l 1,67,-1
 200 200 l 1,64,-1
400 200 m 1,68,-1
 500 200 l 1,69,-1
 500 100 l 1,70,-1
 400 100 l 1,71,-1
 400 200 l 1,68,-1
100 100 m 1,72,-1
 200 100 l 1,73,-1
 200 0 l 1,74,-1
 100 0 l 1,75,-1
 100 100 l 1,72,-1
300 100 m 1,76,-1
 400 100 l 1,77,-1
 400 0 l 1,78,-1
 300 0 l 1,79,-1
 300 100 l 1,76,-1
EndSplineSet
Validated: 5
EndChar

StartChar: X
Encoding: 88 88 58
Width: 600
GlyphClass: 1
Flags: W
LayerCount: 2
Fore
SplineSet
0 700 m 1,0,-1
 100 700 l 1,1,-1
 100 600 l 1,2,-1
 0 600 l 1,3,-1
 0 700 l 1,0,-1
100 700 m 1,4,-1
 200 700 l 1,5,-1
 200 600 l 1,6,-1
 100 600 l 1,7,-1
 100 700 l 1,4,-1
400 700 m 1,8,-1
 500 700 l 1,9,-1
 500 600 l 1,10,-1
 400 600 l 1,11,-1
 400 700 l 1,8,-1
0 600 m 1,12,-1
 100 600 l 1,13,-1
 100 500 l 1,14,-1
 0 500 l 1,15,-1
 0 600 l 1,12,-1
100 600 m 1,16,-1
 200 600 l 1,17,-1
 200 500 l 1,18,-1
 100 500 l 1,19,-1
 100 600 l 1,16,-1
400 600 m 1,20,-1
 500 600 l 1,21,-1
 500 500 l 1,22,-1
 400 500 l 1,23,-1
 400 600 l 1,20,-1
0 500 m 1,24,-1
 100 500 l 1,25,-1
 100 400 l 1,26,-1
 0 400 l 1,27,-1
 0 500 l 1,24,-1
100 500 m 1,28,-1
 200 500 l 1,29,-1
 200 400 l 1,30,-1
 100 400 l 1,31,-1
 100 500 l 1,28,-1
400 500 m 1,32,-1
 500 500 l 1,33,-1
 500 400 l 1,34,-1
 400 400 l 1,35,-1
 400 500 l 1,32,-1
0 400 m 1,36,-1
 100 400 l 1,37,-1
 100 300 l 1,38,-1
 0 300 l 1,39,-1
 0 400 l 1,36,-1
100 400 m 1,40,-1
 200 400 l 1,41,-1
 200 300 l 1,42,-1
 100 300 l 1,43,-1
 100 400 l 1,40,-1
400 400 m 1,44,-1
 500 400 l 1,45,-1
 500 300 l 1,46,-1
 400 300 l 1,47,-1
 400 400 l 1,44,-1
100 300 m 1,48,-1
 200 300 l 1,49,-1
 200 200 l 1,50,-1
 100 200 l 1,51,-1
 100 300 l 1,48,-1
200 300 m 1,52,-1
 300 300 l 1,53,-1
 300 200 l 1,54,-1
 200 200 l 1,55,-1
 200 300 l 1,52,-1
300 300 m 1,56,-1
 400 300 l 1,57,-1
 400 200 l 1,58,-1
 300 200 l 1,59,-1
 300 300 l 1,56,-1
0 200 m 1,60,-1
 100 200 l 1,61,-1
 100 100 l 1,62,-1
 0 100 l 1,63,-1
 0 200 l 1,60,-1
100 200 m 1,64,-1
 200 200 l 1,65,-1
 200 100 l 1,66,-1
 100 100 l 1,67,-1
 100 200 l 1,64,-1
400 200 m 1,68,-1
 500 200 l 1,69,-1
 500 100 l 1,70,-1
 400 100 l 1,71,-1
 400 200 l 1,68,-1
0 100 m 1,72,-1
 100 100 l 1,73,-1
 100 0 l 1,74,-1
 0 0 l 1,75,-1
 0 100 l 1,72,-1
100 100 m 1,76,-1
 200 100 l 1,77,-1
 200 0 l 1,78,-1
 100 0 l 1,79,-1
 100 100 l 1,76,-1
400 100 m 1,80,-1
 500 100 l 1,81,-1
 500 0 l 1,82,-1
 400 0 l 1,83,-1
 400 100 l 1,80,-1
EndSplineSet
Validated: 5
EndChar

StartChar: Y
Encoding: 89 89 59
Width: 600
GlyphClass: 1
Flags: W
LayerCount: 2
Fore
SplineSet
0 700 m 1,0,-1
 100 700 l 1,1,-1
 100 600 l 1,2,-1
 0 600 l 1,3,-1
 0 700 l 1,0,-1
300 700 m 1,4,-1
 400 700 l 1,5,-1
 400 600 l 1,6,-1
 300 600 l 1,7,-1
 300 700 l 1,4,-1
400 700 m 1,8,-1
 500 700 l 1,9,-1
 500 600 l 1,10,-1
 400 600 l 1,11,-1
 400 700 l 1,8,-1
0 600 m 1,12,-1
 100 600 l 1,13,-1
 100 500 l 1,14,-1
 0 500 l 1,15,-1
 0 600 l 1,12,-1
300 600 m 1,16,-1
 400 600 l 1,17,-1
 400 500 l 1,18,-1
 300 500 l 1,19,-1
 300 600 l 1,16,-1
400 600 m 1,20,-1
 500 600 l 1,21,-1
 500 500 l 1,22,-1
 400 500 l 1,23,-1
 400 600 l 1,20,-1
0 500 m 1,24,-1
 100 500 l 1,25,-1
 100 400 l 1,26,-1
 0 400 l 1,27,-1
 0 500 l 1,24,-1
300 500 m 1,28,-1
 400 500 l 1,29,-1
 400 400 l 1,30,-1
 300 400 l 1,31,-1
 300 500 l 1,28,-1
400 500 m 1,32,-1
 500 500 l 1,33,-1
 500 400 l 1,34,-1
 400 400 l 1,35,-1
 400 500 l 1,32,-1
0 400 m 1,36,-1
 100 400 l 1,37,-1
 100 300 l 1,38,-1
 0 300 l 1,39,-1
 0 400 l 1,36,-1
300 400 m 1,40,-1
 400 400 l 1,41,-1
 400 300 l 1,42,-1
 300 300 l 1,43,-1
 300 400 l 1,40,-1
400 400 m 1,44,-1
 500 400 l 1,45,-1
 500 300 l 1,46,-1
 400 300 l 1,47,-1
 400 400 l 1,44,-1
100 300 m 1,48,-1
 200 300 l 1,49,-1
 200 200 l 1,50,-1
 100 200 l 1,51,-1
 100 300 l 1,48,-1
200 300 m 1,52,-1
 300 300 l 1,53,-1
 300 200 l 1,54,-1
 200 200 l 1,55,-1
 200 300 l 1,52,-1
300 300 m 1,56,-1
 400 300 l 1,57,-1
 400 200 l 1,58,-1
 300 200 l 1,59,-1
 300 300 l 1,56,-1
400 300 m 1,60,-1
 500 300 l 1,61,-1
 500 200 l 1,62,-1
 400 200 l 1,63,-1
 400 300 l 1,60,-1
300 200 m 1,64,-1
 400 200 l 1,65,-1
 400 100 l 1,66,-1
 300 100 l 1,67,-1
 300 200 l 1,64,-1
400 200 m 1,68,-1
 500 200 l 1,69,-1
 500 100 l 1,70,-1
 400 100 l 1,71,-1
 400 200 l 1,68,-1
100 100 m 1,72,-1
 200 100 l 1,73,-1
 200 0 l 1,74,-1
 100 0 l 1,75,-1
 100 100 l 1,72,-1
200 100 m 1,76,-1
 300 100 l 1,77,-1
 300 0 l 1,78,-1
 200 0 l 1,79,-1
 200 100 l 1,76,-1
300 100 m 1,80,-1
 400 100 l 1,81,-1
 400 0 l 1,82,-1
 300 0 l 1,83,-1
 300 100 l 1,80,-1
EndSplineSet
Validated: 5
EndChar

StartChar: Z
Encoding: 90 90 60
Width: 600
GlyphClass: 1
Flags: W
LayerCount: 2
Fore
SplineSet
0 700 m 1,0,-1
 100 700 l 1,1,-1
 100 600 l 1,2,-1
 0 600 l 1,3,-1
 0 700 l 1,0,-1
100 700 m 1,4,-1
 200 700 l 1,5,-1
 200 600 l 1,6,-1
 100 600 l 1,7,-1
 100 700 l 1,4,-1
200 700 m 1,8,-1
 300 700 l 1,9,-1
 300 600 l 1,10,-1
 200 600 l 1,11,-1
 200 700 l 1,8,-1
300 700 m 1,12,-1
 400 700 l 1,13,-1
 400 600 l 1,14,-1
 300 600 l 1,15,-1
 300 700 l 1,12,-1
400 700 m 1,16,-1
 500 700 l 1,17,-1
 500 600 l 1,18,-1
 400 600 l 1,19,-1
 400 700 l 1,16,-1
300 600 m 1,20,-1
 400 600 l 1,21,-1
 400 500 l 1,22,-1
 300 500 l 1,23,-1
 300 600 l 1,20,-1
400 600 m 1,24,-1
 500 600 l 1,25,-1
 500 500 l 1,26,-1
 400 500 l 1,27,-1
 400 600 l 1,24,-1
300 500 m 1,28,-1
 400 500 l 1,29,-1
 400 400 l 1,30,-1
 300 400 l 1,31,-1
 300 500 l 1,28,-1
400 500 m 1,32,-1
 500 500 l 1,33,-1
 500 400 l 1,34,-1
 400 400 l 1,35,-1
 400 500 l 1,32,-1
200 400 m 1,36,-1
 300 400 l 1,37,-1
 300 300 l 1,38,-1
 200 300 l 1,39,-1
 200 400 l 1,36,-1
300 400 m 1,40,-1
 400 400 l 1,41,-1
 400 300 l 1,42,-1
 300 300 l 1,43,-1
 300 400 l 1,40,-1
400 400 m 1,44,-1
 500 400 l 1,45,-1
 500 300 l 1,46,-1
 400 300 l 1,47,-1
 400 400 l 1,44,-1
100 300 m 1,48,-1
 200 300 l 1,49,-1
 200 200 l 1,50,-1
 100 200 l 1,51,-1
 100 300 l 1,48,-1
200 300 m 1,52,-1
 300 300 l 1,53,-1
 300 200 l 1,54,-1
 200 200 l 1,55,-1
 200 300 l 1,52,-1
300 300 m 1,56,-1
 400 300 l 1,57,-1
 400 200 l 1,58,-1
 300 200 l 1,59,-1
 300 300 l 1,56,-1
0 200 m 1,60,-1
 100 200 l 1,61,-1
 100 100 l 1,62,-1
 0 100 l 1,63,-1
 0 200 l 1,60,-1
100 200 m 1,64,-1
 200 200 l 1,65,-1
 200 100 l 1,66,-1
 100 100 l 1,67,-1
 100 200 l 1,64,-1
200 200 m 1,68,-1
 300 200 l 1,69,-1
 300 100 l 1,70,-1
 200 100 l 1,71,-1
 200 200 l 1,68,-1
0 100 m 1,72,-1
 100 100 l 1,73,-1
 100 0 l 1,74,-1
 0 0 l 1,75,-1
 0 100 l 1,72,-1
100 100 m 1,76,-1
 200 100 l 1,77,-1
 200 0 l 1,78,-1
 100 0 l 1,79,-1
 100 100 l 1,76,-1
200 100 m 1,80,-1
 300 100 l 1,81,-1
 300 0 l 1,82,-1
 200 0 l 1,83,-1
 200 100 l 1,80,-1
300 100 m 1,84,-1
 400 100 l 1,85,-1
 400 0 l 1,86,-1
 300 0 l 1,87,-1
 300 100 l 1,84,-1
400 100 m 1,88,-1
 500 100 l 1,89,-1
 500 0 l 1,90,-1
 400 0 l 1,91,-1
 400 100 l 1,88,-1
EndSplineSet
Validated: 5
EndChar

StartChar: bracketleft
Encoding: 91 91 61
Width: 600
GlyphClass: 1
Flags: W
LayerCount: 2
Fore
SplineSet
0 700 m 1,0,-1
 100 700 l 1,1,-1
 100 600 l 1,2,-1
 0 600 l 1,3,-1
 0 700 l 1,0,-1
100 700 m 1,4,-1
 200 700 l 1,5,-1
 200 600 l 1,6,-1
 100 600 l 1,7,-1
 100 700 l 1,4,-1
200 700 m 1,8,-1
 300 700 l 1,9,-1
 300 600 l 1,10,-1
 200 600 l 1,11,-1
 200 700 l 1,8,-1
300 700 m 1,12,-1
 400 700 l 1,13,-1
 400 600 l 1,14,-1
 300 600 l 1,15,-1
 300 700 l 1,12,-1
0 600 m 1,16,-1
 100 600 l 1,17,-1
 100 500 l 1,18,-1
 0 500 l 1,19,-1
 0 600 l 1,16,-1
100 600 m 1,20,-1
 200 600 l 1,21,-1
 200 500 l 1,22,-1
 100 500 l 1,23,-1
 100 600 l 1,20,-1
0 500 m 1,24,-1
 100 500 l 1,25,-1
 100 400 l 1,26,-1
 0 400 l 1,27,-1
 0 500 l 1,24,-1
100 500 m 1,28,-1
 200 500 l 1,29,-1
 200 400 l 1,30,-1
 100 400 l 1,31,-1
 100 500 l 1,28,-1
0 400 m 1,32,-1
 100 400 l 1,33,-1
 100 300 l 1,34,-1
 0 300 l 1,35,-1
 0 400 l 1,32,-1
100 400 m 1,36,-1
 200 400 l 1,37,-1
 200 300 l 1,38,-1
 100 300 l 1,39,-1
 100 400 l 1,36,-1
0 300 m 1,40,-1
 100 300 l 1,41,-1
 100 200 l 1,42,-1
 0 200 l 1,43,-1
 0 300 l 1,40,-1
100 300 m 1,44,-1
 200 300 l 1,45,-1
 200 200 l 1,46,-1
 100 200 l 1,47,-1
 100 300 l 1,44,-1
0 200 m 1,48,-1
 100 200 l 1,49,-1
 100 100 l 1,50,-1
 0 100 l 1,51,-1
 0 200 l 1,48,-1
100 200 m 1,52,-1
 200 200 l 1,53,-1
 200 100 l 1,54,-1
 100 100 l 1,55,-1
 100 200 l 1,52,-1
0 100 m 1,56,-1
 100 100 l 1,57,-1
 100 0 l 1,58,-1
 0 0 l 1,59,-1
 0 100 l 1,56,-1
100 100 m 1,60,-1
 200 100 l 1,61,-1
 200 0 l 1,62,-1
 100 0 l 1,63,-1
 100 100 l 1,60,-1
200 100 m 1,64,-1
 300 100 l 1,65,-1
 300 0 l 1,66,-1
 200 0 l 1,67,-1
 200 100 l 1,64,-1
300 100 m 1,68,-1
 400 100 l 1,69,-1
 400 0 l 1,70,-1
 300 0 l 1,71,-1
 300 100 l 1,68,-1
EndSplineSet
Validated: 5
EndChar

StartChar: backslash
Encoding: 92 92 62
Width: 600
GlyphClass: 1
Flags: W
LayerCount: 2
Fore
SplineSet
100 700 m 1,0,-1
 200 700 l 1,1,-1
 200 600 l 1,2,-1
 100 600 l 1,3,-1
 100 700 l 1,0,-1
100 600 m 1,4,-1
 200 600 l 1,5,-1
 200 500 l 1,6,-1
 100 500 l 1,7,-1
 100 600 l 1,4,-1
200 500 m 1,8,-1
 300 500 l 1,9,-1
 300 400 l 1,10,-1
 200 400 l 1,11,-1
 200 500 l 1,8,-1
200 400 m 1,12,-1
 300 400 l 1,13,-1
 300 300 l 1,14,-1
 200 300 l 1,15,-1
 200 400 l 1,12,-1
200 300 m 1,16,-1
 300 300 l 1,17,-1
 300 200 l 1,18,-1
 200 200 l 1,19,-1
 200 300 l 1,16,-1
300 200 m 1,20,-1
 400 200 l 1,21,-1
 400 100 l 1,22,-1
 300 100 l 1,23,-1
 300 200 l 1,20,-1
300 100 m 1,24,-1
 400 100 l 1,25,-1
 400 0 l 1,26,-1
 300 0 l 1,27,-1
 300 100 l 1,24,-1
EndSplineSet
Validated: 5
EndChar

StartChar: bracketright
Encoding: 93 93 63
Width: 600
GlyphClass: 1
Flags: W
LayerCount: 2
Fore
SplineSet
100 700 m 1,0,-1
 200 700 l 1,1,-1
 200 600 l 1,2,-1
 100 600 l 1,3,-1
 100 700 l 1,0,-1
200 700 m 1,4,-1
 300 700 l 1,5,-1
 300 600 l 1,6,-1
 200 600 l 1,7,-1
 200 700 l 1,4,-1
300 700 m 1,8,-1
 400 700 l 1,9,-1
 400 600 l 1,10,-1
 300 600 l 1,11,-1
 300 700 l 1,8,-1
400 700 m 1,12,-1
 500 700 l 1,13,-1
 500 600 l 1,14,-1
 400 600 l 1,15,-1
 400 700 l 1,12,-1
300 600 m 1,16,-1
 400 600 l 1,17,-1
 400 500 l 1,18,-1
 300 500 l 1,19,-1
 300 600 l 1,16,-1
400 600 m 1,20,-1
 500 600 l 1,21,-1
 500 500 l 1,22,-1
 400 500 l 1,23,-1
 400 600 l 1,20,-1
300 500 m 1,24,-1
 400 500 l 1,25,-1
 400 400 l 1,26,-1
 300 400 l 1,27,-1
 300 500 l 1,24,-1
400 500 m 1,28,-1
 500 500 l 1,29,-1
 500 400 l 1,30,-1
 400 400 l 1,31,-1
 400 500 l 1,28,-1
300 400 m 1,32,-1
 400 400 l 1,33,-1
 400 300 l 1,34,-1
 300 300 l 1,35,-1
 300 400 l 1,32,-1
400 400 m 1,36,-1
 500 400 l 1,37,-1
 500 300 l 1,38,-1
 400 300 l 1,39,-1
 400 400 l 1,36,-1
300 300 m 1,40,-1
 400 300 l 1,41,-1
 400 200 l 1,42,-1
 300 200 l 1,43,-1
 300 300 l 1,40,-1
400 300 m 1,44,-1
 500 300 l 1,45,-1
 500 200 l 1,46,-1
 400 200 l 1,47,-1
 400 300 l 1,44,-1
300 200 m 1,48,-1
 400 200 l 1,49,-1
 400 100 l 1,50,-1
 300 100 l 1,51,-1
 300 200 l 1,48,-1
400 200 m 1,52,-1
 500 200 l 1,53,-1
 500 100 l 1,54,-1
 400 100 l 1,55,-1
 400 200 l 1,52,-1
100 100 m 1,56,-1
 200 100 l 1,57,-1
 200 0 l 1,58,-1
 100 0 l 1,59,-1
 100 100 l 1,56,-1
200 100 m 1,60,-1
 300 100 l 1,61,-1
 300 0 l 1,62,-1
 200 0 l 1,63,-1
 200 100 l 1,60,-1
300 100 m 1,64,-1
 400 100 l 1,65,-1
 400 0 l 1,66,-1
 300 0 l 1,67,-1
 300 100 l 1,64,-1
400 100 m 1,68,-1
 500 100 l 1,69,-1
 500 0 l 1,70,-1
 400 0 l 1,71,-1
 400 100 l 1,68,-1
EndSplineSet
Validated: 5
EndChar

StartChar: asciicircum
Encoding: 94 94 64
Width: 600
GlyphClass: 1
Flags: W
LayerCount: 2
Fore
SplineSet
200 700 m 1,0,-1
 300 700 l 1,1,-1
 300 600 l 1,2,-1
 200 600 l 1,3,-1
 200 700 l 1,0,-1
100 600 m 1,4,-1
 200 600 l 1,5,-1
 200 500 l 1,6,-1
 100 500 l 1,7,-1
 100 600 l 1,4,-1
300 600 m 1,8,-1
 400 600 l 1,9,-1
 400 500 l 1,10,-1
 300 500 l 1,11,-1
 300 600 l 1,8,-1
EndSplineSet
Validated: 5
EndChar

StartChar: underscore
Encoding: 95 95 65
Width: 600
GlyphClass: 1
Flags: W
LayerCount: 2
Fore
SplineSet
0 100 m 1,0,-1
 100 100 l 1,1,-1
 100 0 l 1,2,-1
 0 0 l 1,3,-1
 0 100 l 1,0,-1
100 100 m 1,4,-1
 200 100 l 1,5,-1
 200 0 l 1,6,-1
 100 0 l 1,7,-1
 100 100 l 1,4,-1
200 100 m 1,8,-1
 300 100 l 1,9,-1
 300 0 l 1,10,-1
 200 0 l 1,11,-1
 200 100 l 1,8,-1
300 100 m 1,12,-1
 400 100 l 1,13,-1
 400 0 l 1,14,-1
 300 0 l 1,15,-1
 300 100 l 1,12,-1
400 100 m 1,16,-1
 500 100 l 1,17,-1
 500 0 l 1,18,-1
 400 0 l 1,19,-1
 400 100 l 1,16,-1
EndSplineSet
Validated: 5
EndChar

StartChar: grave
Encoding: 96 96 66
Width: 600
GlyphClass: 1
Flags: W
LayerCount: 2
Fore
SplineSet
300 700 m 1,0,-1
 400 700 l 1,1,-1
 400 600 l 1,2,-1
 300 600 l 1,3,-1
 300 700 l 1,0,-1
400 600 m 1,4,-1
 500 600 l 1,5,-1
 500 500 l 1,6,-1
 400 500 l 1,7,-1
 400 600 l 1,4,-1
EndSplineSet
Validated: 5
EndChar

StartChar: a
Encoding: 97 97 67
Width: 600
GlyphClass: 1
Flags: W
LayerCount: 2
Fore
SplineSet
100 500 m 1,0,-1
 200 500 l 1,1,-1
 200 400 l 1,2,-1
 100 400 l 1,3,-1
 100 500 l 1,0,-1
200 500 m 1,4,-1
 300 500 l 1,5,-1
 300 400 l 1,6,-1
 200 400 l 1,7,-1
 200 500 l 1,4,-1
300 500 m 1,8,-1
 400 500 l 1,9,-1
 400 400 l 1,10,-1
 300 400 l 1,11,-1
 300 500 l 1,8,-1
300 400 m 1,12,-1
 400 400 l 1,13,-1
 400 300 l 1,14,-1
 300 300 l 1,15,-1
 300 400 l 1,12,-1
400 400 m 1,16,-1
 500 400 l 1,17,-1
 500 300 l 1,18,-1
 400 300 l 1,19,-1
 400 400 l 1,16,-1
100 300 m 1,20,-1
 200 300 l 1,21,-1
 200 200 l 1,22,-1
 100 200 l 1,23,-1
 100 300 l 1,20,-1
200 300 m 1,24,-1
 300 300 l 1,25,-1
 300 200 l 1,26,-1
 200 200 l 1,27,-1
 200 300 l 1,24,-1
300 300 m 1,28,-1
 400 300 l 1,29,-1
 400 200 l 1,30,-1
 300 200 l 1,31,-1
 300 300 l 1,28,-1
400 300 m 1,32,-1
 500 300 l 1,33,-1
 500 200 l 1,34,-1
 400 200 l 1,35,-1
 400 300 l 1,32,-1
0 200 m 1,36,-1
 100 200 l 1,37,-1
 100 100 l 1,38,-1
 0 100 l 1,39,-1
 0 200 l 1,36,-1
300 200 m 1,40,-1
 400 200 l 1,41,-1
 400 100 l 1,42,-1
 300 100 l 1,43,-1
 300 200 l 1,40,-1
400 200 m 1,44,-1
 500 200 l 1,45,-1
 500 100 l 1,46,-1
 400 100 l 1,47,-1
 400 200 l 1,44,-1
100 100 m 1,48,-1
 200 100 l 1,49,-1
 200 0 l 1,50,-1
 100 0 l 1,51,-1
 100 100 l 1,48,-1
200 100 m 1,52,-1
 300 100 l 1,53,-1
 300 0 l 1,54,-1
 200 0 l 1,55,-1
 200 100 l 1,52,-1
300 100 m 1,56,-1
 400 100 l 1,57,-1
 400 0 l 1,58,-1
 300 0 l 1,59,-1
 300 100 l 1,56,-1
400 100 m 1,60,-1
 500 100 l 1,61,-1
 500 0 l 1,62,-1
 400 0 l 1,63,-1
 400 100 l 1,60,-1
EndSplineSet
Validated: 5
EndChar

StartChar: b
Encoding: 98 98 68
Width: 600
GlyphClass: 1
Flags: W
LayerCount: 2
Fore
SplineSet
0 700 m 1,0,-1
 100 700 l 1,1,-1
 100 600 l 1,2,-1
 0 600 l 1,3,-1
 0 700 l 1,0,-1
100 700 m 1,4,-1
 200 700 l 1,5,-1
 200 600 l 1,6,-1
 100 600 l 1,7,-1
 100 700 l 1,4,-1
0 600 m 1,8,-1
 100 600 l 1,9,-1
 100 500 l 1,10,-1
 0 500 l 1,11,-1
 0 600 l 1,8,-1
100 600 m 1,12,-1
 200 600 l 1,13,-1
 200 500 l 1,14,-1
 100 500 l 1,15,-1
 100 600 l 1,12,-1
0 500 m 1,16,-1
 100 500 l 1,17,-1
 100 400 l 1,18,-1
 0 400 l 1,19,-1
 0 500 l 1,16,-1
100 500 m 1,20,-1
 200 500 l 1,21,-1
 200 400 l 1,22,-1
 100 400 l 1,23,-1
 100 500 l 1,20,-1
200 500 m 1,24,-1
 300 500 l 1,25,-1
 300 400 l 1,26,-1
 200 400 l 1,27,-1
 200 500 l 1,24,-1
300 500 m 1,28,-1
 400 500 l 1,29,-1
 400 400 l 1,30,-1
 300 400 l 1,31,-1
 300 500 l 1,28,-1
0 400 m 1,32,-1
 100 400 l 1,33,-1
 100 300 l 1,34,-1
 0 300 l 1,35,-1
 0 400 l 1,32,-1
100 400 m 1,36,-1
 200 400 l 1,37,-1
 200 300 l 1,38,-1
 100 300 l 1,39,-1
 100 400 l 1,36,-1
400 400 m 1,40,-1
 500 400 l 1,41,-1
 500 300 l 1,42,-1
 400 300 l 1,43,-1
 400 400 l 1,40,-1
0 300 m 1,44,-1
 100 300 l 1,45,-1
 100 200 l 1,46,-1
 0 200 l 1,47,-1
 0 300 l 1,44,-1
100 300 m 1,48,-1
 200 300 l 1,49,-1
 200 200 l 1,50,-1
 100 200 l 1,51,-1
 100 300 l 1,48,-1
400 300 m 1,52,-1
 500 300 l 1,53,-1
 500 200 l 1,54,-1
 400 200 l 1,55,-1
 400 300 l 1,52,-1
0 200 m 1,56,-1
 100 200 l 1,57,-1
 100 100 l 1,58,-1
 0 100 l 1,59,-1
 0 200 l 1,56,-1
100 200 m 1,60,-1
 200 200 l 1,61,-1
 200 100 l 1,62,-1
 100 100 l 1,63,-1
 100 200 l 1,60,-1
400 200 m 1,64,-1
 500 200 l 1,65,-1
 500 100 l 1,66,-1
 400 100 l 1,67,-1
 400 200 l 1,64,-1
0 100 m 1,68,-1
 100 100 l 1,69,-1
 100 0 l 1,70,-1
 0 0 l 1,71,-1
 0 100 l 1,68,-1
200 100 m 1,72,-1
 300 100 l 1,73,-1
 300 0 l 1,74,-1
 200 0 l 1,75,-1
 200 100 l 1,72,-1
300 100 m 1,76,-1
 400 100 l 1,77,-1
 400 0 l 1,78,-1
 300 0 l 1,79,-1
 300 100 l 1,76,-1
EndSplineSet
Validated: 5
EndChar

StartChar: c
Encoding: 99 99 69
Width: 600
GlyphClass: 1
Flags: W
LayerCount: 2
Fore
SplineSet
100 500 m 1,0,-1
 200 500 l 1,1,-1
 200 400 l 1,2,-1
 100 400 l 1,3,-1
 100 500 l 1,0,-1
200 500 m 1,4,-1
 300 500 l 1,5,-1
 300 400 l 1,6,-1
 200 400 l 1,7,-1
 200 500 l 1,4,-1
300 500 m 1,8,-1
 400 500 l 1,9,-1
 400 400 l 1,10,-1
 300 400 l 1,11,-1
 300 500 l 1,8,-1
0 400 m 1,12,-1
 100 400 l 1,13,-1
 100 300 l 1,14,-1
 0 300 l 1,15,-1
 0 400 l 1,12,-1
100 400 m 1,16,-1
 200 400 l 1,17,-1
 200 300 l 1,18,-1
 100 300 l 1,19,-1
 100 400 l 1,16,-1
400 400 m 1,20,-1
 500 400 l 1,21,-1
 500 300 l 1,22,-1
 400 300 l 1,23,-1
 400 400 l 1,20,-1
0 300 m 1,24,-1
 100 300 l 1,25,-1
 100 200 l 1,26,-1
 0 200 l 1,27,-1
 0 300 l 1,24,-1
100 300 m 1,28,-1
 200 300 l 1,29,-1
 200 200 l 1,30,-1
 100 200 l 1,31,-1
 100 300 l 1,28,-1
0 200 m 1,32,-1
 100 200 l 1,33,-1
 100 100 l 1,34,-1
 0 100 l 1,35,-1
 0 200 l 1,32,-1
100 200 m 1,36,-1
 200 200 l 1,37,-1
 200 100 l 1,38,-1
 100 100 l 1,39,-1
 100 200 l 1,36,-1
400 200 m 1,40,-1
 500 200 l 1,41,-1
 500 100 l 1,42,-1
 400 100 l 1,43,-1
 400 200 l 1,40,-1
100 100 m 1,44,-1
 200 100 l 1,45,-1
 200 0 l 1,46,-1
 100 0 l 1,47,-1
 100 100 l 1,44,-1
200 100 m 1,48,-1
 300 100 l 1,49,-1
 300 0 l 1,50,-1
 200 0 l 1,51,-1
 200 100 l 1,48,-1
300 100 m 1,52,-1
 400 100 l 1,53,-1
 400 0 l 1,54,-1
 300 0 l 1,55,-1
 300 100 l 1,52,-1
EndSplineSet
Validated: 5
EndChar

StartChar: d
Encoding: 100 100 70
Width: 600
GlyphClass: 1
Flags: W
LayerCount: 2
Fore
SplineSet
300 700 m 1,0,-1
 400 700 l 1,1,-1
 400 600 l 1,2,-1
 300 600 l 1,3,-1
 300 700 l 1,0,-1
400 700 m 1,4,-1
 500 700 l 1,5,-1
 500 600 l 1,6,-1
 400 600 l 1,7,-1
 400 700 l 1,4,-1
300 600 m 1,8,-1
 400 600 l 1,9,-1
 400 500 l 1,10,-1
 300 500 l 1,11,-1
 300 600 l 1,8,-1
400 600 m 1,12,-1
 500 600 l 1,13,-1
 500 500 l 1,14,-1
 400 500 l 1,15,-1
 400 600 l 1,12,-1
100 500 m 1,16,-1
 200 500 l 1,17,-1
 200 400 l 1,18,-1
 100 400 l 1,19,-1
 100 500 l 1,16,-1
200 500 m 1,20,-1
 300 500 l 1,21,-1
 300 400 l 1,22,-1
 200 400 l 1,23,-1
 200 500 l 1,20,-1
300 500 m 1,24,-1
 400 500 l 1,25,-1
 400 400 l 1,26,-1
 300 400 l 1,27,-1
 300 500 l 1,24,-1
400 500 m 1,28,-1
 500 500 l 1,29,-1
 500 400 l 1,30,-1
 400 400 l 1,31,-1
 400 500 l 1,28,-1
0 400 m 1,32,-1
 100 400 l 1,33,-1
 100 300 l 1,34,-1
 0 300 l 1,35,-1
 0 400 l 1,32,-1
300 400 m 1,36,-1
 400 400 l 1,37,-1
 400 300 l 1,38,-1
 300 300 l 1,39,-1
 300 400 l 1,36,-1
400 400 m 1,40,-1
 500 400 l 1,41,-1
 500 300 l 1,42,-1
 400 300 l 1,43,-1
 400 400 l 1,40,-1
0 300 m 1,44,-1
 100 300 l 1,45,-1
 100 200 l 1,46,-1
 0 200 l 1,47,-1
 0 300 l 1,44,-1
300 300 m 1,48,-1
 400 300 l 1,49,-1
 400 200 l 1,50,-1
 300 200 l 1,51,-1
 300 300 l 1,48,-1
400 300 m 1,52,-1
 500 300 l 1,53,-1
 500 200 l 1,54,-1
 400 200 l 1,55,-1
 400 300 l 1,52,-1
0 200 m 1,56,-1
 100 200 l 1,57,-1
 100 100 l 1,58,-1
 0 100 l 1,59,-1
 0 200 l 1,56,-1
300 200 m 1,60,-1
 400 200 l 1,61,-1
 400 100 l 1,62,-1
 300 100 l 1,63,-1
 300 200 l 1,60,-1
400 200 m 1,64,-1
 500 200 l 1,65,-1
 500 100 l 1,66,-1
 400 100 l 1,67,-1
 400 200 l 1,64,-1
100 100 m 1,68,-1
 200 100 l 1,69,-1
 200 0 l 1,70,-1
 100 0 l 1,71,-1
 100 100 l 1,68,-1
200 100 m 1,72,-1
 300 100 l 1,73,-1
 300 0 l 1,74,-1
 200 0 l 1,75,-1
 200 100 l 1,72,-1
400 100 m 1,76,-1
 500 100 l 1,77,-1
 500 0 l 1,78,-1
 400 0 l 1,79,-1
 400 100 l 1,76,-1
EndSplineSet
Validated: 5
EndChar

StartChar: e
Encoding: 101 101 71
Width: 600
GlyphClass: 1
Flags: W
LayerCount: 2
Fore
SplineSet
100 500 m 1,0,-1
 200 500 l 1,1,-1
 200 400 l 1,2,-1
 100 400 l 1,3,-1
 100 500 l 1,0,-1
200 500 m 1,4,-1
 300 500 l 1,5,-1
 300 400 l 1,6,-1
 200 400 l 1,7,-1
 200 500 l 1,4,-1
300 500 m 1,8,-1
 400 500 l 1,9,-1
 400 400 l 1,10,-1
 300 400 l 1,11,-1
 300 500 l 1,8,-1
0 400 m 1,12,-1
 100 400 l 1,13,-1
 100 300 l 1,14,-1
 0 300 l 1,15,-1
 0 400 l 1,12,-1
100 400 m 1,16,-1
 200 400 l 1,17,-1
 200 300 l 1,18,-1
 100 300 l 1,19,-1
 100 400 l 1,16,-1
400 400 m 1,20,-1
 500 400 l 1,21,-1
 500 300 l 1,22,-1
 400 300 l 1,23,-1
 400 400 l 1,20,-1
0 300 m 1,24,-1
 100 300 l 1,25,-1
 100 200 l 1,26,-1
 0 200 l 1,27,-1
 0 300 l 1,24,-1
100 300 m 1,28,-1
 200 300 l 1,29,-1
 200 200 l 1,30,-1
 100 200 l 1,31,-1
 100 300 l 1,28,-1
200 300 m 1,32,-1
 300 300 l 1,33,-1
 300 200 l 1,34,-1
 200 200 l 1,35,-1
 200 300 l 1,32,-1
300 300 m 1,36,-1
 400 300 l 1,37,-1
 400 200 l 1,38,-1
 300 200 l 1,39,-1
 300 300 l 1,36,-1
400 300 m 1,40,-1
 500 300 l 1,41,-1
 500 200 l 1,42,-1
 400 200 l 1,43,-1
 400 300 l 1,40,-1
0 200 m 1,44,-1
 100 200 l 1,45,-1
 100 100 l 1,46,-1
 0 100 l 1,47,-1
 0 200 l 1,44,-1
100 200 m 1,48,-1
 200 200 l 1,49,-1
 200 100 l 1,50,-1
 100 100 l 1,51,-1
 100 200 l 1,48,-1
100 100 m 1,52,-1
 200 100 l 1,53,-1
 200 0 l 1,54,-1
 100 0 l 1,55,-1
 100 100 l 1,52,-1
200 100 m 1,56,-1
 300 100 l 1,57,-1
 300 0 l 1,58,-1
 200 0 l 1,59,-1
 200 100 l 1,56,-1
300 100 m 1,60,-1
 400 100 l 1,61,-1
 400 0 l 1,62,-1
 300 0 l 1,63,-1
 300 100 l 1,60,-1
EndSplineSet
Validated: 5
EndChar

StartChar: f
Encoding: 102 102 72
Width: 600
GlyphClass: 1
Flags: W
LayerCount: 2
Fore
SplineSet
100 700 m 1,0,-1
 200 700 l 1,1,-1
 200 600 l 1,2,-1
 100 600 l 1,3,-1
 100 700 l 1,0,-1
200 700 m 1,4,-1
 300 700 l 1,5,-1
 300 600 l 1,6,-1
 200 600 l 1,7,-1
 200 700 l 1,4,-1
300 700 m 1,8,-1
 400 700 l 1,9,-1
 400 600 l 1,10,-1
 300 600 l 1,11,-1
 300 700 l 1,8,-1
0 600 m 1,12,-1
 100 600 l 1,13,-1
 100 500 l 1,14,-1
 0 500 l 1,15,-1
 0 600 l 1,12,-1
100 600 m 1,16,-1
 200 600 l 1,17,-1
 200 500 l 1,18,-1
 100 500 l 1,19,-1
 100 600 l 1,16,-1
400 600 m 1,20,-1
 500 600 l 1,21,-1
 500 500 l 1,22,-1
 400 500 l 1,23,-1
 400 600 l 1,20,-1
0 500 m 1,24,-1
 100 500 l 1,25,-1
 100 400 l 1,26,-1
 0 400 l 1,27,-1
 0 500 l 1,24,-1
100 500 m 1,28,-1
 200 500 l 1,29,-1
 200 400 l 1,30,-1
 100 400 l 1,31,-1
 100 500 l 1,28,-1
0 400 m 1,32,-1
 100 400 l 1,33,-1
 100 300 l 1,34,-1
 0 300 l 1,35,-1
 0 400 l 1,32,-1
100 400 m 1,36,-1
 200 400 l 1,37,-1
 200 300 l 1,38,-1
 100 300 l 1,39,-1
 100 400 l 1,36,-1
200 400 m 1,40,-1
 300 400 l 1,41,-1
 300 300 l 1,42,-1
 200 300 l 1,43,-1
 200 400 l 1,40,-1
300 400 m 1,44,-1
 400 400 l 1,45,-1
 400 300 l 1,46,-1
 300 300 l 1,47,-1
 300 400 l 1,44,-1
0 300 m 1,48,-1
 100 300 l 1,49,-1
 100 200 l 1,50,-1
 0 200 l 1,51,-1
 0 300 l 1,48,-1
100 300 m 1,52,-1
 200 300 l 1,53,-1
 200 200 l 1,54,-1
 100 200 l 1,55,-1
 100 300 l 1,52,-1
0 200 m 1,56,-1
 100 200 l 1,57,-1
 100 100 l 1,58,-1
 0 100 l 1,59,-1
 0 200 l 1,56,-1
100 200 m 1,60,-1
 200 200 l 1,61,-1
 200 100 l 1,62,-1
 100 100 l 1,63,-1
 100 200 l 1,60,-1
0 100 m 1,64,-1
 100 100 l 1,65,-1
 100 0 l 1,66,-1
 0 0 l 1,67,-1
 0 100 l 1,64,-1
100 100 m 1,68,-1
 200 100 l 1,69,-1
 200 0 l 1,70,-1
 100 0 l 1,71,-1
 100 100 l 1,68,-1
EndSplineSet
Validated: 5
EndChar

StartChar: g
Encoding: 103 103 73
Width: 600
GlyphClass: 1
Flags: W
LayerCount: 2
Fore
SplineSet
100 500 m 1,0,-1
 200 500 l 1,1,-1
 200 400 l 1,2,-1
 100 400 l 1,3,-1
 100 500 l 1,0,-1
200 500 m 1,4,-1
 300 500 l 1,5,-1
 300 400 l 1,6,-1
 200 400 l 1,7,-1
 200 500 l 1,4,-1
300 500 m 1,8,-1
 400 500 l 1,9,-1
 400 400 l 1,10,-1
 300 400 l 1,11,-1
 300 500 l 1,8,-1
0 400 m 1,12,-1
 100 400 l 1,13,-1
 100 300 l 1,14,-1
 0 300 l 1,15,-1
 0 400 l 1,12,-1
300 400 m 1,16,-1
 400 400 l 1,17,-1
 400 300 l 1,18,-1
 300 300 l 1,19,-1
 300 400 l 1,16,-1
400 400 m 1,20,-1
 500 400 l 1,21,-1
 500 300 l 1,22,-1
 400 300 l 1,23,-1
 400 400 l 1,20,-1
0 300 m 1,24,-1
 100 300 l 1,25,-1
 100 200 l 1,26,-1
 0 200 l 1,27,-1
 0 300 l 1,24,-1
300 300 m 1,28,-1
 400 300 l 1,29,-1
 400 200 l 1,30,-1
 300 200 l 1,31,-1
 300 300 l 1,28,-1
400 300 m 1,32,-1
 500 300 l 1,33,-1
 500 200 l 1,34,-1
 400 200 l 1,35,-1
 400 300 l 1,32,-1
0 200 m 1,36,-1
 100 200 l 1,37,-1
 100 100 l 1,38,-1
 0 100 l 1,39,-1
 0 200 l 1,36,-1
300 200 m 1,40,-1
 400 200 l 1,41,-1
 400 100 l 1,42,-1
 300 100 l 1,43,-1
 300 200 l 1,40,-1
400 200 m 1,44,-1
 500 200 l 1,45,-1
 500 100 l 1,46,-1
 400 100 l 1,47,-1
 400 200 l 1,44,-1
100 100 m 1,48,-1
 200 100 l 1,49,-1
 200 0 l 1,50,-1
 100 0 l 1,51,-1
 100 100 l 1,48,-1
200 100 m 1,52,-1
 300 100 l 1,53,-1
 300 0 l 1,54,-1
 200 0 l 1,55,-1
 200 100 l 1,52,-1
300 100 m 1,56,-1
 400 100 l 1,57,-1
 400 0 l 1,58,-1
 300 0 l 1,59,-1
 300 100 l 1,56,-1
400 100 m 1,60,-1
 500 100 l 1,61,-1
 500 0 l 1,62,-1
 400 0 l 1,63,-1
 400 100 l 1,60,-1
300 0 m 1,64,-1
 400 0 l 1,65,-1
 400 -100 l 1,66,-1
 300 -100 l 1,67,-1
 300 0 l 1,64,-1
400 0 m 1,68,-1
 500 0 l 1,69,-1
 500 -100 l 1,70,-1
 400 -100 l 1,71,-1
 400 0 l 1,68,-1
100 -100 m 1,72,-1
 200 -100 l 1,73,-1
 200 -200 l 1,74,-1
 100 -200 l 1,75,-1
 100 -100 l 1,72,-1
200 -100 m 1,76,-1
 300 -100 l 1,77,-1
 300 -200 l 1,78,-1
 200 -200 l 1,79,-1
 200 -100 l 1,76,-1
300 -100 m 1,80,-1
 400 -100 l 1,81,-1
 400 -200 l 1,82,-1
 300 -200 l 1,83,-1
 300 -100 l 1,80,-1
EndSplineSet
Validated: 5
EndChar

StartChar: h
Encoding: 104 104 74
Width: 600
GlyphClass: 1
Flags: W
LayerCount: 2
Fore
SplineSet
0 700 m 1,0,-1
 100 700 l 1,1,-1
 100 600 l 1,2,-1
 0 600 l 1,3,-1
 0 700 l 1,0,-1
100 700 m 1,4,-1
 200 700 l 1,5,-1
 200 600 l 1,6,-1
 100 600 l 1,7,-1
 100 700 l 1,4,-1
0 600 m 1,8,-1
 100 600 l 1,9,-1
 100 500 l 1,10,-1
 0 500 l 1,11,-1
 0 600 l 1,8,-1
100 600 m 1,12,-1
 200 600 l 1,13,-1
 200 500 l 1,14,-1
 100 500 l 1,15,-1
 100 600 l 1,12,-1
0 500 m 1,16,-1
 100 500 l 1,17,-1
 100 400 l 1,18,-1
 0 400 l 1,19,-1
 0 500 l 1,16,-1
100 500 m 1,20,-1
 200 500 l 1,21,-1
 200 400 l 1,22,-1
 100 400 l 1,23,-1
 100 500 l 1,20,-1
200 500 m 1,24,-1
 300 500 l 1,25,-1
 300 400 l 1,26,-1
 200 400 l 1,27,-1
 200 500 l 1,24,-1
300 500 m 1,28,-1
 400 500 l 1,29,-1
 400 400 l 1,30,-1
 300 400 l 1,31,-1
 300 500 l 1,28,-1
0 400 m 1,32,-1
 100 400 l 1,33,-1
 100 300 l 1,34,-1
 0 300 l 1,35,-1
 0 400 l 1,32,-1
100 400 m 1,36,-1
 200 400 l 1,37,-1
 200 300 l 1,38,-1
 100 300 l 1,39,-1
 100 400 l 1,36,-1
400 400 m 1,40,-1
 500 400 l 1,41,-1
 500 300 l 1,42,-1
 400 300 l 1,43,-1
 400 400 l 1,40,-1
0 300 m 1,44,-1
 100 300 l 1,45,-1
 100 200 l 1,46,-1
 0 200 l 1,47,-1
 0 300 l 1,44,-1
100 300 m 1,48,-1
 200 300 l 1,49,-1
 200 200 l 1,50,-1
 100 200 l 1,51,-1
 100 300 l 1,48,-1
400 300 m 1,52,-1
 500 300 l 1,53,-1
 500 200 l 1,54,-1
 400 200 l 1,55,-1
 400 300 l 1,52,-1
0 200 m 1,56,-1
 100 200 l 1,57,-1
 100 100 l 1,58,-1
 0 100 l 1,59,-1
 0 200 l 1,56,-1
100 200 m 1,60,-1
 200 200 l 1,61,-1
 200 100 l 1,62,-1
 100 100 l 1,63,-1
 100 200 l 1,60,-1
400 200 m 1,64,-1
 500 200 l 1,65,-1
 500 100 l 1,66,-1
 400 100 l 1,67,-1
 400 200 l 1,64,-1
0 100 m 1,68,-1
 100 100 l 1,69,-1
 100 0 l 1,70,-1
 0 0 l 1,71,-1
 0 100 l 1,68,-1
100 100 m 1,72,-1
 200 100 l 1,73,-1
 200 0 l 1,74,-1
 100 0 l 1,75,-1
 100 100 l 1,72,-1
400 100 m 1,76,-1
 500 100 l 1,77,-1
 500 0 l 1,78,-1
 400 0 l 1,79,-1
 400 100 l 1,76,-1
EndSplineSet
Validated: 5
EndChar

StartChar: i
Encoding: 105 105 75
Width: 600
GlyphClass: 1
Flags: W
LayerCount: 2
Fore
SplineSet
200 700 m 1,0,-1
 300 700 l 1,1,-1
 300 600 l 1,2,-1
 200 600 l 1,3,-1
 200 700 l 1,0,-1
300 700 m 1,4,-1
 400 700 l 1,5,-1
 400 600 l 1,6,-1
 300 600 l 1,7,-1
 300 700 l 1,4,-1
100 500 m 1,8,-1
 200 500 l 1,9,-1
 200 400 l 1,10,-1
 100 400 l 1,11,-1
 100 500 l 1,8,-1
200 500 m 1,12,-1
 300 500 l 1,13,-1
 300 400 l 1,14,-1
 200 400 l 1,15,-1
 200 500 l 1,12,-1
300 500 m 1,16,-1
 400 500 l 1,17,-1
 400 400 l 1,18,-1
 300 400 l 1,19,-1
 300 500 l 1,16,-1
200 400 m 1,20,-1
 300 400 l 1,21,-1
 300 300 l 1,22,-1
 200 300 l 1,23,-1
 200 400 l 1,20,-1
300 400 m 1,24,-1
 400 400 l 1,25,-1
 400 300 l 1,26,-1
 300 300 l 1,27,-1
 300 400 l 1,24,-1
200 300 m 1,28,-1
 300 300 l 1,29,-1
 300 200 l 1,30,-1
 200 200 l 1,31,-1
 200 300 l 1,28,-1
300 300 m 1,32,-1
 400 300 l 1,33,-1
 400 200 l 1,34,-1
 300 200 l 1,35,-1
 300 300 l 1,32,-1
200 200 m 1,36,-1
 300 200 l 1,37,-1
 300 100 l 1,38,-1
 200 100 l 1,39,-1
 200 200 l 1,36,-1
300 200 m 1,40,-1
 400 200 l 1,41,-1
 400 100 l 1,42,-1
 300 100 l 1,43,-1
 300 200 l 1,40,-1
100 100 m 1,44,-1
 200 100 l 1,45,-1
 200 0 l 1,46,-1
 100 0 l 1,47,-1
 100 100 l 1,44,-1
200 100 m 1,48,-1
 300 100 l 1,49,-1
 300 0 l 1,50,-1
 200 0 l 1,51,-1
 200 100 l 1,48,-1
300 100 m 1,52,-1
 400 100 l 1,53,-1
 400 0 l 1,54,-1
 300 0 l 1,55,-1
 300 100 l 1,52,-1
400 100 m 1,56,-1
 500 100 l 1,57,-1
 500 0 l 1,58,-1
 400 0 l 1,59,-1
 400 100 l 1,56,-1
EndSplineSet
Validated: 5
EndChar

StartChar: j
Encoding: 106 106 76
Width: 600
GlyphClass: 1
Flags: W
LayerCount: 2
Fore
SplineSet
300 700 m 1,0,-1
 400 700 l 1,1,-1
 400 600 l 1,2,-1
 300 600 l 1,3,-1
 300 700 l 1,0,-1
400 700 m 1,4,-1
 500 700 l 1,5,-1
 500 600 l 1,6,-1
 400 600 l 1,7,-1
 400 700 l 1,4,-1
200 500 m 1,8,-1
 300 500 l 1,9,-1
 300 400 l 1,10,-1
 200 400 l 1,11,-1
 200 500 l 1,8,-1
300 500 m 1,12,-1
 400 500 l 1,13,-1
 400 400 l 1,14,-1
 300 400 l 1,15,-1
 300 500 l 1,12,-1
400 500 m 1,16,-1
 500 500 l 1,17,-1
 500 400 l 1,18,-1
 400 400 l 1,19,-1
 400 500 l 1,16,-1
300 400 m 1,20,-1
 400 400 l 1,21,-1
 400 300 l 1,22,-1
 300 300 l 1,23,-1
 300 400 l 1,20,-1
400 400 m 1,24,-1
 500 400 l 1,25,-1
 500 300 l 1,26,-1
 400 300 l 1,27,-1
 400 400 l 1,24,-1
300 300 m 1,28,-1
 400 300 l 1,29,-1
 400 200 l 1,30,-1
 300 200 l 1,31,-1
 300 300 l 1,28,-1
400 300 m 1,32,-1
 500 300 l 1,33,-1
 500 200 l 1,34,-1
 400 200 l 1,35,-1
 400 300 l 1,32,-1
300 200 m 1,36,-1
 400 200 l 1,37,-1
 400 100 l 1,38,-1
 300 100 l 1,39,-1
 300 200 l 1,36,-1
400 200 m 1,40,-1
 500 200 l 1,41,-1
 500 100 l 1,42,-1
 400 100 l 1,43,-1
 400 200 l 1,40,-1
0 100 m 1,44,-1
 100 100 l 1,45,-1
 100 0 l 1,46,-1
 0 0 l 1,47,-1
 0 100 l 1,44,-1
300 100 m 1,48,-1
 400 100 l 1,49,-1
 400 0 l 1,50,-1
 300 0 l 1,51,-1
 300 100 l 1,48,-1
400 100 m 1,52,-1
 500 100 l 1,53,-1
 500 0 l 1,54,-1
 400 0 l 1,55,-1
 400 100 l 1,52,-1
0 0 m 1,56,-1
 100 0 l 1,57,-1
 100 -100 l 1,58,-1
 0 -100 l 1,59,-1
 0 0 l 1,56,-1
300 0 m 1,60,-1
 400 0 l 1,61,-1
 400 -100 l 1,62,-1
 300 -100 l 1,63,-1
 300 0 l 1,60,-1
400 0 m 1,64,-1
 500 0 l 1,65,-1
 500 -100 l 1,66,-1
 400 -100 l 1,67,-1
 400 0 l 1,64,-1
100 -100 m 1,68,-1
 200 -100 l 1,69,-1
 200 -200 l 1,70,-1
 100 -200 l 1,71,-1
 100 -100 l 1,68,-1
200 -100 m 1,72,-1
 300 -100 l 1,73,-1
 300 -200 l 1,74,-1
 200 -200 l 1,75,-1
 200 -100 l 1,72,-1
300 -100 m 1,76,-1
 400 -100 l 1,77,-1
 400 -200 l 1,78,-1
 300 -200 l 1,79,-1
 300 -100 l 1,76,-1
EndSplineSet
Validated: 5
EndChar

StartChar: k
Encoding: 107 107 77
Width: 600
GlyphClass: 1
Flags: W
LayerCount: 2
Fore
SplineSet
0 700 m 1,0,-1
 100 700 l 1,1,-1
 100 600 l 1,2,-1
 0 600 l 1,3,-1
 0 700 l 1,0,-1
100 700 m 1,4,-1
 200 700 l 1,5,-1
 200 600 l 1,6,-1
 100 600 l 1,7,-1
 100 700 l 1,4,-1
0 600 m 1,8,-1
 100 600 l 1,9,-1
 100 500 l 1,10,-1
 0 500 l 1,11,-1
 0 600 l 1,8,-1
100 600 m 1,12,-1
 200 600 l 1,13,-1
 200 500 l 1,14,-1
 100 500 l 1,15,-1
 100 600 l 1,12,-1
0 500 m 1,16,-1
 100 500 l 1,17,-1
 100 400 l 1,18,-1
 0 400 l 1,19,-1
 0 500 l 1,16,-1
100 500 m 1,20,-1
 200 500 l 1,21,-1
 200 400 l 1,22,-1
 100 400 l 1,23,-1
 100 500 l 1,20,-1
0 400 m 1,24,-1
 100 400 l 1,25,-1
 100 300 l 1,26,-1
 0 300 l 1,27,-1
 0 400 l 1,24,-1
100 400 m 1,28,-1
 200 400 l 1,29,-1
 200 300 l 1,30,-1
 100 300 l 1,31,-1
 100 400 l 1,28,-1
300 400 m 1,32,-1
 400 400 l 1,33,-1
 400 300 l 1,34,-1
 300 300 l 1,35,-1
 300 400 l 1,32,-1
0 300 m 1,36,-1
 100 300 l 1,37,-1
 100 200 l 1,38,-1
 0 200 l 1,39,-1
 0 300 l 1,36,-1
100 300 m 1,40,-1
 200 300 l 1,41,-1
 200 200 l 1,42,-1
 100 200 l 1,43,-1
 100 300 l 1,40,-1
200 300 m 1,44,-1
 300 300 l 1,45,-1
 300 200 l 1,46,-1
 200 200 l 1,47,-1
 200 300 l 1,44,-1
0 200 m 1,48,-1
 100 200 l 1,49,-1
 100 100 l 1,50,-1
 0 100 l 1,51,-1
 0 200 l 1,48,-1
100 200 m 1,52,-1
 200 200 l 1,53,-1
 200 100 l 1,54,-1
 100 100 l 1,55,-1
 100 200 l 1,52,-1
300 200 m 1,56,-1
 400 200 l 1,57,-1
 400 100 l 1,58,-1
 300 100 l 1,59,-1
 300 200 l 1,56,-1
0 100 m 1,60,-1
 100 100 l 1,61,-1
 100 0 l 1,62,-1
 0 0 l 1,63,-1
 0 100 l 1,60,-1
100 100 m 1,64,-1
 200 100 l 1,65,-1
 200 0 l 1,66,-1
 100 0 l 1,67,-1
 100 100 l 1,64,-1
400 100 m 1,68,-1
 500 100 l 1,69,-1
 500 0 l 1,70,-1
 400 0 l 1,71,-1
 400 100 l 1,68,-1
EndSplineSet
Validated: 5
EndChar

StartChar: l
Encoding: 108 108 78
Width: 600
GlyphClass: 1
Flags: W
LayerCount: 2
Fore
SplineSet
0 700 m 1,0,-1
 100 700 l 1,1,-1
 100 600 l 1,2,-1
 0 600 l 1,3,-1
 0 700 l 1,0,-1
100 700 m 1,4,-1
 200 700 l 1,5,-1
 200 600 l 1,6,-1
 100 600 l 1,7,-1
 100 700 l 1,4,-1
200 700 m 1,8,-1
 300 700 l 1,9,-1
 300 600 l 1,10,-1
 200 600 l 1,11,-1
 200 700 l 1,8,-1
100 600 m 1,12,-1
 200 600 l 1,13,-1
 200 500 l 1,14,-1
 100 500 l 1,15,-1
 100 600 l 1,12,-1
200 600 m 1,16,-1
 300 600 l 1,17,-1
 300 500 l 1,18,-1
 200 500 l 1,19,-1
 200 600 l 1,16,-1
100 500 m 1,20,-1
 200 500 l 1,21,-1
 200 400 l 1,22,-1
 100 400 l 1,23,-1
 100 500 l 1,20,-1
200 500 m 1,24,-1
 300 500 l 1,25,-1
 300 400 l 1,26,-1
 200 400 l 1,27,-1
 200 500 l 1,24,-1
100 400 m 1,28,-1
 200 400 l 1,29,-1
 200 300 l 1,30,-1
 100 300 l 1,31,-1
 100 400 l 1,28,-1
200 400 m 1,32,-1
 300 400 l 1,33,-1
 300 300 l 1,34,-1
 200 300 l 1,35,-1
 200 400 l 1,32,-1
100 300 m 1,36,-1
 200 300 l 1,37,-1
 200 200 l 1,38,-1
 100 200 l 1,39,-1
 100 300 l 1,36,-1
200 300 m 1,40,-1
 300 300 l 1,41,-1
 300 200 l 1,42,-1
 200 200 l 1,43,-1
 200 300 l 1,40,-1
100 200 m 1,44,-1
 200 200 l 1,45,-1
 200 100 l 1,46,-1
 100 100 l 1,47,-1
 100 200 l 1,44,-1
200 200 m 1,48,-1
 300 200 l 1,49,-1
 300 100 l 1,50,-1
 200 100 l 1,51,-1
 200 200 l 1,48,-1
200 100 m 1,52,-1
 300 100 l 1,53,-1
 300 0 l 1,54,-1
 200 0 l 1,55,-1
 200 100 l 1,52,-1
300 100 m 1,56,-1
 400 100 l 1,57,-1
 400 0 l 1,58,-1
 300 0 l 1,59,-1
 300 100 l 1,56,-1
EndSplineSet
Validated: 5
EndChar

StartChar: m
Encoding: 109 109 79
Width: 600
GlyphClass: 1
Flags: W
LayerCount: 2
Fore
SplineSet
0 500 m 1,0,-1
 100 500 l 1,1,-1
 100 400 l 1,2,-1
 0 400 l 1,3,-1
 0 500 l 1,0,-1
100 500 m 1,4,-1
 200 500 l 1,5,-1
 200 400 l 1,6,-1
 100 400 l 1,7,-1
 100 500 l 1,4,-1
200 500 m 1,8,-1
 300 500 l 1,9,-1
 300 400 l 1,10,-1
 200 400 l 1,11,-1
 200 500 l 1,8,-1
300 500 m 1,12,-1
 400 500 l 1,13,-1
 400 400 l 1,14,-1
 300 400 l 1,15,-1
 300 500 l 1,12,-1
0 400 m 1,16,-1
 100 400 l 1,17,-1
 100 300 l 1,18,-1
 0 300 l 1,19,-1
 0 400 l 1,16,-1
100 400 m 1,20,-1
 200 400 l 1,21,-1
 200 300 l 1,22,-1
 100 300 l 1,23,-1
 100 400 l 1,20,-1
200 400 m 1,24,-1
 300 400 l 1,25,-1
 300 300 l 1,26,-1
 200 300 l 1,27,-1
 200 400 l 1,24,-1
300 400 m 1,28,-1
 400 400 l 1,29,-1
 400 300 l 1,30,-1
 300 300 l 1,31,-1
 300 400 l 1,28,-1
400 400 m 1,32,-1
 500 400 l 1,33,-1
 500 300 l 1,34,-1
 400 300 l 1,35,-1
 400 400 l 1,32,-1
0 300 m 1,36,-1
 100 300 l 1,37,-1
 100 200 l 1,38,-1
 0 200 l 1,39,-1
 0 300 l 1,36,-1
200 300 m 1,40,-1
 300 300 l 1,41,-1
 300 200 l 1,42,-1
 200 200 l 1,43,-1
 200 300 l 1,40,-1
400 300 m 1,44,-1
 500 300 l 1,45,-1
 500 200 l 1,46,-1
 400 200 l 1,47,-1
 400 300 l 1,44,-1
0 200 m 1,48,-1
 100 200 l 1,49,-1
 100 100 l 1,50,-1
 0 100 l 1,51,-1
 0 200 l 1,48,-1
200 200 m 1,52,-1
 300 200 l 1,53,-1
 300 100 l 1,54,-1
 200 100 l 1,55,-1
 200 200 l 1,52,-1
400 200 m 1,56,-1
 500 200 l 1,57,-1
 500 100 l 1,58,-1
 400 100 l 1,59,-1
 400 200 l 1,56,-1
0 100 m 1,60,-1
 100 100 l 1,61,-1
 100 0 l 1,62,-1
 0 0 l 1,63,-1
 0 100 l 1,60,-1
200 100 m 1,64,-1
 300 100 l 1,65,-1
 300 0 l 1,66,-1
 200 0 l 1,67,-1
 200 100 l 1,64,-1
400 100 m 1,68,-1
 500 100 l 1,69,-1
 500 0 l 1,70,-1
 400 0 l 1,71,-1
 400 100 l 1,68,-1
EndSplineSet
Validated: 5
EndChar

StartChar: n
Encoding: 110 110 80
Width: 600
GlyphClass: 1
Flags: W
LayerCount: 2
Fore
SplineSet
0 500 m 1,0,-1
 100 500 l 1,1,-1
 100 400 l 1,2,-1
 0 400 l 1,3,-1
 0 500 l 1,0,-1
100 500 m 1,4,-1
 200 500 l 1,5,-1
 200 400 l 1,6,-1
 100 400 l 1,7,-1
 100 500 l 1,4,-1
200 500 m 1,8,-1
 300 500 l 1,9,-1
 300 400 l 1,10,-1
 200 400 l 1,11,-1
 200 500 l 1,8,-1
300 500 m 1,12,-1
 400 500 l 1,13,-1
 400 400 l 1,14,-1
 300 400 l 1,15,-1
 300 500 l 1,12,-1
0 400 m 1,16,-1
 100 400 l 1,17,-1
 100 300 l 1,18,-1
 0 300 l 1,19,-1
 0 400 l 1,16,-1
100 400 m 1,20,-1
 200 400 l 1,21,-1
 200 300 l 1,22,-1
 100 300 l 1,23,-1
 100 400 l 1,20,-1
400 400 m 1,24,-1
 500 400 l 1,25,-1
 500 300 l 1,26,-1
 400 300 l 1,27,-1
 400 400 l 1,24,-1
0 300 m 1,28,-1
 100 300 l 1,29,-1
 100 200 l 1,30,-1
 0 200 l 1,31,-1
 0 300 l 1,28,-1
100 300 m 1,32,-1
 200 300 l 1,33,-1
 200 200 l 1,34,-1
 100 200 l 1,35,-1
 100 300 l 1,32,-1
400 300 m 1,36,-1
 500 300 l 1,37,-1
 500 200 l 1,38,-1
 400 200 l 1,39,-1
 400 300 l 1,36,-1
0 200 m 1,40,-1
 100 200 l 1,41,-1
 100 100 l 1,42,-1
 0 100 l 1,43,-1
 0 200 l 1,40,-1
100 200 m 1,44,-1
 200 200 l 1,45,-1
 200 100 l 1,46,-1
 100 100 l 1,47,-1
 100 200 l 1,44,-1
400 200 m 1,48,-1
 500 200 l 1,49,-1
 500 100 l 1,50,-1
 400 100 l 1,51,-1
 400 200 l 1,48,-1
0 100 m 1,52,-1
 100 100 l 1,53,-1
 100 0 l 1,54,-1
 0 0 l 1,55,-1
 0 100 l 1,52,-1
100 100 m 1,56,-1
 200 100 l 1,57,-1
 200 0 l 1,58,-1
 100 0 l 1,59,-1
 100 100 l 1,56,-1
400 100 m 1,60,-1
 500 100 l 1,61,-1
 500 0 l 1,62,-1
 400 0 l 1,63,-1
 400 100 l 1,60,-1
EndSplineSet
Validated: 5
EndChar

StartChar: o
Encoding: 111 111 81
Width: 600
GlyphClass: 1
Flags: W
LayerCount: 2
Fore
SplineSet
100 500 m 1,0,-1
 200 500 l 1,1,-1
 200 400 l 1,2,-1
 100 400 l 1,3,-1
 100 500 l 1,0,-1
200 500 m 1,4,-1
 300 500 l 1,5,-1
 300 400 l 1,6,-1
 200 400 l 1,7,-1
 200 500 l 1,4,-1
300 500 m 1,8,-1
 400 500 l 1,9,-1
 400 400 l 1,10,-1
 300 400 l 1,11,-1
 300 500 l 1,8,-1
0 400 m 1,12,-1
 100 400 l 1,13,-1
 100 300 l 1,14,-1
 0 300 l 1,15,-1
 0 400 l 1,12,-1
100 400 m 1,16,-1
 200 400 l 1,17,-1
 200 300 l 1,18,-1
 100 300 l 1,19,-1
 100 400 l 1,16,-1
400 400 m 1,20,-1
 500 400 l 1,21,-1
 500 300 l 1,22,-1
 400 300 l 1,23,-1
 400 400 l 1,20,-1
0 300 m 1,24,-1
 100 300 l 1,25,-1
 100 200 l 1,26,-1
 0 200 l 1,27,-1
 0 300 l 1,24,-1
100 300 m 1,28,-1
 200 300 l 1,29,-1
 200 200 l 1,30,-1
 100 200 l 1,31,-1
 100 300 l 1,28,-1
400 300 m 1,32,-1
 500 300 l 1,33,-1
 500 200 l 1,34,-1
 400 200 l 1,35,-1
 400 300 l 1,32,-1
0 200 m 1,36,-1
 100 200 l 1,37,-1
 100 100 l 1,38,-1
 0 100 l 1,39,-1
 0 200 l 1,36,-1
100 200 m 1,40,-1
 200 200 l 1,41,-1
 200 100 l 1,42,-1
 100 100 l 1,43,-1
 100 200 l 1,40,-1
400 200 m 1,44,-1
 500 200 l 1,45,-1
 500 100 l 1,46,-1
 400 100 l 1,47,-1
 400 200 l 1,44,-1
100 100 m 1,48,-1
 200 100 l 1,49,-1
 200 0 l 1,50,-1
 100 0 l 1,51,-1
 100 100 l 1,48,-1
200 100 m 1,52,-1
 300 100 l 1,53,-1
 300 0 l 1,54,-1
 200 0 l 1,55,-1
 200 100 l 1,52,-1
300 100 m 1,56,-1
 400 100 l 1,57,-1
 400 0 l 1,58,-1
 300 0 l 1,59,-1
 300 100 l 1,56,-1
EndSplineSet
Validated: 5
EndChar

StartChar: p
Encoding: 112 112 82
Width: 600
GlyphClass: 1
Flags: W
LayerCount: 2
Fore
SplineSet
0 500 m 1,0,-1
 100 500 l 1,1,-1
 100 400 l 1,2,-1
 0 400 l 1,3,-1
 0 500 l 1,0,-1
100 500 m 1,4,-1
 200 500 l 1,5,-1
 200 400 l 1,6,-1
 100 400 l 1,7,-1
 100 500 l 1,4,-1
200 500 m 1,8,-1
 300 500 l 1,9,-1
 300 400 l 1,10,-1
 200 400 l 1,11,-1
 200 500 l 1,8,-1
300 500 m 1,12,-1
 400 500 l 1,13,-1
 400 400 l 1,14,-1
 300 400 l 1,15,-1
 300 500 l 1,12,-1
0 400 m 1,16,-1
 100 400 l 1,17,-1
 100 300 l 1,18,-1
 0 300 l 1,19,-1
 0 400 l 1,16,-1
100 400 m 1,20,-1
 200 400 l 1,21,-1
 200 300 l 1,22,-1
 100 300 l 1,23,-1
 100 400 l 1,20,-1
400 400 m 1,24,-1
 500 400 l 1,25,-1
 500 300 l 1,26,-1
 400 300 l 1,27,-1
 400 400 l 1,24,-1
0 300 m 1,28,-1
 100 300 l 1,29,-1
 100 200 l 1,30,-1
 0 200 l 1,31,-1
 0 300 l 1,28,-1
100 300 m 1,32,-1
 200 300 l 1,33,-1
 200 200 l 1,34,-1
 100 200 l 1,35,-1
 100 300 l 1,32,-1
400 300 m 1,36,-1
 500 300 l 1,37,-1
 500 200 l 1,38,-1
 400 200 l 1,39,-1
 400 300 l 1,36,-1
0 200 m 1,40,-1
 100 200 l 1,41,-1
 100 100 l 1,42,-1
 0 100 l 1,43,-1
 0 200 l 1,40,-1
100 200 m 1,44,-1
 200 200 l 1,45,-1
 200 100 l 1,46,-1
 100 100 l 1,47,-1
 100 200 l 1,44,-1
400 200 m 1,48,-1
 500 200 l 1,49,-1
 500 100 l 1,50,-1
 400 100 l 1,51,-1
 400 200 l 1,48,-1
0 100 m 1,52,-1
 100 100 l 1,53,-1
 100 0 l 1,54,-1
 0 0 l 1,55,-1
 0 100 l 1,52,-1
100 100 m 1,56,-1
 200 100 l 1,57,-1
 200 0 l 1,58,-1
 100 0 l 1,59,-1
 100 100 l 1,56,-1
200 100 m 1,60,-1
 300 100 l 1,61,-1
 300 0 l 1,62,-1
 200 0 l 1,63,-1
 200 100 l 1,60,-1
300 100 m 1,64,-1
 400 100 l 1,65,-1
 400 0 l 1,66,-1
 300 0 l 1,67,-1
 300 100 l 1,64,-1
0 0 m 1,68,-1
 100 0 l 1,69,-1
 100 -100 l 1,70,-1
 0 -100 l 1,71,-1
 0 0 l 1,68,-1
100 0 m 1,72,-1
 200 0 l 1,73,-1
 200 -100 l 1,74,-1
 100 -100 l 1,75,-1
 100 0 l 1,72,-1
0 -100 m 1,76,-1
 100 -100 l 1,77,-1
 100 -200 l 1,78,-1
 0 -200 l 1,79,-1
 0 -100 l 1,76,-1
100 -100 m 1,80,-1
 200 -100 l 1,81,-1
 200 -200 l 1,82,-1
 100 -200 l 1,83,-1
 100 -100 l 1,80,-1
EndSplineSet
Validated: 5
EndChar

StartChar: q
Encoding: 113 113 83
Width: 600
GlyphClass: 1
Flags: W
LayerCount: 2
Fore
SplineSet
100 500 m 1,0,-1
 200 500 l 1,1,-1
 200 400 l 1,2,-1
 100 400 l 1,3,-1
 100 500 l 1,0,-1
200 500 m 1,4,-1
 300 500 l 1,5,-1
 300 400 l 1,6,-1
 200 400 l 1,7,-1
 200 500 l 1,4,-1
300 500 m 1,8,-1
 400 500 l 1,9,-1
 400 400 l 1,10,-1
 300 400 l 1,11,-1
 300 500 l 1,8,-1
0 400 m 1,12,-1
 100 400 l 1,13,-1
 100 300 l 1,14,-1
 0 300 l 1,15,-1
 0 400 l 1,12,-1
300 400 m 1,16,-1
 400 400 l 1,17,-1
 400 300 l 1,18,-1
 300 300 l 1,19,-1
 300 400 l 1,16,-1
400 400 m 1,20,-1
 500 400 l 1,21,-1
 500 300 l 1,22,-1
 400 300 l 1,23,-1
 400 400 l 1,20,-1
0 300 m 1,24,-1
 100 300 l 1,25,-1
 100 200 l 1,26,-1
 0 200 l 1,27,-1
 0 300 l 1,24,-1
300 300 m 1,28,-1
 400 300 l 1,29,-1
 400 200 l 1,30,-1
 300 200 l 1,31,-1
 300 300 l 1,28,-1
400 300 m 1,32,-1
 500 300 l 1,33,-1
 500 200 l 1,34,-1
 400 200 l 1,35,-1
 400 300 l 1,32,-1
0 200 m 1,36,-1
 100 200 l 1,37,-1
 100 100 l 1,38,-1
 0 100 l 1,39,-1
 0 200 l 1,36,-1
300 200 m 1,40,-1
 400 200 l 1,41,-1
 400 100 l 1,42,-1
 300 100 l 1,43,-1
 300 200 l 1,40,-1
400 200 m 1,44,-1
 500 200 l 1,45,-1
 500 100 l 1,46,-1
 400 100 l 1,47,-1
 400 200 l 1,44,-1
100 100 m 1,48,-1
 200 100 l 1,49,-1
 200 0 l 1,50,-1
 100 0 l 1,51,-1
 100 100 l 1,48,-1
200 100 m 1,52,-1
 300 100 l 1,53,-1
 300 0 l 1,54,-1
 200 0 l 1,55,-1
 200 100 l 1,52,-1
300 100 m 1,56,-1
 400 100 l 1,57,-1
 400 0 l 1,58,-1
 300 0 l 1,59,-1
 300 100 l 1,56,-1
400 100 m 1,60,-1
 500 100 l 1,61,-1
 500 0 l 1,62,-1
 400 0 l 1,63,-1
 400 100 l 1,60,-1
300 0 m 1,64,-1
 400 0 l 1,65,-1
 400 -100 l 1,66,-1
 300 -100 l 1,67,-1
 300 0 l 1,64,-1
400 0 m 1,68,-1
 500 0 l 1,69,-1
 500 -100 l 1,70,-1
 400 -100 l 1,71,-1
 400 0 l 1,68,-1
300 -100 m 1,72,-1
 400 -100 l 1,73,-1
 400 -200 l 1,74,-1
 300 -200 l 1,75,-1
 300 -100 l 1,72,-1
400 -100 m 1,76,-1
 500 -100 l 1,77,-1
 500 -200 l 1,78,-1
 400 -200 l 1,79,-1
 400 -100 l 1,76,-1
EndSplineSet
Validated: 5
EndChar

StartChar: r
Encoding: 114 114 84
Width: 600
GlyphClass: 1
Flags: W
LayerCount: 2
Fore
SplineSet
100 500 m 1,0,-1
 200 500 l 1,1,-1
 200 400 l 1,2,-1
 100 400 l 1,3,-1
 100 500 l 1,0,-1
200 500 m 1,4,-1
 300 500 l 1,5,-1
 300 400 l 1,6,-1
 200 400 l 1,7,-1
 200 500 l 1,4,-1
300 500 m 1,8,-1
 400 500 l 1,9,-1
 400 400 l 1,10,-1
 300 400 l 1,11,-1
 300 500 l 1,8,-1
0 400 m 1,12,-1
 100 400 l 1,13,-1
 100 300 l 1,14,-1
 0 300 l 1,15,-1
 0 400 l 1,12,-1
100 400 m 1,16,-1
 200 400 l 1,17,-1
 200 300 l 1,18,-1
 100 300 l 1,19,-1
 100 400 l 1,16,-1
400 400 m 1,20,-1
 500 400 l 1,21,-1
 500 300 l 1,22,-1
 400 300 l 1,23,-1
 400 400 l 1,20,-1
0 300 m 1,24,-1
 100 300 l 1,25,-1
 100 200 l 1,26,-1
 0 200 l 1,27,-1
 0 300 l 1,24,-1
100 300 m 1,28,-1
 200 300 l 1,29,-1
 200 200 l 1,30,-1
 100 200 l 1,31,-1
 100 300 l 1,28,-1
0 200 m 1,32,-1
 100 200 l 1,33,-1
 100 100 l 1,34,-1
 0 100 l 1,35,-1
 0 200 l 1,32,-1
100 200 m 1,36,-1
 200 200 l 1,37,-1
 200 100 l 1,38,-1
 100 100 l 1,39,-1
 100 200 l 1,36,-1
0 100 m 1,40,-1
 100 100 l 1,41,-1
 100 0 l 1,42,-1
 0 0 l 1,43,-1
 0 100 l 1,40,-1
100 100 m 1,44,-1
 200 100 l 1,45,-1
 200 0 l 1,46,-1
 100 0 l 1,47,-1
 100 100 l 1,44,-1
EndSplineSet
Validated: 5
EndChar

StartChar: s
Encoding: 115 115 85
Width: 600
GlyphClass: 1
Flags: W
LayerCount: 2
Fore
SplineSet
100 500 m 1,0,-1
 200 500 l 1,1,-1
 200 400 l 1,2,-1
 100 400 l 1,3,-1
 100 500 l 1,0,-1
200 500 m 1,4,-1
 300 500 l 1,5,-1
 300 400 l 1,6,-1
 200 400 l 1,7,-1
 200 500 l 1,4,-1
300 500 m 1,8,-1
 400 500 l 1,9,-1
 400 400 l 1,10,-1
 300 400 l 1,11,-1
 300 500 l 1,8,-1
0 400 m 1,12,-1
 100 400 l 1,13,-1
 100 300 l 1,14,-1
 0 300 l 1,15,-1
 0 400 l 1,12,-1
100 400 m 1,16,-1
 200 400 l 1,17,-1
 200 300 l 1,18,-1
 100 300 l 1,19,-1
 100 400 l 1,16,-1
200 400 m 1,20,-1
 300 400 l 1,21,-1
 300 300 l 1,22,-1
 200 300 l 1,23,-1
 200 400 l 1,20,-1
100 300 m 1,24,-1
 200 300 l 1,25,-1
 200 200 l 1,26,-1
 100 200 l 1,27,-1
 100 300 l 1,24,-1
200 300 m 1,28,-1
 300 300 l 1,29,-1
 300 200 l 1,30,-1
 200 200 l 1,31,-1
 200 300 l 1,28,-1
300 300 m 1,32,-1
 400 300 l 1,33,-1
 400 200 l 1,34,-1
 300 200 l 1,35,-1
 300 300 l 1,32,-1
0 200 m 1,36,-1
 100 200 l 1,37,-1
 100 100 l 1,38,-1
 0 100 l 1,39,-1
 0 200 l 1,36,-1
300 200 m 1,40,-1
 400 200 l 1,41,-1
 400 100 l 1,42,-1
 300 100 l 1,43,-1
 300 200 l 1,40,-1
400 200 m 1,44,-1
 500 200 l 1,45,-1
 500 100 l 1,46,-1
 400 100 l 1,47,-1
 400 200 l 1,44,-1
100 100 m 1,48,-1
 200 100 l 1,49,-1
 200 0 l 1,50,-1
 100 0 l 1,51,-1
 100 100 l 1,48,-1
200 100 m 1,52,-1
 300 100 l 1,53,-1
 300 0 l 1,54,-1
 200 0 l 1,55,-1
 200 100 l 1,52,-1
300 100 m 1,56,-1
 400 100 l 1,57,-1
 400 0 l 1,58,-1
 300 0 l 1,59,-1
 300 100 l 1,56,-1
EndSplineSet
Validated: 5
EndChar

StartChar: t
Encoding: 116 116 86
Width: 600
GlyphClass: 1
Flags: W
LayerCount: 2
Fore
SplineSet
100 700 m 1,0,-1
 200 700 l 1,1,-1
 200 600 l 1,2,-1
 100 600 l 1,3,-1
 100 700 l 1,0,-1
200 700 m 1,4,-1
 300 700 l 1,5,-1
 300 600 l 1,6,-1
 200 600 l 1,7,-1
 200 700 l 1,4,-1
100 600 m 1,8,-1
 200 600 l 1,9,-1
 200 500 l 1,10,-1
 100 500 l 1,11,-1
 100 600 l 1,8,-1
200 600 m 1,12,-1
 300 600 l 1,13,-1
 300 500 l 1,14,-1
 200 500 l 1,15,-1
 200 600 l 1,12,-1
0 500 m 1,16,-1
 100 500 l 1,17,-1
 100 400 l 1,18,-1
 0 400 l 1,19,-1
 0 500 l 1,16,-1
100 500 m 1,20,-1
 200 500 l 1,21,-1
 200 400 l 1,22,-1
 100 400 l 1,23,-1
 100 500 l 1,20,-1
200 500 m 1,24,-1
 300 500 l 1,25,-1
 300 400 l 1,26,-1
 200 400 l 1,27,-1
 200 500 l 1,24,-1
300 500 m 1,28,-1
 400 500 l 1,29,-1
 400 400 l 1,30,-1
 300 400 l 1,31,-1
 300 500 l 1,28,-1
400 500 m 1,32,-1
 500 500 l 1,33,-1
 500 400 l 1,34,-1
 400 400 l 1,35,-1
 400 500 l 1,32,-1
100 400 m 1,36,-1
 200 400 l 1,37,-1
 200 300 l 1,38,-1
 100 300 l 1,39,-1
 100 400 l 1,36,-1
200 400 m 1,40,-1
 300 400 l 1,41,-1
 300 300 l 1,42,-1
 200 300 l 1,43,-1
 200 400 l 1,40,-1
100 300 m 1,44,-1
 200 300 l 1,45,-1
 200 200 l 1,46,-1
 100 200 l 1,47,-1
 100 300 l 1,44,-1
200 300 m 1,48,-1
 300 300 l 1,49,-1
 300 200 l 1,50,-1
 200 200 l 1,51,-1
 200 300 l 1,48,-1
100 200 m 1,52,-1
 200 200 l 1,53,-1
 200 100 l 1,54,-1
 100 100 l 1,55,-1
 100 200 l 1,52,-1
200 200 m 1,56,-1
 300 200 l 1,57,-1
 300 100 l 1,58,-1
 200 100 l 1,59,-1
 200 200 l 1,56,-1
400 200 m 1,60,-1
 500 200 l 1,61,-1
 500 100 l 1,62,-1
 400 100 l 1,63,-1
 400 200 l 1,60,-1
200 100 m 1,64,-1
 300 100 l 1,65,-1
 300 0 l 1,66,-1
 200 0 l 1,67,-1
 200 100 l 1,64,-1
300 100 m 1,68,-1
 400 100 l 1,69,-1
 400 0 l 1,70,-1
 300 0 l 1,71,-1
 300 100 l 1,68,-1
EndSplineSet
Validated: 5
EndChar

StartChar: u
Encoding: 117 117 87
Width: 600
GlyphClass: 1
Flags: W
LayerCount: 2
Fore
SplineSet
0 500 m 1,0,-1
 100 500 l 1,1,-1
 100 400 l 1,2,-1
 0 400 l 1,3,-1
 0 500 l 1,0,-1
300 500 m 1,4,-1
 400 500 l 1,5,-1
 400 400 l 1,6,-1
 300 400 l 1,7,-1
 300 500 l 1,4,-1
400 500 m 1,8,-1
 500 500 l 1,9,-1
 500 400 l 1,10,-1
 400 400 l 1,11,-1
 400 500 l 1,8,-1
0 400 m 1,12,-1
 100 400 l 1,13,-1
 100 300 l 1,14,-1
 0 300 l 1,15,-1
 0 400 l 1,12,-1
300 400 m 1,16,-1
 400 400 l 1,17,-1
 400 300 l 1,18,-1
 300 300 l 1,19,-1
 300 400 l 1,16,-1
400 400 m 1,20,-1
 500 400 l 1,21,-1
 500 300 l 1,22,-1
 400 300 l 1,23,-1
 400 400 l 1,20,-1
0 300 m 1,24,-1
 100 300 l 1,25,-1
 100 200 l 1,26,-1
 0 200 l 1,27,-1
 0 300 l 1,24,-1
300 300 m 1,28,-1
 400 300 l 1,29,-1
 400 200 l 1,30,-1
 300 200 l 1,31,-1
 300 300 l 1,28,-1
400 300 m 1,32,-1
 500 300 l 1,33,-1
 500 200 l 1,34,-1
 400 200 l 1,35,-1
 400 300 l 1,32,-1
0 200 m 1,36,-1
 100 200 l 1,37,-1
 100 100 l 1,38,-1
 0 100 l 1,39,-1
 0 200 l 1,36,-1
300 200 m 1,40,-1
 400 200 l 1,41,-1
 400 100 l 1,42,-1
 300 100 l 1,43,-1
 300 200 l 1,40,-1
400 200 m 1,44,-1
 500 200 l 1,45,-1
 500 100 l 1,46,-1
 400 100 l 1,47,-1
 400 200 l 1,44,-1
100 100 m 1,48,-1
 200 100 l 1,49,-1
 200 0 l 1,50,-1
 100 0 l 1,51,-1
 100 100 l 1,48,-1
200 100 m 1,52,-1
 300 100 l 1,53,-1
 300 0 l 1,54,-1
 200 0 l 1,55,-1
 200 100 l 1,52,-1
400 100 m 1,56,-1
 500 100 l 1,57,-1
 500 0 l 1,58,-1
 400 0 l 1,59,-1
 400 100 l 1,56,-1
EndSplineSet
Validated: 5
EndChar

StartChar: v
Encoding: 118 118 88
Width: 600
GlyphClass: 1
Flags: W
LayerCount: 2
Fore
SplineSet
0 500 m 1,0,-1
 100 500 l 1,1,-1
 100 400 l 1,2,-1
 0 400 l 1,3,-1
 0 500 l 1,0,-1
100 500 m 1,4,-1
 200 500 l 1,5,-1
 200 400 l 1,6,-1
 100 400 l 1,7,-1
 100 500 l 1,4,-1
400 500 m 1,8,-1
 500 500 l 1,9,-1
 500 400 l 1,10,-1
 400 400 l 1,11,-1
 400 500 l 1,8,-1
0 400 m 1,12,-1
 100 400 l 1,13,-1
 100 300 l 1,14,-1
 0 300 l 1,15,-1
 0 400 l 1,12,-1
100 400 m 1,16,-1
 200 400 l 1,17,-1
 200 300 l 1,18,-1
 100 300 l 1,19,-1
 100 400 l 1,16,-1
400 400 m 1,20,-1
 500 400 l 1,21,-1
 500 300 l 1,22,-1
 400 300 l 1,23,-1
 400 400 l 1,20,-1
0 300 m 1,24,-1
 100 300 l 1,25,-1
 100 200 l 1,26,-1
 0 200 l 1,27,-1
 0 300 l 1,24,-1
100 300 m 1,28,-1
 200 300 l 1,29,-1
 200 200 l 1,30,-1
 100 200 l 1,31,-1
 100 300 l 1,28,-1
400 300 m 1,32,-1
 500 300 l 1,33,-1
 500 200 l 1,34,-1
 400 200 l 1,35,-1
 400 300 l 1,32,-1
100 200 m 1,36,-1
 200 200 l 1,37,-1
 200 100 l 1,38,-1
 100 100 l 1,39,-1
 100 200 l 1,36,-1
300 200 m 1,40,-1
 400 200 l 1,41,-1
 400 100 l 1,42,-1
 300 100 l 1,43,-1
 300 200 l 1,40,-1
200 100 m 1,44,-1
 300 100 l 1,45,-1
 300 0 l 1,46,-1
 200 0 l 1,47,-1
 200 100 l 1,44,-1
EndSplineSet
Validated: 5
EndChar

StartChar: w
Encoding: 119 119 89
Width: 600
GlyphClass: 1
Flags: W
LayerCount: 2
Fore
SplineSet
0 500 m 1,0,-1
 100 500 l 1,1,-1
 100 400 l 1,2,-1
 0 400 l 1,3,-1
 0 500 l 1,0,-1
100 500 m 1,4,-1
 200 500 l 1,5,-1
 200 400 l 1,6,-1
 100 400 l 1,7,-1
 100 500 l 1,4,-1
400 500 m 1,8,-1
 500 500 l 1,9,-1
 500 400 l 1,10,-1
 400 400 l 1,11,-1
 400 500 l 1,8,-1
0 400 m 1,12,-1
 100 400 l 1,13,-1
 100 300 l 1,14,-1
 0 300 l 1,15,-1
 0 400 l 1,12,-1
100 400 m 1,16,-1
 200 400 l 1,17,-1
 200 300 l 1,18,-1
 100 300 l 1,19,-1
 100 400 l 1,16,-1
400 400 m 1,20,-1
 500 400 l 1,21,-1
 500 300 l 1,22,-1
 400 300 l 1,23,-1
 400 400 l 1,20,-1
0 300 m 1,24,-1
 100 300 l 1,25,-1
 100 200 l 1,26,-1
 0 200 l 1,27,-1
 0 300 l 1,24,-1
100 300 m 1,28,-1
 200 300 l 1,29,-1
 200 200 l 1,30,-1
 100 200 l 1,31,-1
 100 300 l 1,28,-1
400 300 m 1,32,-1
 500 300 l 1,33,-1
 500 200 l 1,34,-1
 400 200 l 1,35,-1
 400 300 l 1,32,-1
0 200 m 1,36,-1
 100 200 l 1,37,-1
 100 100 l 1,38,-1
 0 100 l 1,39,-1
 0 200 l 1,36,-1
200 200 m 1,40,-1
 300 200 l 1,41,-1
 300 100 l 1,42,-1
 200 100 l 1,43,-1
 200 200 l 1,40,-1
400 200 m 1,44,-1
 500 200 l 1,45,-1
 500 100 l 1,46,-1
 400 100 l 1,47,-1
 400 200 l 1,44,-1
100 100 m 1,48,-1
 200 100 l 1,49,-1
 200 0 l 1,50,-1
 100 0 l 1,51,-1
 100 100 l 1,48,-1
300 100 m 1,52,-1
 400 100 l 1,53,-1
 400 0 l 1,54,-1
 300 0 l 1,55,-1
 300 100 l 1,52,-1
EndSplineSet
Validated: 5
EndChar

StartChar: x
Encoding: 120 120 90
Width: 600
GlyphClass: 1
Flags: W
LayerCount: 2
Fore
SplineSet
0 500 m 1,0,-1
 100 500 l 1,1,-1
 100 400 l 1,2,-1
 0 400 l 1,3,-1
 0 500 l 1,0,-1
100 500 m 1,4,-1
 200 500 l 1,5,-1
 200 400 l 1,6,-1
 100 400 l 1,7,-1
 100 500 l 1,4,-1
400 500 m 1,8,-1
 500 500 l 1,9,-1
 500 400 l 1,10,-1
 400 400 l 1,11,-1
 400 500 l 1,8,-1
0 400 m 1,12,-1
 100 400 l 1,13,-1
 100 300 l 1,14,-1
 0 300 l 1,15,-1
 0 400 l 1,12,-1
100 400 m 1,16,-1
 200 400 l 1,17,-1
 200 300 l 1,18,-1
 100 300 l 1,19,-1
 100 400 l 1,16,-1
400 400 m 1,20,-1
 500 400 l 1,21,-1
 500 300 l 1,22,-1
 400 300 l 1,23,-1
 400 400 l 1,20,-1
0 300 m 1,24,-1
 100 300 l 1,25,-1
 100 200 l 1,26,-1
 0 200 l 1,27,-1
 0 300 l 1,24,-1
100 300 m 1,28,-1
 200 300 l 1,29,-1
 200 200 l 1,30,-1
 100 200 l 1,31,-1
 100 300 l 1,28,-1
400 300 m 1,32,-1
 500 300 l 1,33,-1
 500 200 l 1,34,-1
 400 200 l 1,35,-1
 400 300 l 1,32,-1
100 200 m 1,36,-1
 200 200 l 1,37,-1
 200 100 l 1,38,-1
 100 100 l 1,39,-1
 100 200 l 1,36,-1
200 200 m 1,40,-1
 300 200 l 1,41,-1
 300 100 l 1,42,-1
 200 100 l 1,43,-1
 200 200 l 1,40,-1
300 200 m 1,44,-1
 400 200 l 1,45,-1
 400 100 l 1,46,-1
 300 100 l 1,47,-1
 300 200 l 1,44,-1
0 100 m 1,48,-1
 100 100 l 1,49,-1
 100 0 l 1,50,-1
 0 0 l 1,51,-1
 0 100 l 1,48,-1
100 100 m 1,52,-1
 200 100 l 1,53,-1
 200 0 l 1,54,-1
 100 0 l 1,55,-1
 100 100 l 1,52,-1
400 100 m 1,56,-1
 500 100 l 1,57,-1
 500 0 l 1,58,-1
 400 0 l 1,59,-1
 400 100 l 1,56,-1
EndSplineSet
Validated: 5
EndChar

StartChar: y
Encoding: 121 121 91
Width: 600
GlyphClass: 1
Flags: W
LayerCount: 2
Fore
SplineSet
0 500 m 1,0,-1
 100 500 l 1,1,-1
 100 400 l 1,2,-1
 0 400 l 1,3,-1
 0 500 l 1,0,-1
300 500 m 1,4,-1
 400 500 l 1,5,-1
 400 400 l 1,6,-1
 300 400 l 1,7,-1
 300 500 l 1,4,-1
400 500 m 1,8,-1
 500 500 l 1,9,-1
 500 400 l 1,10,-1
 400 400 l 1,11,-1
 400 500 l 1,8,-1
0 400 m 1,12,-1
 100 400 l 1,13,-1
 100 300 l 1,14,-1
 0 300 l 1,15,-1
 0 400 l 1,12,-1
300 400 m 1,16,-1
 400 400 l 1,17,-1
 400 300 l 1,18,-1
 300 300 l 1,19,-1
 300 400 l 1,16,-1
400 400 m 1,20,-1
 500 400 l 1,21,-1
 500 300 l 1,22,-1
 400 300 l 1,23,-1
 400 400 l 1,20,-1
0 300 m 1,24,-1
 100 300 l 1,25,-1
 100 200 l 1,26,-1
 0 200 l 1,27,-1
 0 300 l 1,24,-1
300 300 m 1,28,-1
 400 300 l 1,29,-1
 400 200 l 1,30,-1
 300 200 l 1,31,-1
 300 300 l 1,28,-1
400 300 m 1,32,-1
 500 300 l 1,33,-1
 500 200 l 1,34,-1
 400 200 l 1,35,-1
 400 300 l 1,32,-1
0 200 m 1,36,-1
 100 200 l 1,37,-1
 100 100 l 1,38,-1
 0 100 l 1,39,-1
 0 200 l 1,36,-1
300 200 m 1,40,-1
 400 200 l 1,41,-1
 400 100 l 1,42,-1
 300 100 l 1,43,-1
 300 200 l 1,40,-1
400 200 m 1,44,-1
 500 200 l 1,45,-1
 500 100 l 1,46,-1
 400 100 l 1,47,-1
 400 200 l 1,44,-1
100 100 m 1,48,-1
 200 100 l 1,49,-1
 200 0 l 1,50,-1
 100 0 l 1,51,-1
 100 100 l 1,48,-1
200 100 m 1,52,-1
 300 100 l 1,53,-1
 300 0 l 1,54,-1
 200 0 l 1,55,-1
 200 100 l 1,52,-1
300 100 m 1,56,-1
 400 100 l 1,57,-1
 400 0 l 1,58,-1
 300 0 l 1,59,-1
 300 100 l 1,56,-1
400 100 m 1,60,-1
 500 100 l 1,61,-1
 500 0 l 1,62,-1
 400 0 l 1,63,-1
 400 100 l 1,60,-1
300 0 m 1,64,-1
 400 0 l 1,65,-1
 400 -100 l 1,66,-1
 300 -100 l 1,67,-1
 300 0 l 1,64,-1
400 0 m 1,68,-1
 500 0 l 1,69,-1
 500 -100 l 1,70,-1
 400 -100 l 1,71,-1
 400 0 l 1,68,-1
100 -100 m 1,72,-1
 200 -100 l 1,73,-1
 200 -200 l 1,74,-1
 100 -200 l 1,75,-1
 100 -100 l 1,72,-1
200 -100 m 1,76,-1
 300 -100 l 1,77,-1
 300 -200 l 1,78,-1
 200 -200 l 1,79,-1
 200 -100 l 1,76,-1
300 -100 m 1,80,-1
 400 -100 l 1,81,-1
 400 -200 l 1,82,-1
 300 -200 l 1,83,-1
 300 -100 l 1,80,-1
EndSplineSet
Validated: 5
EndChar

StartChar: z
Encoding: 122 122 92
Width: 600
GlyphClass: 1
Flags: W
LayerCount: 2
Fore
SplineSet
0 500 m 1,0,-1
 100 500 l 1,1,-1
 100 400 l 1,2,-1
 0 400 l 1,3,-1
 0 500 l 1,0,-1
100 500 m 1,4,-1
 200 500 l 1,5,-1
 200 400 l 1,6,-1
 100 400 l 1,7,-1
 100 500 l 1,4,-1
200 500 m 1,8,-1
 300 500 l 1,9,-1
 300 400 l 1,10,-1
 200 400 l 1,11,-1
 200 500 l 1,8,-1
300 500 m 1,12,-1
 400 500 l 1,13,-1
 400 400 l 1,14,-1
 300 400 l 1,15,-1
 300 500 l 1,12,-1
400 500 m 1,16,-1
 500 500 l 1,17,-1
 500 400 l 1,18,-1
 400 400 l 1,19,-1
 400 500 l 1,16,-1
300 400 m 1,20,-1
 400 400 l 1,21,-1
 400 300 l 1,22,-1
 300 300 l 1,23,-1
 300 400 l 1,20,-1
400 400 m 1,24,-1
 500 400 l 1,25,-1
 500 300 l 1,26,-1
 400 300 l 1,27,-1
 400 400 l 1,24,-1
100 300 m 1,28,-1
 200 300 l 1,29,-1
 200 200 l 1,30,-1
 100 200 l 1,31,-1
 100 300 l 1,28,-1
200 300 m 1,32,-1
 300 300 l 1,33,-1
 300 200 l 1,34,-1
 200 200 l 1,35,-1
 200 300 l 1,32,-1
300 300 m 1,36,-1
 400 300 l 1,37,-1
 400 200 l 1,38,-1
 300 200 l 1,39,-1
 300 300 l 1,36,-1
0 200 m 1,40,-1
 100 200 l 1,41,-1
 100 100 l 1,42,-1
 0 100 l 1,43,-1
 0 200 l 1,40,-1
100 200 m 1,44,-1
 200 200 l 1,45,-1
 200 100 l 1,46,-1
 100 100 l 1,47,-1
 100 200 l 1,44,-1
200 200 m 1,48,-1
 300 200 l 1,49,-1
 300 100 l 1,50,-1
 200 100 l 1,51,-1
 200 200 l 1,48,-1
0 100 m 1,52,-1
 100 100 l 1,53,-1
 100 0 l 1,54,-1
 0 0 l 1,55,-1
 0 100 l 1,52,-1
100 100 m 1,56,-1
 200 100 l 1,57,-1
 200 0 l 1,58,-1
 100 0 l 1,59,-1
 100 100 l 1,56,-1
200 100 m 1,60,-1
 300 100 l 1,61,-1
 300 0 l 1,62,-1
 200 0 l 1,63,-1
 200 100 l 1,60,-1
300 100 m 1,64,-1
 400 100 l 1,65,-1
 400 0 l 1,66,-1
 300 0 l 1,67,-1
 300 100 l 1,64,-1
400 100 m 1,68,-1
 500 100 l 1,69,-1
 500 0 l 1,70,-1
 400 0 l 1,71,-1
 400 100 l 1,68,-1
EndSplineSet
Validated: 5
EndChar

StartChar: braceleft
Encoding: 123 123 93
Width: 600
GlyphClass: 1
Flags: W
LayerCount: 2
Fore
SplineSet
200 700 m 1,0,-1
 300 700 l 1,1,-1
 300 600 l 1,2,-1
 200 600 l 1,3,-1
 200 700 l 1,0,-1
300 700 m 1,4,-1
 400 700 l 1,5,-1
 400 600 l 1,6,-1
 300 600 l 1,7,-1
 300 700 l 1,4,-1
100 600 m 1,8,-1
 200 600 l 1,9,-1
 200 500 l 1,10,-1
 100 500 l 1,11,-1
 100 600 l 1,8,-1
200 600 m 1,12,-1
 300 600 l 1,13,-1
 300 500 l 1,14,-1
 200 500 l 1,15,-1
 200 600 l 1,12,-1
100 500 m 1,16,-1
 200 500 l 1,17,-1
 200 400 l 1,18,-1
 100 400 l 1,19,-1
 100 500 l 1,16,-1
200 500 m 1,20,-1
 300 500 l 1,21,-1
 300 400 l 1,22,-1
 200 400 l 1,23,-1
 200 500 l 1,20,-1
0 400 m 1,24,-1
 100 400 l 1,25,-1
 100 300 l 1,26,-1
 0 300 l 1,27,-1
 0 400 l 1,24,-1
100 400 m 1,28,-1
 200 400 l 1,29,-1
 200 300 l 1,30,-1
 100 300 l 1,31,-1
 100 400 l 1,28,-1
100 300 m 1,32,-1
 200 300 l 1,33,-1
 200 200 l 1,34,-1
 100 200 l 1,35,-1
 100 300 l 1,32,-1
200 300 m 1,36,-1
 300 300 l 1,37,-1
 300 200 l 1,38,-1
 200 200 l 1,39,-1
 200 300 l 1,36,-1
100 200 m 1,40,-1
 200 200 l 1,41,-1
 200 100 l 1,42,-1
 100 100 l 1,43,-1
 100 200 l 1,40,-1
200 200 m 1,44,-1
 300 200 l 1,45,-1
 300 100 l 1,46,-1
 200 100 l 1,47,-1
 200 200 l 1,44,-1
200 100 m 1,48,-1
 300 100 l 1,49,-1
 300 0 l 1,50,-1
 200 0 l 1,51,-1
 200 100 l 1,48,-1
300 100 m 1,52,-1
 400 100 l 1,53,-1
 400 0 l 1,54,-1
 300 0 l 1,55,-1
 300 100 l 1,52,-1
EndSplineSet
Validated: 5
EndChar

StartChar: bar
Encoding: 124 124 94
Width: 600
GlyphClass: 1
Flags: W
LayerCount: 2
Fore
SplineSet
100 700 m 1,0,-1
 200 700 l 1,1,-1
 200 600 l 1,2,-1
 100 600 l 1,3,-1
 100 700 l 1,0,-1
200 700 m 1,4,-1
 300 700 l 1,5,-1
 300 600 l 1,6,-1
 200 600 l 1,7,-1
 200 700 l 1,4,-1
100 600 m 1,8,-1
 200 600 l 1,9,-1
 200 500 l 1,10,-1
 100 500 l 1,11,-1
 100 600 l 1,8,-1
200 600 m 1,12,-1
 300 600 l 1,13,-1
 300 500 l 1,14,-1
 200 500 l 1,15,-1
 200 600 l 1,12,-1
100 500 m 1,16,-1
 200 500 l 1,17,-1
 200 400 l 1,18,-1
 100 400 l 1,19,-1
 100 500 l 1,16,-1
200 500 m 1,20,-1
 300 500 l 1,21,-1
 300 400 l 1,22,-1
 200 400 l 1,23,-1
 200 500 l 1,20,-1
100 400 m 1,24,-1
 200 400 l 1,25,-1
 200 300 l 1,26,-1
 100 300 l 1,27,-1
 100 400 l 1,24,-1
200 400 m 1,28,-1
 300 400 l 1,29,-1
 300 300 l 1,30,-1
 200 300 l 1,31,-1
 200 400 l 1,28,-1
100 300 m 1,32,-1
 200 300 l 1,33,-1
 200 200 l 1,34,-1
 100 200 l 1,35,-1
 100 300 l 1,32,-1
200 300 m 1,36,-1
 300 300 l 1,37,-1
 300 200 l 1,38,-1
 200 200 l 1,39,-1
 200 300 l 1,36,-1
100 200 m 1,40,-1
 200 200 l 1,41,-1
 200 100 l 1,42,-1
 100 100 l 1,43,-1
 100 200 l 1,40,-1
200 200 m 1,44,-1
 300 200 l 1,45,-1
 300 100 l 1,46,-1
 200 100 l 1,47,-1
 200 200 l 1,44,-1
100 100 m 1,48,-1
 200 100 l 1,49,-1
 200 0 l 1,50,-1
 100 0 l 1,51,-1
 100 100 l 1,48,-1
200 100 m 1,52,-1
 300 100 l 1,53,-1
 300 0 l 1,54,-1
 200 0 l 1,55,-1
 200 100 l 1,52,-1
EndSplineSet
Validated: 5
EndChar

StartChar: braceright
Encoding: 125 125 95
Width: 600
GlyphClass: 1
Flags: W
LayerCount: 2
Fore
SplineSet
100 700 m 1,0,-1
 200 700 l 1,1,-1
 200 600 l 1,2,-1
 100 600 l 1,3,-1
 100 700 l 1,0,-1
200 700 m 1,4,-1
 300 700 l 1,5,-1
 300 600 l 1,6,-1
 200 600 l 1,7,-1
 200 700 l 1,4,-1
200 600 m 1,8,-1
 300 600 l 1,9,-1
 300 500 l 1,10,-1
 200 500 l 1,11,-1
 200 600 l 1,8,-1
300 600 m 1,12,-1
 400 600 l 1,13,-1
 400 500 l 1,14,-1
 300 500 l 1,15,-1
 300 600 l 1,12,-1
200 500 m 1,16,-1
 300 500 l 1,17,-1
 300 400 l 1,18,-1
 200 400 l 1,19,-1
 200 500 l 1,16,-1
300 500 m 1,20,-1
 400 500 l 1,21,-1
 400 400 l 1,22,-1
 300 400 l 1,23,-1
 300 500 l 1,20,-1
300 400 m 1,24,-1
 400 400 l 1,25,-1
 400 300 l 1,26,-1
 300 300 l 1,27,-1
 300 400 l 1,24,-1
400 400 m 1,28,-1
 500 400 l 1,29,-1
 500 300 l 1,30,-1
 400 300 l 1,31,-1
 400 400 l 1,28,-1
200 300 m 1,32,-1
 300 300 l 1,33,-1
 300 200 l 1,34,-1
 200 200 l 1,35,-1
 200 300 l 1,32,-1
300 300 m 1,36,-1
 400 300 l 1,37,-1
 400 200 l 1,38,-1
 300 200 l 1,39,-1
 300 300 l 1,36,-1
200 200 m 1,40,-1
 300 200 l 1,41,-1
 300 100 l 1,42,-1
 200 100 l 1,43,-1
 200 200 l 1,40,-1
300 200 m 1,44,-1
 400 200 l 1,45,-1
 400 100 l 1,46,-1
 300 100 l 1,47,-1
 300 200 l 1,44,-1
100 100 m 1,48,-1
 200 100 l 1,49,-1
 200 0 l 1,50,-1
 100 0 l 1,51,-1
 100 100 l 1,48,-1
200 100 m 1,52,-1
 300 100 l 1,53,-1
 300 0 l 1,54,-1
 200 0 l 1,55,-1
 200 100 l 1,52,-1
EndSplineSet
Validated: 5
EndChar

StartChar: asciitilde
Encoding: 126 126 96
Width: 600
GlyphClass: 1
Flags: W
LayerCount: 2
Fore
SplineSet
100 400 m 1,0,-1
 200 400 l 1,1,-1
 200 300 l 1,2,-1
 100 300 l 1,3,-1
 100 400 l 1,0,-1
200 400 m 1,4,-1
 300 400 l 1,5,-1
 300 300 l 1,6,-1
 200 300 l 1,7,-1
 200 400 l 1,4,-1
400 400 m 1,8,-1
 500 400 l 1,9,-1
 500 300 l 1,10,-1
 400 300 l 1,11,-1
 400 400 l 1,8,-1
0 300 m 1,12,-1
 100 300 l 1,13,-1
 100 200 l 1,14,-1
 0 200 l 1,15,-1
 0 300 l 1,12,-1
200 300 m 1,16,-1
 300 300 l 1,17,-1
 300 200 l 1,18,-1
 200 200 l 1,19,-1
 200 300 l 1,16,-1
300 300 m 1,20,-1
 400 300 l 1,21,-1
 400 200 l 1,22,-1
 300 200 l 1,23,-1
 300 300 l 1,20,-1
EndSplineSet
Validated: 5
EndChar

StartChar: exclamdown
Encoding: 161 161 97
Width: 600
GlyphClass: 1
Flags: W
LayerCount: 2
Fore
SplineSet
200 700 m 1,0,-1
 300 700 l 1,1,-1
 300 600 l 1,2,-1
 200 600 l 1,3,-1
 200 700 l 1,0,-1
300 700 m 1,4,-1
 400 700 l 1,5,-1
 400 600 l 1,6,-1
 300 600 l 1,7,-1
 300 700 l 1,4,-1
200 500 m 1,8,-1
 300 500 l 1,9,-1
 300 400 l 1,10,-1
 200 400 l 1,11,-1
 200 500 l 1,8,-1
300 500 m 1,12,-1
 400 500 l 1,13,-1
 400 400 l 1,14,-1
 300 400 l 1,15,-1
 300 500 l 1,12,-1
200 400 m 1,16,-1
 300 400 l 1,17,-1
 300 300 l 1,18,-1
 200 300 l 1,19,-1
 200 400 l 1,16,-1
300 400 m 1,20,-1
 400 400 l 1,21,-1
 400 300 l 1,22,-1
 300 300 l 1,23,-1
 300 400 l 1,20,-1
200 300 m 1,24,-1
 300 300 l 1,25,-1
 300 200 l 1,26,-1
 200 200 l 1,27,-1
 200 300 l 1,24,-1
300 300 m 1,28,-1
 400 300 l 1,29,-1
 400 200 l 1,30,-1
 300 200 l 1,31,-1
 300 300 l 1,28,-1
200 200 m 1,32,-1
 300 200 l 1,33,-1
 300 100 l 1,34,-1
 200 100 l 1,35,-1
 200 200 l 1,32,-1
300 200 m 1,36,-1
 400 200 l 1,37,-1
 400 100 l 1,38,-1
 300 100 l 1,39,-1
 300 200 l 1,36,-1
200 100 m 1,40,-1
 300 100 l 1,41,-1
 300 0 l 1,42,-1
 200 0 l 1,43,-1
 200 100 l 1,40,-1
300 100 m 1,44,-1
 400 100 l 1,45,-1
 400 0 l 1,46,-1
 300 0 l 1,47,-1
 300 100 l 1,44,-1
EndSplineSet
Validated: 5
EndChar

StartChar: cent
Encoding: 162 162 98
Width: 600
GlyphClass: 1
Flags: W
LayerCount: 2
Fore
SplineSet
200 600 m 1,0,-1
 300 600 l 1,1,-1
 300 500 l 1,2,-1
 200 500 l 1,3,-1
 200 600 l 1,0,-1
100 500 m 1,4,-1
 200 500 l 1,5,-1
 200 400 l 1,6,-1
 100 400 l 1,7,-1
 100 500 l 1,4,-1
200 500 m 1,8,-1
 300 500 l 1,9,-1
 300 400 l 1,10,-1
 200 400 l 1,11,-1
 200 500 l 1,8,-1
300 500 m 1,12,-1
 400 500 l 1,13,-1
 400 400 l 1,14,-1
 300 400 l 1,15,-1
 300 500 l 1,12,-1
400 500 m 1,16,-1
 500 500 l 1,17,-1
 500 400 l 1,18,-1
 400 400 l 1,19,-1
 400 500 l 1,16,-1
0 400 m 1,20,-1
 100 400 l 1,21,-1
 100 300 l 1,22,-1
 0 300 l 1,23,-1
 0 400 l 1,20,-1
200 400 m 1,24,-1
 300 400 l 1,25,-1
 300 300 l 1,26,-1
 200 300 l 1,27,-1
 200 400 l 1,24,-1
0 300 m 1,28,-1
 100 300 l 1,29,-1
 100 200 l 1,30,-1
 0 200 l 1,31,-1
 0 300 l 1,28,-1
200 300 m 1,32,-1
 300 300 l 1,33,-1
 300 200 l 1,34,-1
 200 200 l 1,35,-1
 200 300 l 1,32,-1
0 200 m 1,36,-1
 100 200 l 1,37,-1
 100 100 l 1,38,-1
 0 100 l 1,39,-1
 0 200 l 1,36,-1
200 200 m 1,40,-1
 300 200 l 1,41,-1
 300 100 l 1,42,-1
 200 100 l 1,43,-1
 200 200 l 1,40,-1
100 100 m 1,44,-1
 200 100 l 1,45,-1
 200 0 l 1,46,-1
 100 0 l 1,47,-1
 100 100 l 1,44,-1
200 100 m 1,48,-1
 300 100 l 1,49,-1
 300 0 l 1,50,-1
 200 0 l 1,51,-1
 200 100 l 1,48,-1
300 100 m 1,52,-1
 400 100 l 1,53,-1
 400 0 l 1,54,-1
 300 0 l 1,55,-1
 300 100 l 1,52,-1
400 100 m 1,56,-1
 500 100 l 1,57,-1
 500 0 l 1,58,-1
 400 0 l 1,59,-1
 400 100 l 1,56,-1
200 0 m 1,60,-1
 300 0 l 1,61,-1
 300 -100 l 1,62,-1
 200 -100 l 1,63,-1
 200 0 l 1,60,-1
EndSplineSet
Validated: 5
EndChar

StartChar: sterling
Encoding: 163 163 99
Width: 600
GlyphClass: 1
Flags: W
LayerCount: 2
Fore
SplineSet
200 700 m 1,0,-1
 300 700 l 1,1,-1
 300 600 l 1,2,-1
 200 600 l 1,3,-1
 200 700 l 1,0,-1
300 700 m 1,4,-1
 400 700 l 1,5,-1
 400 600 l 1,6,-1
 300 600 l 1,7,-1
 300 700 l 1,4,-1
100 600 m 1,8,-1
 200 600 l 1,9,-1
 200 500 l 1,10,-1
 100 500 l 1,11,-1
 100 600 l 1,8,-1
200 600 m 1,12,-1
 300 600 l 1,13,-1
 300 500 l 1,14,-1
 200 500 l 1,15,-1
 200 600 l 1,12,-1
400 600 m 1,16,-1
 500 600 l 1,17,-1
 500 500 l 1,18,-1
 400 500 l 1,19,-1
 400 600 l 1,16,-1
100 500 m 1,20,-1
 200 500 l 1,21,-1
 200 400 l 1,22,-1
 100 400 l 1,23,-1
 100 500 l 1,20,-1
200 500 m 1,24,-1
 300 500 l 1,25,-1
 300 400 l 1,26,-1
 200 400 l 1,27,-1
 200 500 l 1,24,-1
0 400 m 1,28,-1
 100 400 l 1,29,-1
 100 300 l 1,30,-1
 0 300 l 1,31,-1
 0 400 l 1,28,-1
100 400 m 1,32,-1
 200 400 l 1,33,-1
 200 300 l 1,34,-1
 100 300 l 1,35,-1
 100 400 l 1,32,-1
200 400 m 1,36,-1
 300 400 l 1,37,-1
 300 300 l 1,38,-1
 200 300 l 1,39,-1
 200 400 l 1,36,-1
300 400 m 1,40,-1
 400 400 l 1,41,-1
 400 300 l 1,42,-1
 300 300 l 1,43,-1
 300 400 l 1,40,-1
100 300 m 1,44,-1
 200 300 l 1,45,-1
 200 200 l 1,46,-1
 100 200 l 1,47,-1
 100 300 l 1,44,-1
200 300 m 1,48,-1
 300 300 l 1,49,-1
 300 200 l 1,50,-1
 200 200 l 1,51,-1
 200 300 l 1,48,-1
100 200 m 1,52,-1
 200 200 l 1,53,-1
 200 100 l 1,54,-1
 100 100 l 1,55,-1
 100 200 l 1,52,-1
200 200 m 1,56,-1
 300 200 l 1,57,-1
 300 100 l 1,58,-1
 200 100 l 1,59,-1
 200 200 l 1,56,-1
0 100 m 1,60,-1
 100 100 l 1,61,-1
 100 0 l 1,62,-1
 0 0 l 1,63,-1
 0 100 l 1,60,-1
100 100 m 1,64,-1
 200 100 l 1,65,-1
 200 0 l 1,66,-1
 100 0 l 1,67,-1
 100 100 l 1,64,-1
200 100 m 1,68,-1
 300 100 l 1,69,-1
 300 0 l 1,70,-1
 200 0 l 1,71,-1
 200 100 l 1,68,-1
300 100 m 1,72,-1
 400 100 l 1,73,-1
 400 0 l 1,74,-1
 300 0 l 1,75,-1
 300 100 l 1,72,-1
400 100 m 1,76,-1
 500 100 l 1,77,-1
 500 0 l 1,78,-1
 400 0 l 1,79,-1
 400 100 l 1,76,-1
EndSplineSet
Validated: 5
EndChar

StartChar: currency
Encoding: 164 164 100
Width: 600
GlyphClass: 1
Flags: W
LayerCount: 2
Fore
SplineSet
0 500 m 1,0,-1
 100 500 l 1,1,-1
 100 400 l 1,2,-1
 0 400 l 1,3,-1
 0 500 l 1,0,-1
400 500 m 1,4,-1
 500 500 l 1,5,-1
 500 400 l 1,6,-1
 400 400 l 1,7,-1
 400 500 l 1,4,-1
100 400 m 1,8,-1
 200 400 l 1,9,-1
 200 300 l 1,10,-1
 100 300 l 1,11,-1
 100 400 l 1,8,-1
200 400 m 1,12,-1
 300 400 l 1,13,-1
 300 300 l 1,14,-1
 200 300 l 1,15,-1
 200 400 l 1,12,-1
300 400 m 1,16,-1
 400 400 l 1,17,-1
 400 300 l 1,18,-1
 300 300 l 1,19,-1
 300 400 l 1,16,-1
100 300 m 1,20,-1
 200 300 l 1,21,-1
 200 200 l 1,22,-1
 100 200 l 1,23,-1
 100 300 l 1,20,-1
300 300 m 1,24,-1
 400 300 l 1,25,-1
 400 200 l 1,26,-1
 300 200 l 1,27,-1
 300 300 l 1,24,-1
100 200 m 1,28,-1
 200 200 l 1,29,-1
 200 100 l 1,30,-1
 100 100 l 1,31,-1
 100 200 l 1,28,-1
200 200 m 1,32,-1
 300 200 l 1,33,-1
 300 100 l 1,34,-1
 200 100 l 1,35,-1
 200 200 l 1,32,-1
300 200 m 1,36,-1
 400 200 l 1,37,-1
 400 100 l 1,38,-1
 300 100 l 1,39,-1
 300 200 l 1,36,-1
0 100 m 1,40,-1
 100 100 l 1,41,-1
 100 0 l 1,42,-1
 0 0 l 1,43,-1
 0 100 l 1,40,-1
400 100 m 1,44,-1
 500 100 l 1,45,-1
 500 0 l 1,46,-1
 400 0 l 1,47,-1
 400 100 l 1,44,-1
EndSplineSet
Validated: 5
EndChar

StartChar: yen
Encoding: 165 165 101
Width: 600
GlyphClass: 1
Flags: W
LayerCount: 2
Fore
SplineSet
0 700 m 1,0,-1
 100 700 l 1,1,-1
 100 600 l 1,2,-1
 0 600 l 1,3,-1
 0 700 l 1,0,-1
400 700 m 1,4,-1
 500 700 l 1,5,-1
 500 600 l 1,6,-1
 400 600 l 1,7,-1
 400 700 l 1,4,-1
0 600 m 1,8,-1
 100 600 l 1,9,-1
 100 500 l 1,10,-1
 0 500 l 1,11,-1
 0 600 l 1,8,-1
400 600 m 1,12,-1
 500 600 l 1,13,-1
 500 500 l 1,14,-1
 400 500 l 1,15,-1
 400 600 l 1,12,-1
100 500 m 1,16,-1
 200 500 l 1,17,-1
 200 400 l 1,18,-1
 100 400 l 1,19,-1
 100 500 l 1,16,-1
300 500 m 1,20,-1
 400 500 l 1,21,-1
 400 400 l 1,22,-1
 300 400 l 1,23,-1
 300 500 l 1,20,-1
200 400 m 1,24,-1
 300 400 l 1,25,-1
 300 300 l 1,26,-1
 200 300 l 1,27,-1
 200 400 l 1,24,-1
100 300 m 1,28,-1
 200 300 l 1,29,-1
 200 200 l 1,30,-1
 100 200 l 1,31,-1
 100 300 l 1,28,-1
200 300 m 1,32,-1
 300 300 l 1,33,-1
 300 200 l 1,34,-1
 200 200 l 1,35,-1
 200 300 l 1,32,-1
300 300 m 1,36,-1
 400 300 l 1,37,-1
 400 200 l 1,38,-1
 300 200 l 1,39,-1
 300 300 l 1,36,-1
100 200 m 1,40,-1
 200 200 l 1,41,-1
 200 100 l 1,42,-1
 100 100 l 1,43,-1
 100 200 l 1,40,-1
200 200 m 1,44,-1
 300 200 l 1,45,-1
 300 100 l 1,46,-1
 200 100 l 1,47,-1
 200 200 l 1,44,-1
300 200 m 1,48,-1
 400 200 l 1,49,-1
 400 100 l 1,50,-1
 300 100 l 1,51,-1
 300 200 l 1,48,-1
200 100 m 1,52,-1
 300 100 l 1,53,-1
 300 0 l 1,54,-1
 200 0 l 1,55,-1
 200 100 l 1,52,-1
EndSplineSet
Validated: 5
EndChar

StartChar: section
Encoding: 167 167 102
Width: 600
GlyphClass: 1
Flags: W
LayerCount: 2
Fore
SplineSet
100 700 m 1,0,-1
 200 700 l 1,1,-1
 200 600 l 1,2,-1
 100 600 l 1,3,-1
 100 700 l 1,0,-1
200 700 m 1,4,-1
 300 700 l 1,5,-1
 300 600 l 1,6,-1
 200 600 l 1,7,-1
 200 700 l 1,4,-1
300 700 m 1,8,-1
 400 700 l 1,9,-1
 400 600 l 1,10,-1
 300 600 l 1,11,-1
 300 700 l 1,8,-1
0 600 m 1,12,-1
 100 600 l 1,13,-1
 100 500 l 1,14,-1
 0 500 l 1,15,-1
 0 600 l 1,12,-1
0 500 m 1,16,-1
 100 500 l 1,17,-1
 100 400 l 1,18,-1
 0 400 l 1,19,-1
 0 500 l 1,16,-1
100 400 m 1,20,-1
 200 400 l 1,21,-1
 200 300 l 1,22,-1
 100 300 l 1,23,-1
 100 400 l 1,20,-1
200 400 m 1,24,-1
 300 400 l 1,25,-1
 300 300 l 1,26,-1
 200 300 l 1,27,-1
 200 400 l 1,24,-1
300 400 m 1,28,-1
 400 400 l 1,29,-1
 400 300 l 1,30,-1
 300 300 l 1,31,-1
 300 400 l 1,28,-1
0 300 m 1,32,-1
 100 300 l 1,33,-1
 100 200 l 1,34,-1
 0 200 l 1,35,-1
 0 300 l 1,32,-1
400 300 m 1,36,-1
 500 300 l 1,37,-1
 500 200 l 1,38,-1
 400 200 l 1,39,-1
 400 300 l 1,36,-1
100 200 m 1,40,-1
 200 200 l 1,41,-1
 200 100 l 1,42,-1
 100 100 l 1,43,-1
 100 200 l 1,40,-1
200 200 m 1,44,-1
 300 200 l 1,45,-1
 300 100 l 1,46,-1
 200 100 l 1,47,-1
 200 200 l 1,44,-1
300 200 m 1,48,-1
 400 200 l 1,49,-1
 400 100 l 1,50,-1
 300 100 l 1,51,-1
 300 200 l 1,48,-1
400 100 m 1,52,-1
 500 100 l 1,53,-1
 500 0 l 1,54,-1
 400 0 l 1,55,-1
 400 100 l 1,52,-1
0 0 m 1,56,-1
 100 0 l 1,57,-1
 100 -100 l 1,58,-1
 0 -100 l 1,59,-1
 0 0 l 1,56,-1
100 0 m 1,60,-1
 200 0 l 1,61,-1
 200 -100 l 1,62,-1
 100 -100 l 1,63,-1
 100 0 l 1,60,-1
200 0 m 1,64,-1
 300 0 l 1,65,-1
 300 -100 l 1,66,-1
 200 -100 l 1,67,-1
 200 0 l 1,64,-1
300 0 m 1,68,-1
 400 0 l 1,69,-1
 400 -100 l 1,70,-1
 300 -100 l 1,71,-1
 300 0 l 1,68,-1
EndSplineSet
Validated: 5
EndChar

StartChar: copyright
Encoding: 169 169 103
Width: 600
GlyphClass: 1
Flags: W
LayerCount: 2
Fore
SplineSet
100 700 m 1,0,-1
 200 700 l 1,1,-1
 200 600 l 1,2,-1
 100 600 l 1,3,-1
 100 700 l 1,0,-1
200 700 m 1,4,-1
 300 700 l 1,5,-1
 300 600 l 1,6,-1
 200 600 l 1,7,-1
 200 700 l 1,4,-1
300 700 m 1,8,-1
 400 700 l 1,9,-1
 400 600 l 1,10,-1
 300 600 l 1,11,-1
 300 700 l 1,8,-1
0 600 m 1,12,-1
 100 600 l 1,13,-1
 100 500 l 1,14,-1
 0 500 l 1,15,-1
 0 600 l 1,12,-1
400 600 m 1,16,-1
 500 600 l 1,17,-1
 500 500 l 1,18,-1
 400 500 l 1,19,-1
 400 600 l 1,16,-1
0 500 m 1,20,-1
 100 500 l 1,21,-1
 100 400 l 1,22,-1
 0 400 l 1,23,-1
 0 500 l 1,20,-1
100 500 m 1,24,-1
 200 500 l 1,25,-1
 200 400 l 1,26,-1
 100 400 l 1,27,-1
 100 500 l 1,24,-1
200 500 m 1,28,-1
 300 500 l 1,29,-1
 300 400 l 1,30,-1
 200 400 l 1,31,-1
 200 500 l 1,28,-1
400 500 m 1,32,-1
 500 500 l 1,33,-1
 500 400 l 1,34,-1
 400 400 l 1,35,-1
 400 500 l 1,32,-1
0 400 m 1,36,-1
 100 400 l 1,37,-1
 100 300 l 1,38,-1
 0 300 l 1,39,-1
 0 400 l 1,36,-1
100 400 m 1,40,-1
 200 400 l 1,41,-1
 200 300 l 1,42,-1
 100 300 l 1,43,-1
 100 400 l 1,40,-1
400 400 m 1,44,-1
 500 400 l 1,45,-1
 500 300 l 1,46,-1
 400 300 l 1,47,-1
 400 400 l 1,44,-1
0 300 m 1,48,-1
 100 300 l 1,49,-1
 100 200 l 1,50,-1
 0 200 l 1,51,-1
 0 300 l 1,48,-1
100 300 m 1,52,-1
 200 300 l 1,53,-1
 200 200 l 1,54,-1
 100 200 l 1,55,-1
 100 300 l 1,52,-1
200 300 m 1,56,-1
 300 300 l 1,57,-1
 300 200 l 1,58,-1
 200 200 l 1,59,-1
 200 300 l 1,56,-1
400 300 m 1,60,-1
 500 300 l 1,61,-1
 500 200 l 1,62,-1
 400 200 l 1,63,-1
 400 300 l 1,60,-1
0 200 m 1,64,-1
 100 200 l 1,65,-1
 100 100 l 1,66,-1
 0 100 l 1,67,-1
 0 200 l 1,64,-1
400 200 m 1,68,-1
 500 200 l 1,69,-1
 500 100 l 1,70,-1
 400 100 l 1,71,-1
 400 200 l 1,68,-1
100 100 m 1,72,-1
 200 100 l 1,73,-1
 200 0 l 1,74,-1
 100 0 l 1,75,-1
 100 100 l 1,72,-1
200 100 m 1,76,-1
 300 100 l 1,77,-1
 300 0 l 1,78,-1
 200 0 l 1,79,-1
 200 100 l 1,76,-1
300 100 m 1,80,-1
 400 100 l 1,81,-1
 400 0 l 1,82,-1
 300 0 l 1,83,-1
 300 100 l 1,80,-1
EndSplineSet
Validated: 5
EndChar

StartChar: ordfeminine
Encoding: 170 170 104
Width: 600
GlyphClass: 1
Flags: W
LayerCount: 2
Fore
SplineSet
200 700 m 1,0,-1
 300 700 l 1,1,-1
 300 600 l 1,2,-1
 200 600 l 1,3,-1
 200 700 l 1,0,-1
300 700 m 1,4,-1
 400 700 l 1,5,-1
 400 600 l 1,6,-1
 300 600 l 1,7,-1
 300 700 l 1,4,-1
100 600 m 1,8,-1
 200 600 l 1,9,-1
 200 500 l 1,10,-1
 100 500 l 1,11,-1
 100 600 l 1,8,-1
300 600 m 1,12,-1
 400 600 l 1,13,-1
 400 500 l 1,14,-1
 300 500 l 1,15,-1
 300 600 l 1,12,-1
100 500 m 1,16,-1
 200 500 l 1,17,-1
 200 400 l 1,18,-1
 100 400 l 1,19,-1
 100 500 l 1,16,-1
200 500 m 1,20,-1
 300 500 l 1,21,-1
 300 400 l 1,22,-1
 200 400 l 1,23,-1
 200 500 l 1,20,-1
300 500 m 1,24,-1
 400 500 l 1,25,-1
 400 400 l 1,26,-1
 300 400 l 1,27,-1
 300 500 l 1,24,-1
400 500 m 1,28,-1
 500 500 l 1,29,-1
 500 400 l 1,30,-1
 400 400 l 1,31,-1
 400 500 l 1,28,-1
EndSplineSet
Validated: 5
EndChar

StartChar: guillemotleft
Encoding: 171 171 105
Width: 600
GlyphClass: 1
Flags: W
LayerCount: 2
Fore
SplineSet
100 400 m 1,0,-1
 200 400 l 1,1,-1
 200 300 l 1,2,-1
 100 300 l 1,3,-1
 100 400 l 1,0,-1
400 400 m 1,4,-1
 500 400 l 1,5,-1
 500 300 l 1,6,-1
 400 300 l 1,7,-1
 400 400 l 1,4,-1
0 300 m 1,8,-1
 100 300 l 1,9,-1
 100 200 l 1,10,-1
 0 200 l 1,11,-1
 0 300 l 1,8,-1
300 300 m 1,12,-1
 400 300 l 1,13,-1
 400 200 l 1,14,-1
 300 200 l 1,15,-1
 300 300 l 1,12,-1
100 200 m 1,16,-1
 200 200 l 1,17,-1
 200 100 l 1,18,-1
 100 100 l 1,19,-1
 100 200 l 1,16,-1
400 200 m 1,20,-1
 500 200 l 1,21,-1
 500 100 l 1,22,-1
 400 100 l 1,23,-1
 400 200 l 1,20,-1
EndSplineSet
Validated: 5
EndChar

StartChar: registered
Encoding: 174 174 106
Width: 600
GlyphClass: 1
Flags: W
LayerCount: 2
Fore
SplineSet
100 700 m 1,0,-1
 200 700 l 1,1,-1
 200 600 l 1,2,-1
 100 600 l 1,3,-1
 100 700 l 1,0,-1
200 700 m 1,4,-1
 300 700 l 1,5,-1
 300 600 l 1,6,-1
 200 600 l 1,7,-1
 200 700 l 1,4,-1
300 700 m 1,8,-1
 400 700 l 1,9,-1
 400 600 l 1,10,-1
 300 600 l 1,11,-1
 300 700 l 1,8,-1
100 600 m 1,12,-1
 200 600 l 1,13,-1
 200 500 l 1,14,-1
 100 500 l 1,15,-1
 100 600 l 1,12,-1
300 600 m 1,16,-1
 400 600 l 1,17,-1
 400 500 l 1,18,-1
 300 500 l 1,19,-1
 300 600 l 1,16,-1
100 500 m 1,20,-1
 200 500 l 1,21,-1
 200 400 l 1,22,-1
 100 400 l 1,23,-1
 100 500 l 1,20,-1
200 500 m 1,24,-1
 300 500 l 1,25,-1
 300 400 l 1,26,-1
 200 400 l 1,27,-1
 200 500 l 1,24,-1
100 400 m 1,28,-1
 200 400 l 1,29,-1
 200 300 l 1,30,-1
 100 300 l 1,31,-1
 100 400 l 1,28,-1
300 400 m 1,32,-1
 400 400 l 1,33,-1
 400 300 l 1,34,-1
 300 300 l 1,35,-1
 300 400 l 1,32,-1
EndSplineSet
Validated: 5
EndChar

StartChar: degree
Encoding: 176 176 107
Width: 600
GlyphClass: 1
Flags: W
LayerCount: 2
Fore
SplineSet
100 700 m 1,0,-1
 200 700 l 1,1,-1
 200 600 l 1,2,-1
 100 600 l 1,3,-1
 100 700 l 1,0,-1
200 700 m 1,4,-1
 300 700 l 1,5,-1
 300 600 l 1,6,-1
 200 600 l 1,7,-1
 200 700 l 1,4,-1
0 600 m 1,8,-1
 100 600 l 1,9,-1
 100 500 l 1,10,-1
 0 500 l 1,11,-1
 0 600 l 1,8,-1
100 600 m 1,12,-1
 200 600 l 1,13,-1
 200 500 l 1,14,-1
 100 500 l 1,15,-1
 100 600 l 1,12,-1
300 600 m 1,16,-1
 400 600 l 1,17,-1
 400 500 l 1,18,-1
 300 500 l 1,19,-1
 300 600 l 1,16,-1
0 500 m 1,20,-1
 100 500 l 1,21,-1
 100 400 l 1,22,-1
 0 400 l 1,23,-1
 0 500 l 1,20,-1
100 500 m 1,24,-1
 200 500 l 1,25,-1
 200 400 l 1,26,-1
 100 400 l 1,27,-1
 100 500 l 1,24,-1
300 500 m 1,28,-1
 400 500 l 1,29,-1
 400 400 l 1,30,-1
 300 400 l 1,31,-1
 300 500 l 1,28,-1
100 400 m 1,32,-1
 200 400 l 1,33,-1
 200 300 l 1,34,-1
 100 300 l 1,35,-1
 100 400 l 1,32,-1
200 400 m 1,36,-1
 300 400 l 1,37,-1
 300 300 l 1,38,-1
 200 300 l 1,39,-1
 200 400 l 1,36,-1
EndSplineSet
Validated: 5
EndChar

StartChar: plusminus
Encoding: 177 177 108
Width: 600
GlyphClass: 1
Flags: W
LayerCount: 2
Fore
SplineSet
200 600 m 1,0,-1
 300 600 l 1,1,-1
 300 500 l 1,2,-1
 200 500 l 1,3,-1
 200 600 l 1,0,-1
200 500 m 1,4,-1
 300 500 l 1,5,-1
 300 400 l 1,6,-1
 200 400 l 1,7,-1
 200 500 l 1,4,-1
0 400 m 1,8,-1
 100 400 l 1,9,-1
 100 300 l 1,10,-1
 0 300 l 1,11,-1
 0 400 l 1,8,-1
100 400 m 1,12,-1
 200 400 l 1,13,-1
 200 300 l 1,14,-1
 100 300 l 1,15,-1
 100 400 l 1,12,-1
200 400 m 1,16,-1
 300 400 l 1,17,-1
 300 300 l 1,18,-1
 200 300 l 1,19,-1
 200 400 l 1,16,-1
300 400 m 1,20,-1
 400 400 l 1,21,-1
 400 300 l 1,22,-1
 300 300 l 1,23,-1
 300 400 l 1,20,-1
400 400 m 1,24,-1
 500 400 l 1,25,-1
 500 300 l 1,26,-1
 400 300 l 1,27,-1
 400 400 l 1,24,-1
200 300 m 1,28,-1
 300 300 l 1,29,-1
 300 200 l 1,30,-1
 200 200 l 1,31,-1
 200 300 l 1,28,-1
200 200 m 1,32,-1
 300 200 l 1,33,-1
 300 100 l 1,34,-1
 200 100 l 1,35,-1
 200 200 l 1,32,-1
0 100 m 1,36,-1
 100 100 l 1,37,-1
 100 0 l 1,38,-1
 0 0 l 1,39,-1
 0 100 l 1,36,-1
100 100 m 1,40,-1
 200 100 l 1,41,-1
 200 0 l 1,42,-1
 100 0 l 1,43,-1
 100 100 l 1,40,-1
200 100 m 1,44,-1
 300 100 l 1,45,-1
 300 0 l 1,46,-1
 200 0 l 1,47,-1
 200 100 l 1,44,-1
300 100 m 1,48,-1
 400 100 l 1,49,-1
 400 0 l 1,50,-1
 300 0 l 1,51,-1
 300 100 l 1,48,-1
400 100 m 1,52,-1
 500 100 l 1,53,-1
 500 0 l 1,54,-1
 400 0 l 1,55,-1
 400 100 l 1,52,-1
EndSplineSet
Validated: 5
EndChar

StartChar: uni00B2
Encoding: 178 178 109
Width: 600
GlyphClass: 1
Flags: W
LayerCount: 2
Fore
SplineSet
100 700 m 1,0,-1
 200 700 l 1,1,-1
 200 600 l 1,2,-1
 100 600 l 1,3,-1
 100 700 l 1,0,-1
200 700 m 1,4,-1
 300 700 l 1,5,-1
 300 600 l 1,6,-1
 200 600 l 1,7,-1
 200 700 l 1,4,-1
300 600 m 1,8,-1
 400 600 l 1,9,-1
 400 500 l 1,10,-1
 300 500 l 1,11,-1
 300 600 l 1,8,-1
100 500 m 1,12,-1
 200 500 l 1,13,-1
 200 400 l 1,14,-1
 100 400 l 1,15,-1
 100 500 l 1,12,-1
200 500 m 1,16,-1
 300 500 l 1,17,-1
 300 400 l 1,18,-1
 200 400 l 1,19,-1
 200 500 l 1,16,-1
100 400 m 1,20,-1
 200 400 l 1,21,-1
 200 300 l 1,22,-1
 100 300 l 1,23,-1
 100 400 l 1,20,-1
200 400 m 1,24,-1
 300 400 l 1,25,-1
 300 300 l 1,26,-1
 200 300 l 1,27,-1
 200 400 l 1,24,-1
300 400 m 1,28,-1
 400 400 l 1,29,-1
 400 300 l 1,30,-1
 300 300 l 1,31,-1
 300 400 l 1,28,-1
EndSplineSet
Validated: 5
EndChar

StartChar: uni00B3
Encoding: 179 179 110
Width: 600
GlyphClass: 1
Flags: W
LayerCount: 2
Fore
SplineSet
100 700 m 1,0,-1
 200 700 l 1,1,-1
 200 600 l 1,2,-1
 100 600 l 1,3,-1
 100 700 l 1,0,-1
200 700 m 1,4,-1
 300 700 l 1,5,-1
 300 600 l 1,6,-1
 200 600 l 1,7,-1
 200 700 l 1,4,-1
300 600 m 1,8,-1
 400 600 l 1,9,-1
 400 500 l 1,10,-1
 300 500 l 1,11,-1
 300 600 l 1,8,-1
200 500 m 1,12,-1
 300 500 l 1,13,-1
 300 400 l 1,14,-1
 200 400 l 1,15,-1
 200 500 l 1,12,-1
300 500 m 1,16,-1
 400 500 l 1,17,-1
 400 400 l 1,18,-1
 300 400 l 1,19,-1
 300 500 l 1,16,-1
100 400 m 1,20,-1
 200 400 l 1,21,-1
 200 300 l 1,22,-1
 100 300 l 1,23,-1
 100 400 l 1,20,-1
200 400 m 1,24,-1
 300 400 l 1,25,-1
 300 300 l 1,26,-1
 200 300 l 1,27,-1
 200 400 l 1,24,-1
300 400 m 1,28,-1
 400 400 l 1,29,-1
 400 300 l 1,30,-1
 300 300 l 1,31,-1
 300 400 l 1,28,-1
EndSplineSet
Validated: 5
EndChar

StartChar: uni00B9
Encoding: 185 185 111
Width: 600
GlyphClass: 1
Flags: W
LayerCount: 2
Fore
SplineSet
200 700 m 1,0,-1
 300 700 l 1,1,-1
 300 600 l 1,2,-1
 200 600 l 1,3,-1
 200 700 l 1,0,-1
100 600 m 1,4,-1
 200 600 l 1,5,-1
 200 500 l 1,6,-1
 100 500 l 1,7,-1
 100 600 l 1,4,-1
200 600 m 1,8,-1
 300 600 l 1,9,-1
 300 500 l 1,10,-1
 200 500 l 1,11,-1
 200 600 l 1,8,-1
200 500 m 1,12,-1
 300 500 l 1,13,-1
 300 400 l 1,14,-1
 200 400 l 1,15,-1
 200 500 l 1,12,-1
100 400 m 1,16,-1
 200 400 l 1,17,-1
 200 300 l 1,18,-1
 100 300 l 1,19,-1
 100 400 l 1,16,-1
200 400 m 1,20,-1
 300 400 l 1,21,-1
 300 300 l 1,22,-1
 200 300 l 1,23,-1
 200 400 l 1,20,-1
300 400 m 1,24,-1
 400 400 l 1,25,-1
 400 300 l 1,26,-1
 300 300 l 1,27,-1
 300 400 l 1,24,-1
EndSplineSet
Validated: 5
EndChar

StartChar: ordmasculine
Encoding: 186 186 112
Width: 600
GlyphClass: 1
Flags: W
LayerCount: 2
Fore
SplineSet
200 700 m 1,0,-1
 300 700 l 1,1,-1
 300 600 l 1,2,-1
 200 600 l 1,3,-1
 200 700 l 1,0,-1
300 700 m 1,4,-1
 400 700 l 1,5,-1
 400 600 l 1,6,-1
 300 600 l 1,7,-1
 300 700 l 1,4,-1
100 600 m 1,8,-1
 200 600 l 1,9,-1
 200 500 l 1,10,-1
 100 500 l 1,11,-1
 100 600 l 1,8,-1
400 600 m 1,12,-1
 500 600 l 1,13,-1
 500 500 l 1,14,-1
 400 500 l 1,15,-1
 400 600 l 1,12,-1
100 500 m 1,16,-1
 200 500 l 1,17,-1
 200 400 l 1,18,-1
 100 400 l 1,19,-1
 100 500 l 1,16,-1
400 500 m 1,20,-1
 500 500 l 1,21,-1
 500 400 l 1,22,-1
 400 400 l 1,23,-1
 400 500 l 1,20,-1
200 400 m 1,24,-1
 300 400 l 1,25,-1
 300 300 l 1,26,-1
 200 300 l 1,27,-1
 200 400 l 1,24,-1
300 400 m 1,28,-1
 400 400 l 1,29,-1
 400 300 l 1,30,-1
 300 300 l 1,31,-1
 300 400 l 1,28,-1
EndSplineSet
Validated: 5
EndChar

StartChar: guillemotright
Encoding: 187 187 113
Width: 600
GlyphClass: 1
Flags: W
LayerCount: 2
Fore
SplineSet
0 400 m 1,0,-1
 100 400 l 1,1,-1
 100 300 l 1,2,-1
 0 300 l 1,3,-1
 0 400 l 1,0,-1
300 400 m 1,4,-1
 400 400 l 1,5,-1
 400 300 l 1,6,-1
 300 300 l 1,7,-1
 300 400 l 1,4,-1
100 300 m 1,8,-1
 200 300 l 1,9,-1
 200 200 l 1,10,-1
 100 200 l 1,11,-1
 100 300 l 1,8,-1
400 300 m 1,12,-1
 500 300 l 1,13,-1
 500 200 l 1,14,-1
 400 200 l 1,15,-1
 400 300 l 1,12,-1
0 200 m 1,16,-1
 100 200 l 1,17,-1
 100 100 l 1,18,-1
 0 100 l 1,19,-1
 0 200 l 1,16,-1
300 200 m 1,20,-1
 400 200 l 1,21,-1
 400 100 l 1,22,-1
 300 100 l 1,23,-1
 300 200 l 1,20,-1
EndSplineSet
Validated: 5
EndChar

StartChar: questiondown
Encoding: 191 191 114
Width: 600
GlyphClass: 1
Flags: W
LayerCount: 2
Fore
SplineSet
100 700 m 1,0,-1
 200 700 l 1,1,-1
 200 600 l 1,2,-1
 100 600 l 1,3,-1
 100 700 l 1,0,-1
200 700 m 1,4,-1
 300 700 l 1,5,-1
 300 600 l 1,6,-1
 200 600 l 1,7,-1
 200 700 l 1,4,-1
100 500 m 1,8,-1
 200 500 l 1,9,-1
 200 400 l 1,10,-1
 100 400 l 1,11,-1
 100 500 l 1,8,-1
200 500 m 1,12,-1
 300 500 l 1,13,-1
 300 400 l 1,14,-1
 200 400 l 1,15,-1
 200 500 l 1,12,-1
100 400 m 1,16,-1
 200 400 l 1,17,-1
 200 300 l 1,18,-1
 100 300 l 1,19,-1
 100 400 l 1,16,-1
200 400 m 1,20,-1
 300 400 l 1,21,-1
 300 300 l 1,22,-1
 200 300 l 1,23,-1
 200 400 l 1,20,-1
0 300 m 1,24,-1
 100 300 l 1,25,-1
 100 200 l 1,26,-1
 0 200 l 1,27,-1
 0 300 l 1,24,-1
100 300 m 1,28,-1
 200 300 l 1,29,-1
 200 200 l 1,30,-1
 100 200 l 1,31,-1
 100 300 l 1,28,-1
0 200 m 1,32,-1
 100 200 l 1,33,-1
 100 100 l 1,34,-1
 0 100 l 1,35,-1
 0 200 l 1,32,-1
100 200 m 1,36,-1
 200 200 l 1,37,-1
 200 100 l 1,38,-1
 100 100 l 1,39,-1
 100 200 l 1,36,-1
400 200 m 1,40,-1
 500 200 l 1,41,-1
 500 100 l 1,42,-1
 400 100 l 1,43,-1
 400 200 l 1,40,-1
100 100 m 1,44,-1
 200 100 l 1,45,-1
 200 0 l 1,46,-1
 100 0 l 1,47,-1
 100 100 l 1,44,-1
200 100 m 1,48,-1
 300 100 l 1,49,-1
 300 0 l 1,50,-1
 200 0 l 1,51,-1
 200 100 l 1,48,-1
300 100 m 1,52,-1
 400 100 l 1,53,-1
 400 0 l 1,54,-1
 300 0 l 1,55,-1
 300 100 l 1,52,-1
EndSplineSet
Validated: 5
EndChar

StartChar: Agrave
Encoding: 192 192 115
Width: 600
GlyphClass: 1
Flags: W
LayerCount: 2
Fore
SplineSet
100 800 m 1,0,-1
 200 800 l 1,1,-1
 200 700 l 1,2,-1
 100 700 l 1,3,-1
 100 800 l 1,0,-1
200 700 m 1,4,-1
 300 700 l 1,5,-1
 300 600 l 1,6,-1
 200 600 l 1,7,-1
 200 700 l 1,4,-1
100 600 m 1,8,-1
 200 600 l 1,9,-1
 200 500 l 1,10,-1
 100 500 l 1,11,-1
 100 600 l 1,8,-1
200 600 m 1,12,-1
 300 600 l 1,13,-1
 300 500 l 1,14,-1
 200 500 l 1,15,-1
 200 600 l 1,12,-1
300 600 m 1,16,-1
 400 600 l 1,17,-1
 400 500 l 1,18,-1
 300 500 l 1,19,-1
 300 600 l 1,16,-1
0 500 m 1,20,-1
 100 500 l 1,21,-1
 100 400 l 1,22,-1
 0 400 l 1,23,-1
 0 500 l 1,20,-1
100 500 m 1,24,-1
 200 500 l 1,25,-1
 200 400 l 1,26,-1
 100 400 l 1,27,-1
 100 500 l 1,24,-1
400 500 m 1,28,-1
 500 500 l 1,29,-1
 500 400 l 1,30,-1
 400 400 l 1,31,-1
 400 500 l 1,28,-1
0 400 m 1,32,-1
 100 400 l 1,33,-1
 100 300 l 1,34,-1
 0 300 l 1,35,-1
 0 400 l 1,32,-1
100 400 m 1,36,-1
 200 400 l 1,37,-1
 200 300 l 1,38,-1
 100 300 l 1,39,-1
 100 400 l 1,36,-1
400 400 m 1,40,-1
 500 400 l 1,41,-1
 500 300 l 1,42,-1
 400 300 l 1,43,-1
 400 400 l 1,40,-1
0 300 m 1,44,-1
 100 300 l 1,45,-1
 100 200 l 1,46,-1
 0 200 l 1,47,-1
 0 300 l 1,44,-1
100 300 m 1,48,-1
 200 300 l 1,49,-1
 200 200 l 1,50,-1
 100 200 l 1,51,-1
 100 300 l 1,48,-1
400 300 m 1,52,-1
 500 300 l 1,53,-1
 500 200 l 1,54,-1
 400 200 l 1,55,-1
 400 300 l 1,52,-1
0 200 m 1,56,-1
 100 200 l 1,57,-1
 100 100 l 1,58,-1
 0 100 l 1,59,-1
 0 200 l 1,56,-1
100 200 m 1,60,-1
 200 200 l 1,61,-1
 200 100 l 1,62,-1
 100 100 l 1,63,-1
 100 200 l 1,60,-1
200 200 m 1,64,-1
 300 200 l 1,65,-1
 300 100 l 1,66,-1
 200 100 l 1,67,-1
 200 200 l 1,64,-1
300 200 m 1,68,-1
 400 200 l 1,69,-1
 400 100 l 1,70,-1
 300 100 l 1,71,-1
 300 200 l 1,68,-1
400 200 m 1,72,-1
 500 200 l 1,73,-1
 500 100 l 1,74,-1
 400 100 l 1,75,-1
 400 200 l 1,72,-1
0 100 m 1,76,-1
 100 100 l 1,77,-1
 100 0 l 1,78,-1
 0 0 l 1,79,-1
 0 100 l 1,76,-1
100 100 m 1,80,-1
 200 100 l 1,81,-1
 200 0 l 1,82,-1
 100 0 l 1,83,-1
 100 100 l 1,80,-1
400 100 m 1,84,-1
 500 100 l 1,85,-1
 500 0 l 1,86,-1
 400 0 l 1,87,-1
 400 100 l 1,84,-1
EndSplineSet
Validated: 5
EndChar

StartChar: Aacute
Encoding: 193 193 116
Width: 600
GlyphClass: 1
Flags: W
LayerCount: 2
Fore
SplineSet
300 800 m 1,0,-1
 400 800 l 1,1,-1
 400 700 l 1,2,-1
 300 700 l 1,3,-1
 300 800 l 1,0,-1
200 700 m 1,4,-1
 300 700 l 1,5,-1
 300 600 l 1,6,-1
 200 600 l 1,7,-1
 200 700 l 1,4,-1
100 600 m 1,8,-1
 200 600 l 1,9,-1
 200 500 l 1,10,-1
 100 500 l 1,11,-1
 100 600 l 1,8,-1
200 600 m 1,12,-1
 300 600 l 1,13,-1
 300 500 l 1,14,-1
 200 500 l 1,15,-1
 200 600 l 1,12,-1
300 600 m 1,16,-1
 400 600 l 1,17,-1
 400 500 l 1,18,-1
 300 500 l 1,19,-1
 300 600 l 1,16,-1
0 500 m 1,20,-1
 100 500 l 1,21,-1
 100 400 l 1,22,-1
 0 400 l 1,23,-1
 0 500 l 1,20,-1
100 500 m 1,24,-1
 200 500 l 1,25,-1
 200 400 l 1,26,-1
 100 400 l 1,27,-1
 100 500 l 1,24,-1
400 500 m 1,28,-1
 500 500 l 1,29,-1
 500 400 l 1,30,-1
 400 400 l 1,31,-1
 400 500 l 1,28,-1
0 400 m 1,32,-1
 100 400 l 1,33,-1
 100 300 l 1,34,-1
 0 300 l 1,35,-1
 0 400 l 1,32,-1
100 400 m 1,36,-1
 200 400 l 1,37,-1
 200 300 l 1,38,-1
 100 300 l 1,39,-1
 100 400 l 1,36,-1
400 400 m 1,40,-1
 500 400 l 1,41,-1
 500 300 l 1,42,-1
 400 300 l 1,43,-1
 400 400 l 1,40,-1
0 300 m 1,44,-1
 100 300 l 1,45,-1
 100 200 l 1,46,-1
 0 200 l 1,47,-1
 0 300 l 1,44,-1
100 300 m 1,48,-1
 200 300 l 1,49,-1
 200 200 l 1,50,-1
 100 200 l 1,51,-1
 100 300 l 1,48,-1
400 300 m 1,52,-1
 500 300 l 1,53,-1
 500 200 l 1,54,-1
 400 200 l 1,55,-1
 400 300 l 1,52,-1
0 200 m 1,56,-1
 100 200 l 1,57,-1
 100 100 l 1,58,-1
 0 100 l 1,59,-1
 0 200 l 1,56,-1
100 200 m 1,60,-1
 200 200 l 1,61,-1
 200 100 l 1,62,-1
 100 100 l 1,63,-1
 100 200 l 1,60,-1
200 200 m 1,64,-1
 300 200 l 1,65,-1
 300 100 l 1,66,-1
 200 100 l 1,67,-1
 200 200 l 1,64,-1
300 200 m 1,68,-1
 400 200 l 1,69,-1
 400 100 l 1,70,-1
 300 100 l 1,71,-1
 300 200 l 1,68,-1
400 200 m 1,72,-1
 500 200 l 1,73,-1
 500 100 l 1,74,-1
 400 100 l 1,75,-1
 400 200 l 1,72,-1
0 100 m 1,76,-1
 100 100 l 1,77,-1
 100 0 l 1,78,-1
 0 0 l 1,79,-1
 0 100 l 1,76,-1
100 100 m 1,80,-1
 200 100 l 1,81,-1
 200 0 l 1,82,-1
 100 0 l 1,83,-1
 100 100 l 1,80,-1
400 100 m 1,84,-1
 500 100 l 1,85,-1
 500 0 l 1,86,-1
 400 0 l 1,87,-1
 400 100 l 1,84,-1
EndSplineSet
Validated: 5
EndChar

StartChar: Acircumflex
Encoding: 194 194 117
Width: 600
GlyphClass: 1
Flags: W
LayerCount: 2
Fore
SplineSet
200 800 m 1,0,-1
 300 800 l 1,1,-1
 300 700 l 1,2,-1
 200 700 l 1,3,-1
 200 800 l 1,0,-1
100 700 m 1,4,-1
 200 700 l 1,5,-1
 200 600 l 1,6,-1
 100 600 l 1,7,-1
 100 700 l 1,4,-1
300 700 m 1,8,-1
 400 700 l 1,9,-1
 400 600 l 1,10,-1
 300 600 l 1,11,-1
 300 700 l 1,8,-1
100 600 m 1,12,-1
 200 600 l 1,13,-1
 200 500 l 1,14,-1
 100 500 l 1,15,-1
 100 600 l 1,12,-1
200 600 m 1,16,-1
 300 600 l 1,17,-1
 300 500 l 1,18,-1
 200 500 l 1,19,-1
 200 600 l 1,16,-1
300 600 m 1,20,-1
 400 600 l 1,21,-1
 400 500 l 1,22,-1
 300 500 l 1,23,-1
 300 600 l 1,20,-1
0 500 m 1,24,-1
 100 500 l 1,25,-1
 100 400 l 1,26,-1
 0 400 l 1,27,-1
 0 500 l 1,24,-1
100 500 m 1,28,-1
 200 500 l 1,29,-1
 200 400 l 1,30,-1
 100 400 l 1,31,-1
 100 500 l 1,28,-1
400 500 m 1,32,-1
 500 500 l 1,33,-1
 500 400 l 1,34,-1
 400 400 l 1,35,-1
 400 500 l 1,32,-1
0 400 m 1,36,-1
 100 400 l 1,37,-1
 100 300 l 1,38,-1
 0 300 l 1,39,-1
 0 400 l 1,36,-1
100 400 m 1,40,-1
 200 400 l 1,41,-1
 200 300 l 1,42,-1
 100 300 l 1,43,-1
 100 400 l 1,40,-1
400 400 m 1,44,-1
 500 400 l 1,45,-1
 500 300 l 1,46,-1
 400 300 l 1,47,-1
 400 400 l 1,44,-1
0 300 m 1,48,-1
 100 300 l 1,49,-1
 100 200 l 1,50,-1
 0 200 l 1,51,-1
 0 300 l 1,48,-1
100 300 m 1,52,-1
 200 300 l 1,53,-1
 200 200 l 1,54,-1
 100 200 l 1,55,-1
 100 300 l 1,52,-1
400 300 m 1,56,-1
 500 300 l 1,57,-1
 500 200 l 1,58,-1
 400 200 l 1,59,-1
 400 300 l 1,56,-1
0 200 m 1,60,-1
 100 200 l 1,61,-1
 100 100 l 1,62,-1
 0 100 l 1,63,-1
 0 200 l 1,60,-1
100 200 m 1,64,-1
 200 200 l 1,65,-1
 200 100 l 1,66,-1
 100 100 l 1,67,-1
 100 200 l 1,64,-1
200 200 m 1,68,-1
 300 200 l 1,69,-1
 300 100 l 1,70,-1
 200 100 l 1,71,-1
 200 200 l 1,68,-1
300 200 m 1,72,-1
 400 200 l 1,73,-1
 400 100 l 1,74,-1
 300 100 l 1,75,-1
 300 200 l 1,72,-1
400 200 m 1,76,-1
 500 200 l 1,77,-1
 500 100 l 1,78,-1
 400 100 l 1,79,-1
 400 200 l 1,76,-1
0 100 m 1,80,-1
 100 100 l 1,81,-1
 100 0 l 1,82,-1
 0 0 l 1,83,-1
 0 100 l 1,80,-1
100 100 m 1,84,-1
 200 100 l 1,85,-1
 200 0 l 1,86,-1
 100 0 l 1,87,-1
 100 100 l 1,84,-1
400 100 m 1,88,-1
 500 100 l 1,89,-1
 500 0 l 1,90,-1
 400 0 l 1,91,-1
 400 100 l 1,88,-1
EndSplineSet
Validated: 5
EndChar

StartChar: Atilde
Encoding: 195 195 118
Width: 600
GlyphClass: 1
Flags: W
LayerCount: 2
Fore
SplineSet
100 800 m 1,0,-1
 200 800 l 1,1,-1
 200 700 l 1,2,-1
 100 700 l 1,3,-1
 100 800 l 1,0,-1
200 800 m 1,4,-1
 300 800 l 1,5,-1
 300 700 l 1,6,-1
 200 700 l 1,7,-1
 200 800 l 1,4,-1
400 800 m 1,8,-1
 500 800 l 1,9,-1
 500 700 l 1,10,-1
 400 700 l 1,11,-1
 400 800 l 1,8,-1
0 700 m 1,12,-1
 100 700 l 1,13,-1
 100 600 l 1,14,-1
 0 600 l 1,15,-1
 0 700 l 1,12,-1
300 700 m 1,16,-1
 400 700 l 1,17,-1
 400 600 l 1,18,-1
 300 600 l 1,19,-1
 300 700 l 1,16,-1
100 600 m 1,20,-1
 200 600 l 1,21,-1
 200 500 l 1,22,-1
 100 500 l 1,23,-1
 100 600 l 1,20,-1
200 600 m 1,24,-1
 300 600 l 1,25,-1
 300 500 l 1,26,-1
 200 500 l 1,27,-1
 200 600 l 1,24,-1
300 600 m 1,28,-1
 400 600 l 1,29,-1
 400 500 l 1,30,-1
 300 500 l 1,31,-1
 300 600 l 1,28,-1
0 500 m 1,32,-1
 100 500 l 1,33,-1
 100 400 l 1,34,-1
 0 400 l 1,35,-1
 0 500 l 1,32,-1
100 500 m 1,36,-1
 200 500 l 1,37,-1
 200 400 l 1,38,-1
 100 400 l 1,39,-1
 100 500 l 1,36,-1
400 500 m 1,40,-1
 500 500 l 1,41,-1
 500 400 l 1,42,-1
 400 400 l 1,43,-1
 400 500 l 1,40,-1
0 400 m 1,44,-1
 100 400 l 1,45,-1
 100 300 l 1,46,-1
 0 300 l 1,47,-1
 0 400 l 1,44,-1
100 400 m 1,48,-1
 200 400 l 1,49,-1
 200 300 l 1,50,-1
 100 300 l 1,51,-1
 100 400 l 1,48,-1
400 400 m 1,52,-1
 500 400 l 1,53,-1
 500 300 l 1,54,-1
 400 300 l 1,55,-1
 400 400 l 1,52,-1
0 300 m 1,56,-1
 100 300 l 1,57,-1
 100 200 l 1,58,-1
 0 200 l 1,59,-1
 0 300 l 1,56,-1
100 300 m 1,60,-1
 200 300 l 1,61,-1
 200 200 l 1,62,-1
 100 200 l 1,63,-1
 100 300 l 1,60,-1
400 300 m 1,64,-1
 500 300 l 1,65,-1
 500 200 l 1,66,-1
 400 200 l 1,67,-1
 400 300 l 1,64,-1
0 200 m 1,68,-1
 100 200 l 1,69,-1
 100 100 l 1,70,-1
 0 100 l 1,71,-1
 0 200 l 1,68,-1
100 200 m 1,72,-1
 200 200 l 1,73,-1
 200 100 l 1,74,-1
 100 100 l 1,75,-1
 100 200 l 1,72,-1
200 200 m 1,76,-1
 300 200 l 1,77,-1
 300 100 l 1,78,-1
 200 100 l 1,79,-1
 200 200 l 1,76,-1
300 200 m 1,80,-1
 400 200 l 1,81,-1
 400 100 l 1,82,-1
 300 100 l 1,83,-1
 300 200 l 1,80,-1
400 200 m 1,84,-1
 500 200 l 1,85,-1
 500 100 l 1,86,-1
 400 100 l 1,87,-1
 400 200 l 1,84,-1
0 100 m 1,88,-1
 100 100 l 1,89,-1
 100 0 l 1,90,-1
 0 0 l 1,91,-1
 0 100 l 1,88,-1
100 100 m 1,92,-1
 200 100 l 1,93,-1
 200 0 l 1,94,-1
 100 0 l 1,95,-1
 100 100 l 1,92,-1
400 100 m 1,96,-1
 500 100 l 1,97,-1
 500 0 l 1,98,-1
 400 0 l 1,99,-1
 400 100 l 1,96,-1
EndSplineSet
Validated: 5
EndChar

StartChar: Adieresis
Encoding: 196 196 119
Width: 600
GlyphClass: 1
Flags: W
LayerCount: 2
Fore
SplineSet
100 800 m 1,0,-1
 200 800 l 1,1,-1
 200 700 l 1,2,-1
 100 700 l 1,3,-1
 100 800 l 1,0,-1
300 800 m 1,4,-1
 400 800 l 1,5,-1
 400 700 l 1,6,-1
 300 700 l 1,7,-1
 300 800 l 1,4,-1
100 600 m 1,8,-1
 200 600 l 1,9,-1
 200 500 l 1,10,-1
 100 500 l 1,11,-1
 100 600 l 1,8,-1
200 600 m 1,12,-1
 300 600 l 1,13,-1
 300 500 l 1,14,-1
 200 500 l 1,15,-1
 200 600 l 1,12,-1
300 600 m 1,16,-1
 400 600 l 1,17,-1
 400 500 l 1,18,-1
 300 500 l 1,19,-1
 300 600 l 1,16,-1
0 500 m 1,20,-1
 100 500 l 1,21,-1
 100 400 l 1,22,-1
 0 400 l 1,23,-1
 0 500 l 1,20,-1
100 500 m 1,24,-1
 200 500 l 1,25,-1
 200 400 l 1,26,-1
 100 400 l 1,27,-1
 100 500 l 1,24,-1
400 500 m 1,28,-1
 500 500 l 1,29,-1
 500 400 l 1,30,-1
 400 400 l 1,31,-1
 400 500 l 1,28,-1
0 400 m 1,32,-1
 100 400 l 1,33,-1
 100 300 l 1,34,-1
 0 300 l 1,35,-1
 0 400 l 1,32,-1
100 400 m 1,36,-1
 200 400 l 1,37,-1
 200 300 l 1,38,-1
 100 300 l 1,39,-1
 100 400 l 1,36,-1
400 400 m 1,40,-1
 500 400 l 1,41,-1
 500 300 l 1,42,-1
 400 300 l 1,43,-1
 400 400 l 1,40,-1
0 300 m 1,44,-1
 100 300 l 1,45,-1
 100 200 l 1,46,-1
 0 200 l 1,47,-1
 0 300 l 1,44,-1
100 300 m 1,48,-1
 200 300 l 1,49,-1
 200 200 l 1,50,-1
 100 200 l 1,51,-1
 100 300 l 1,48,-1
400 300 m 1,52,-1
 500 300 l 1,53,-1
 500 200 l 1,54,-1
 400 200 l 1,55,-1
 400 300 l 1,52,-1
0 200 m 1,56,-1
 100 200 l 1,57,-1
 100 100 l 1,58,-1
 0 100 l 1,59,-1
 0 200 l 1,56,-1
100 200 m 1,60,-1
 200 200 l 1,61,-1
 200 100 l 1,62,-1
 100 100 l 1,63,-1
 100 200 l 1,60,-1
200 200 m 1,64,-1
 300 200 l 1,65,-1
 300 100 l 1,66,-1
 200 100 l 1,67,-1
 200 200 l 1,64,-1
300 200 m 1,68,-1
 400 200 l 1,69,-1
 400 100 l 1,70,-1
 300 100 l 1,71,-1
 300 200 l 1,68,-1
400 200 m 1,72,-1
 500 200 l 1,73,-1
 500 100 l 1,74,-1
 400 100 l 1,75,-1
 400 200 l 1,72,-1
0 100 m 1,76,-1
 100 100 l 1,77,-1
 100 0 l 1,78,-1
 0 0 l 1,79,-1
 0 100 l 1,76,-1
100 100 m 1,80,-1
 200 100 l 1,81,-1
 200 0 l 1,82,-1
 100 0 l 1,83,-1
 100 100 l 1,80,-1
400 100 m 1,84,-1
 500 100 l 1,85,-1
 500 0 l 1,86,-1
 400 0 l 1,87,-1
 400 100 l 1,84,-1
EndSplineSet
Validated: 5
EndChar

StartChar: Aring
Encoding: 197 197 120
Width: 600
GlyphClass: 1
Flags: W
LayerCount: 2
Fore
SplineSet
200 800 m 1,0,-1
 300 800 l 1,1,-1
 300 700 l 1,2,-1
 200 700 l 1,3,-1
 200 800 l 1,0,-1
100 700 m 1,4,-1
 200 700 l 1,5,-1
 200 600 l 1,6,-1
 100 600 l 1,7,-1
 100 700 l 1,4,-1
300 700 m 1,8,-1
 400 700 l 1,9,-1
 400 600 l 1,10,-1
 300 600 l 1,11,-1
 300 700 l 1,8,-1
200 600 m 1,12,-1
 300 600 l 1,13,-1
 300 500 l 1,14,-1
 200 500 l 1,15,-1
 200 600 l 1,12,-1
100 500 m 1,16,-1
 200 500 l 1,17,-1
 200 400 l 1,18,-1
 100 400 l 1,19,-1
 100 500 l 1,16,-1
200 500 m 1,20,-1
 300 500 l 1,21,-1
 300 400 l 1,22,-1
 200 400 l 1,23,-1
 200 500 l 1,20,-1
300 500 m 1,24,-1
 400 500 l 1,25,-1
 400 400 l 1,26,-1
 300 400 l 1,27,-1
 300 500 l 1,24,-1
0 400 m 1,28,-1
 100 400 l 1,29,-1
 100 300 l 1,30,-1
 0 300 l 1,31,-1
 0 400 l 1,28,-1
100 400 m 1,32,-1
 200 400 l 1,33,-1
 200 300 l 1,34,-1
 100 300 l 1,35,-1
 100 400 l 1,32,-1
400 400 m 1,36,-1
 500 400 l 1,37,-1
 500 300 l 1,38,-1
 400 300 l 1,39,-1
 400 400 l 1,36,-1
0 300 m 1,40,-1
 100 300 l 1,41,-1
 100 200 l 1,42,-1
 0 200 l 1,43,-1
 0 300 l 1,40,-1
100 300 m 1,44,-1
 200 300 l 1,45,-1
 200 200 l 1,46,-1
 100 200 l 1,47,-1
 100 300 l 1,44,-1
400 300 m 1,48,-1
 500 300 l 1,49,-1
 500 200 l 1,50,-1
 400 200 l 1,51,-1
 400 300 l 1,48,-1
0 200 m 1,52,-1
 100 200 l 1,53,-1
 100 100 l 1,54,-1
 0 100 l 1,55,-1
 0 200 l 1,52,-1
100 200 m 1,56,-1
 200 200 l 1,57,-1
 200 100 l 1,58,-1
 100 100 l 1,59,-1
 100 200 l 1,56,-1
200 200 m 1,60,-1
 300 200 l 1,61,-1
 300 100 l 1,62,-1
 200 100 l 1,63,-1
 200 200 l 1,60,-1
300 200 m 1,64,-1
 400 200 l 1,65,-1
 400 100 l 1,66,-1
 300 100 l 1,67,-1
 300 200 l 1,64,-1
400 200 m 1,68,-1
 500 200 l 1,69,-1
 500 100 l 1,70,-1
 400 100 l 1,71,-1
 400 200 l 1,68,-1
0 100 m 1,72,-1
 100 100 l 1,73,-1
 100 0 l 1,74,-1
 0 0 l 1,75,-1
 0 100 l 1,72,-1
100 100 m 1,76,-1
 200 100 l 1,77,-1
 200 0 l 1,78,-1
 100 0 l 1,79,-1
 100 100 l 1,76,-1
400 100 m 1,80,-1
 500 100 l 1,81,-1
 500 0 l 1,82,-1
 400 0 l 1,83,-1
 400 100 l 1,80,-1
EndSplineSet
Validated: 5
EndChar

StartChar: AE
Encoding: 198 198 121
Width: 600
GlyphClass: 1
Flags: W
LayerCount: 2
Fore
SplineSet
100 700 m 1,0,-1
 200 700 l 1,1,-1
 200 600 l 1,2,-1
 100 600 l 1,3,-1
 100 700 l 1,0,-1
200 700 m 1,4,-1
 300 700 l 1,5,-1
 300 600 l 1,6,-1
 200 600 l 1,7,-1
 200 700 l 1,4,-1
300 700 m 1,8,-1
 400 700 l 1,9,-1
 400 600 l 1,10,-1
 300 600 l 1,11,-1
 300 700 l 1,8,-1
400 700 m 1,12,-1
 500 700 l 1,13,-1
 500 600 l 1,14,-1
 400 600 l 1,15,-1
 400 700 l 1,12,-1
0 600 m 1,16,-1
 100 600 l 1,17,-1
 100 500 l 1,18,-1
 0 500 l 1,19,-1
 0 600 l 1,16,-1
200 600 m 1,20,-1
 300 600 l 1,21,-1
 300 500 l 1,22,-1
 200 500 l 1,23,-1
 200 600 l 1,20,-1
300 600 m 1,24,-1
 400 600 l 1,25,-1
 400 500 l 1,26,-1
 300 500 l 1,27,-1
 300 600 l 1,24,-1
0 500 m 1,28,-1
 100 500 l 1,29,-1
 100 400 l 1,30,-1
 0 400 l 1,31,-1
 0 500 l 1,28,-1
200 500 m 1,32,-1
 300 500 l 1,33,-1
 300 400 l 1,34,-1
 200 400 l 1,35,-1
 200 500 l 1,32,-1
300 500 m 1,36,-1
 400 500 l 1,37,-1
 400 400 l 1,38,-1
 300 400 l 1,39,-1
 300 500 l 1,36,-1
0 400 m 1,40,-1
 100 400 l 1,41,-1
 100 300 l 1,42,-1
 0 300 l 1,43,-1
 0 400 l 1,40,-1
200 400 m 1,44,-1
 300 400 l 1,45,-1
 300 300 l 1,46,-1
 200 300 l 1,47,-1
 200 400 l 1,44,-1
300 400 m 1,48,-1
 400 400 l 1,49,-1
 400 300 l 1,50,-1
 300 300 l 1,51,-1
 300 400 l 1,48,-1
0 300 m 1,52,-1
 100 300 l 1,53,-1
 100 200 l 1,54,-1
 0 200 l 1,55,-1
 0 300 l 1,52,-1
100 300 m 1,56,-1
 200 300 l 1,57,-1
 200 200 l 1,58,-1
 100 200 l 1,59,-1
 100 300 l 1,56,-1
200 300 m 1,60,-1
 300 300 l 1,61,-1
 300 200 l 1,62,-1
 200 200 l 1,63,-1
 200 300 l 1,60,-1
300 300 m 1,64,-1
 400 300 l 1,65,-1
 400 200 l 1,66,-1
 300 200 l 1,67,-1
 300 300 l 1,64,-1
400 300 m 1,68,-1
 500 300 l 1,69,-1
 500 200 l 1,70,-1
 400 200 l 1,71,-1
 400 300 l 1,68,-1
0 200 m 1,72,-1
 100 200 l 1,73,-1
 100 100 l 1,74,-1
 0 100 l 1,75,-1
 0 200 l 1,72,-1
200 200 m 1,76,-1
 300 200 l 1,77,-1
 300 100 l 1,78,-1
 200 100 l 1,79,-1
 200 200 l 1,76,-1
300 200 m 1,80,-1
 400 200 l 1,81,-1
 400 100 l 1,82,-1
 300 100 l 1,83,-1
 300 200 l 1,80,-1
0 100 m 1,84,-1
 100 100 l 1,85,-1
 100 0 l 1,86,-1
 0 0 l 1,87,-1
 0 100 l 1,84,-1
200 100 m 1,88,-1
 300 100 l 1,89,-1
 300 0 l 1,90,-1
 200 0 l 1,91,-1
 200 100 l 1,88,-1
300 100 m 1,92,-1
 400 100 l 1,93,-1
 400 0 l 1,94,-1
 300 0 l 1,95,-1
 300 100 l 1,92,-1
400 100 m 1,96,-1
 500 100 l 1,97,-1
 500 0 l 1,98,-1
 400 0 l 1,99,-1
 400 100 l 1,96,-1
EndSplineSet
Validated: 5
EndChar

StartChar: Ccedilla
Encoding: 199 199 122
Width: 600
GlyphClass: 1
Flags: W
LayerCount: 2
Fore
SplineSet
100 700 m 1,0,-1
 200 700 l 1,1,-1
 200 600 l 1,2,-1
 100 600 l 1,3,-1
 100 700 l 1,0,-1
200 700 m 1,4,-1
 300 700 l 1,5,-1
 300 600 l 1,6,-1
 200 600 l 1,7,-1
 200 700 l 1,4,-1
300 700 m 1,8,-1
 400 700 l 1,9,-1
 400 600 l 1,10,-1
 300 600 l 1,11,-1
 300 700 l 1,8,-1
0 600 m 1,12,-1
 100 600 l 1,13,-1
 100 500 l 1,14,-1
 0 500 l 1,15,-1
 0 600 l 1,12,-1
100 600 m 1,16,-1
 200 600 l 1,17,-1
 200 500 l 1,18,-1
 100 500 l 1,19,-1
 100 600 l 1,16,-1
400 600 m 1,20,-1
 500 600 l 1,21,-1
 500 500 l 1,22,-1
 400 500 l 1,23,-1
 400 600 l 1,20,-1
0 500 m 1,24,-1
 100 500 l 1,25,-1
 100 400 l 1,26,-1
 0 400 l 1,27,-1
 0 500 l 1,24,-1
100 500 m 1,28,-1
 200 500 l 1,29,-1
 200 400 l 1,30,-1
 100 400 l 1,31,-1
 100 500 l 1,28,-1
0 400 m 1,32,-1
 100 400 l 1,33,-1
 100 300 l 1,34,-1
 0 300 l 1,35,-1
 0 400 l 1,32,-1
100 400 m 1,36,-1
 200 400 l 1,37,-1
 200 300 l 1,38,-1
 100 300 l 1,39,-1
 100 400 l 1,36,-1
0 300 m 1,40,-1
 100 300 l 1,41,-1
 100 200 l 1,42,-1
 0 200 l 1,43,-1
 0 300 l 1,40,-1
100 300 m 1,44,-1
 200 300 l 1,45,-1
 200 200 l 1,46,-1
 100 200 l 1,47,-1
 100 300 l 1,44,-1
0 200 m 1,48,-1
 100 200 l 1,49,-1
 100 100 l 1,50,-1
 0 100 l 1,51,-1
 0 200 l 1,48,-1
100 200 m 1,52,-1
 200 200 l 1,53,-1
 200 100 l 1,54,-1
 100 100 l 1,55,-1
 100 200 l 1,52,-1
400 200 m 1,56,-1
 500 200 l 1,57,-1
 500 100 l 1,58,-1
 400 100 l 1,59,-1
 400 200 l 1,56,-1
100 100 m 1,60,-1
 200 100 l 1,61,-1
 200 0 l 1,62,-1
 100 0 l 1,63,-1
 100 100 l 1,60,-1
200 100 m 1,64,-1
 300 100 l 1,65,-1
 300 0 l 1,66,-1
 200 0 l 1,67,-1
 200 100 l 1,64,-1
300 100 m 1,68,-1
 400 100 l 1,69,-1
 400 0 l 1,70,-1
 300 0 l 1,71,-1
 300 100 l 1,68,-1
200 0 m 1,72,-1
 300 0 l 1,73,-1
 300 -100 l 1,74,-1
 200 -100 l 1,75,-1
 200 0 l 1,72,-1
100 -100 m 1,76,-1
 200 -100 l 1,77,-1
 200 -200 l 1,78,-1
 100 -200 l 1,79,-1
 100 -100 l 1,76,-1
EndSplineSet
Validated: 5
EndChar

StartChar: Egrave
Encoding: 200 200 123
Width: 600
GlyphClass: 1
Flags: W
LayerCount: 2
Fore
SplineSet
100 800 m 1,0,-1
 200 800 l 1,1,-1
 200 700 l 1,2,-1
 100 700 l 1,3,-1
 100 800 l 1,0,-1
200 700 m 1,4,-1
 300 700 l 1,5,-1
 300 600 l 1,6,-1
 200 600 l 1,7,-1
 200 700 l 1,4,-1
0 600 m 1,8,-1
 100 600 l 1,9,-1
 100 500 l 1,10,-1
 0 500 l 1,11,-1
 0 600 l 1,8,-1
100 600 m 1,12,-1
 200 600 l 1,13,-1
 200 500 l 1,14,-1
 100 500 l 1,15,-1
 100 600 l 1,12,-1
200 600 m 1,16,-1
 300 600 l 1,17,-1
 300 500 l 1,18,-1
 200 500 l 1,19,-1
 200 600 l 1,16,-1
300 600 m 1,20,-1
 400 600 l 1,21,-1
 400 500 l 1,22,-1
 300 500 l 1,23,-1
 300 600 l 1,20,-1
400 600 m 1,24,-1
 500 600 l 1,25,-1
 500 500 l 1,26,-1
 400 500 l 1,27,-1
 400 600 l 1,24,-1
0 500 m 1,28,-1
 100 500 l 1,29,-1
 100 400 l 1,30,-1
 0 400 l 1,31,-1
 0 500 l 1,28,-1
100 500 m 1,32,-1
 200 500 l 1,33,-1
 200 400 l 1,34,-1
 100 400 l 1,35,-1
 100 500 l 1,32,-1
0 400 m 1,36,-1
 100 400 l 1,37,-1
 100 300 l 1,38,-1
 0 300 l 1,39,-1
 0 400 l 1,36,-1
100 400 m 1,40,-1
 200 400 l 1,41,-1
 200 300 l 1,42,-1
 100 300 l 1,43,-1
 100 400 l 1,40,-1
0 300 m 1,44,-1
 100 300 l 1,45,-1
 100 200 l 1,46,-1
 0 200 l 1,47,-1
 0 300 l 1,44,-1
100 300 m 1,48,-1
 200 300 l 1,49,-1
 200 200 l 1,50,-1
 100 200 l 1,51,-1
 100 300 l 1,48,-1
200 300 m 1,52,-1
 300 300 l 1,53,-1
 300 200 l 1,54,-1
 200 200 l 1,55,-1
 200 300 l 1,52,-1
300 300 m 1,56,-1
 400 300 l 1,57,-1
 400 200 l 1,58,-1
 300 200 l 1,59,-1
 300 300 l 1,56,-1
0 200 m 1,60,-1
 100 200 l 1,61,-1
 100 100 l 1,62,-1
 0 100 l 1,63,-1
 0 200 l 1,60,-1
100 200 m 1,64,-1
 200 200 l 1,65,-1
 200 100 l 1,66,-1
 100 100 l 1,67,-1
 100 200 l 1,64,-1
0 100 m 1,68,-1
 100 100 l 1,69,-1
 100 0 l 1,70,-1
 0 0 l 1,71,-1
 0 100 l 1,68,-1
100 100 m 1,72,-1
 200 100 l 1,73,-1
 200 0 l 1,74,-1
 100 0 l 1,75,-1
 100 100 l 1,72,-1
200 100 m 1,76,-1
 300 100 l 1,77,-1
 300 0 l 1,78,-1
 200 0 l 1,79,-1
 200 100 l 1,76,-1
300 100 m 1,80,-1
 400 100 l 1,81,-1
 400 0 l 1,82,-1
 300 0 l 1,83,-1
 300 100 l 1,80,-1
400 100 m 1,84,-1
 500 100 l 1,85,-1
 500 0 l 1,86,-1
 400 0 l 1,87,-1
 400 100 l 1,84,-1
EndSplineSet
Validated: 5
EndChar

StartChar: Eacute
Encoding: 201 201 124
Width: 600
GlyphClass: 1
Flags: W
LayerCount: 2
Fore
SplineSet
300 800 m 1,0,-1
 400 800 l 1,1,-1
 400 700 l 1,2,-1
 300 700 l 1,3,-1
 300 800 l 1,0,-1
200 700 m 1,4,-1
 300 700 l 1,5,-1
 300 600 l 1,6,-1
 200 600 l 1,7,-1
 200 700 l 1,4,-1
0 600 m 1,8,-1
 100 600 l 1,9,-1
 100 500 l 1,10,-1
 0 500 l 1,11,-1
 0 600 l 1,8,-1
100 600 m 1,12,-1
 200 600 l 1,13,-1
 200 500 l 1,14,-1
 100 500 l 1,15,-1
 100 600 l 1,12,-1
200 600 m 1,16,-1
 300 600 l 1,17,-1
 300 500 l 1,18,-1
 200 500 l 1,19,-1
 200 600 l 1,16,-1
300 600 m 1,20,-1
 400 600 l 1,21,-1
 400 500 l 1,22,-1
 300 500 l 1,23,-1
 300 600 l 1,20,-1
400 600 m 1,24,-1
 500 600 l 1,25,-1
 500 500 l 1,26,-1
 400 500 l 1,27,-1
 400 600 l 1,24,-1
0 500 m 1,28,-1
 100 500 l 1,29,-1
 100 400 l 1,30,-1
 0 400 l 1,31,-1
 0 500 l 1,28,-1
100 500 m 1,32,-1
 200 500 l 1,33,-1
 200 400 l 1,34,-1
 100 400 l 1,35,-1
 100 500 l 1,32,-1
0 400 m 1,36,-1
 100 400 l 1,37,-1
 100 300 l 1,38,-1
 0 300 l 1,39,-1
 0 400 l 1,36,-1
100 400 m 1,40,-1
 200 400 l 1,41,-1
 200 300 l 1,42,-1
 100 300 l 1,43,-1
 100 400 l 1,40,-1
0 300 m 1,44,-1
 100 300 l 1,45,-1
 100 200 l 1,46,-1
 0 200 l 1,47,-1
 0 300 l 1,44,-1
100 300 m 1,48,-1
 200 300 l 1,49,-1
 200 200 l 1,50,-1
 100 200 l 1,51,-1
 100 300 l 1,48,-1
200 300 m 1,52,-1
 300 300 l 1,53,-1
 300 200 l 1,54,-1
 200 200 l 1,55,-1
 200 300 l 1,52,-1
300 300 m 1,56,-1
 400 300 l 1,57,-1
 400 200 l 1,58,-1
 300 200 l 1,59,-1
 300 300 l 1,56,-1
0 200 m 1,60,-1
 100 200 l 1,61,-1
 100 100 l 1,62,-1
 0 100 l 1,63,-1
 0 200 l 1,60,-1
100 200 m 1,64,-1
 200 200 l 1,65,-1
 200 100 l 1,66,-1
 100 100 l 1,67,-1
 100 200 l 1,64,-1
0 100 m 1,68,-1
 100 100 l 1,69,-1
 100 0 l 1,70,-1
 0 0 l 1,71,-1
 0 100 l 1,68,-1
100 100 m 1,72,-1
 200 100 l 1,73,-1
 200 0 l 1,74,-1
 100 0 l 1,75,-1
 100 100 l 1,72,-1
200 100 m 1,76,-1
 300 100 l 1,77,-1
 300 0 l 1,78,-1
 200 0 l 1,79,-1
 200 100 l 1,76,-1
300 100 m 1,80,-1
 400 100 l 1,81,-1
 400 0 l 1,82,-1
 300 0 l 1,83,-1
 300 100 l 1,80,-1
400 100 m 1,84,-1
 500 100 l 1,85,-1
 500 0 l 1,86,-1
 400 0 l 1,87,-1
 400 100 l 1,84,-1
EndSplineSet
Validated: 5
EndChar

StartChar: Ecircumflex
Encoding: 202 202 125
Width: 600
GlyphClass: 1
Flags: W
LayerCount: 2
Fore
SplineSet
200 800 m 1,0,-1
 300 800 l 1,1,-1
 300 700 l 1,2,-1
 200 700 l 1,3,-1
 200 800 l 1,0,-1
100 700 m 1,4,-1
 200 700 l 1,5,-1
 200 600 l 1,6,-1
 100 600 l 1,7,-1
 100 700 l 1,4,-1
300 700 m 1,8,-1
 400 700 l 1,9,-1
 400 600 l 1,10,-1
 300 600 l 1,11,-1
 300 700 l 1,8,-1
0 600 m 1,12,-1
 100 600 l 1,13,-1
 100 500 l 1,14,-1
 0 500 l 1,15,-1
 0 600 l 1,12,-1
100 600 m 1,16,-1
 200 600 l 1,17,-1
 200 500 l 1,18,-1
 100 500 l 1,19,-1
 100 600 l 1,16,-1
200 600 m 1,20,-1
 300 600 l 1,21,-1
 300 500 l 1,22,-1
 200 500 l 1,23,-1
 200 600 l 1,20,-1
300 600 m 1,24,-1
 400 600 l 1,25,-1
 400 500 l 1,26,-1
 300 500 l 1,27,-1
 300 600 l 1,24,-1
400 600 m 1,28,-1
 500 600 l 1,29,-1
 500 500 l 1,30,-1
 400 500 l 1,31,-1
 400 600 l 1,28,-1
0 500 m 1,32,-1
 100 500 l 1,33,-1
 100 400 l 1,34,-1
 0 400 l 1,35,-1
 0 500 l 1,32,-1
100 500 m 1,36,-1
 200 500 l 1,37,-1
 200 400 l 1,38,-1
 100 400 l 1,39,-1
 100 500 l 1,36,-1
0 400 m 1,40,-1
 100 400 l 1,41,-1
 100 300 l 1,42,-1
 0 300 l 1,43,-1
 0 400 l 1,40,-1
100 400 m 1,44,-1
 200 400 l 1,45,-1
 200 300 l 1,46,-1
 100 300 l 1,47,-1
 100 400 l 1,44,-1
0 300 m 1,48,-1
 100 300 l 1,49,-1
 100 200 l 1,50,-1
 0 200 l 1,51,-1
 0 300 l 1,48,-1
100 300 m 1,52,-1
 200 300 l 1,53,-1
 200 200 l 1,54,-1
 100 200 l 1,55,-1
 100 300 l 1,52,-1
200 300 m 1,56,-1
 300 300 l 1,57,-1
 300 200 l 1,58,-1
 200 200 l 1,59,-1
 200 300 l 1,56,-1
300 300 m 1,60,-1
 400 300 l 1,61,-1
 400 200 l 1,62,-1
 300 200 l 1,63,-1
 300 300 l 1,60,-1
0 200 m 1,64,-1
 100 200 l 1,65,-1
 100 100 l 1,66,-1
 0 100 l 1,67,-1
 0 200 l 1,64,-1
100 200 m 1,68,-1
 200 200 l 1,69,-1
 200 100 l 1,70,-1
 100 100 l 1,71,-1
 100 200 l 1,68,-1
0 100 m 1,72,-1
 100 100 l 1,73,-1
 100 0 l 1,74,-1
 0 0 l 1,75,-1
 0 100 l 1,72,-1
100 100 m 1,76,-1
 200 100 l 1,77,-1
 200 0 l 1,78,-1
 100 0 l 1,79,-1
 100 100 l 1,76,-1
200 100 m 1,80,-1
 300 100 l 1,81,-1
 300 0 l 1,82,-1
 200 0 l 1,83,-1
 200 100 l 1,80,-1
300 100 m 1,84,-1
 400 100 l 1,85,-1
 400 0 l 1,86,-1
 300 0 l 1,87,-1
 300 100 l 1,84,-1
400 100 m 1,88,-1
 500 100 l 1,89,-1
 500 0 l 1,90,-1
 400 0 l 1,91,-1
 400 100 l 1,88,-1
EndSplineSet
Validated: 5
EndChar

